<?xml version="1.0" encoding="UTF-8" standalone="no"?>
<!-- Created with Inkscape (http://www.inkscape.org/) -->
<svg xmlns:rdf="http://www.w3.org/1999/02/22-rdf-syntax-ns#" xmlns="http://www.w3.org/2000/svg" height="16" width="15" version="1.1" xmlns:cc="http://creativecommons.org/ns#" xmlns:dc="http://purl.org/dc/elements/1.1/">
 <title>Lookit icon - mono dark - 16px</title>
 <metadata>
  <rdf:RDF>
   <cc:Work rdf:about="">
    <dc:format>image/svg+xml</dc:format>
    <dc:type rdf:resource="http://purl.org/dc/dcmitype/StillImage"/>
    <dc:title>Lookit icon - mono dark - 16px</dc:title>
    <dc:creator>
     <cc:Agent>
      <dc:title>Harenome Ranaivoarivony Razanajato</dc:title>
     </cc:Agent>
    </dc:creator>
    <cc:license rdf:resource="http://www.gnu.org/licenses/gpl.html"/>
   </cc:Work>
  </rdf:RDF>
 </metadata>
 <g fill-rule="evenodd" transform="translate(0,-1036.3622)">
  <path opacity="0.3" d="M7.5,1037.4c-4.1421,0-7.5,3.3-7.5,7.5,0,4.1,3.3579,7.5,7.5,7.5,4.142,0,7.5-3.4,7.5-7.5,0-4.2-3.358-7.5-7.5-7.5zm0,1c3.59,0,6.5,2.9,6.5,6.5s-2.91,6.5-6.5,6.5c-3.5899,0-6.5-2.9-6.5-6.5s2.9101-6.5,6.5-6.5zm0,1c-3.0376,0-5.5,2.4-5.5,5.5,0,3,2.4624,5.5,5.5,5.5,3.038,0,5.5-2.5,5.5-5.5,0-3.1-2.462-5.5-5.5-5.5zm0,4c0.8284,0,1.5,0.6,1.5,1.5,0,0.8-0.6716,1.5-1.5,1.5s-1.5-0.7-1.5-1.5c0-0.9,0.6716-1.5,1.5-1.5z" fill="#000"/>
  <path d="M7.5,0c-4.1421,0-7.5,3.3579-7.5,7.5,0,4.142,3.3579,7.5,7.5,7.5,4.142,0,7.5-3.358,7.5-7.5,0-4.1421-3.358-7.5-7.5-7.5zm0,1c3.59,0,6.5,2.9101,6.5,6.5,0,3.59-2.91,6.5-6.5,6.5-3.5899,0-6.5-2.91-6.5-6.5,0-3.5899,2.9101-6.5,6.5-6.5zm0,1c-3.0376,0-5.5,2.4624-5.5,5.5,0,3.038,2.4624,5.5,5.5,5.5,3.038,0,5.5-2.462,5.5-5.5,0-3.0376-2.462-5.5-5.5-5.5zm0,4c0.8284,0,1.5,0.6716,1.5,1.5s-0.6716,1.5-1.5,1.5-1.5-0.6716-1.5-1.5,0.6716-1.5,1.5-1.5z" transform="translate(0,1036.3622)" fill="#dfdbd2"/>
 </g>
</svg>
