<?xml version="1.0" encoding="UTF-8" standalone="no"?>
<!-- Created with Inkscape (http://www.inkscape.org/) -->
<svg xmlns:rdf="http://www.w3.org/1999/02/22-rdf-syntax-ns#" xmlns="http://www.w3.org/2000/svg" height="16" width="16" version="1.1" xmlns:cc="http://creativecommons.org/ns#" xmlns:dc="http://purl.org/dc/elements/1.1/">
 <title>Lookit icon - mono dark - alt - 16px</title>
 <metadata>
  <rdf:RDF>
   <cc:Work rdf:about="">
    <dc:format>image/svg+xml</dc:format>
    <dc:type rdf:resource="http://purl.org/dc/dcmitype/StillImage"/>
    <dc:title>Lookit icon - mono dark - alt - 16px</dc:title>
    <dc:creator>
     <cc:Agent>
      <dc:title>Harenome Ranaivoarivony Razanajato</dc:title>
     </cc:Agent>
    </dc:creator>
    <cc:license rdf:resource="http://www.gnu.org/licenses/gpl.html"/>
   </cc:Work>
  </rdf:RDF>
 </metadata>
 <g fill-rule="evenodd" transform="translate(0,-240)">
  <path opacity="0.3" d="M8,241c-4.4183,0-8,3.58-8,8,0,0.93,0.17578,1.82,0.46875,2.66,0.22862-0.37,0.46661-0.72,0.75005-1.04-0.1247-0.52-0.2188-1.06-0.2188-1.62,0-3.87,3.134-7,7-7s7,3.13,7,7c0,0.7-0.119,1.39-0.312,2.03,0.277,0.21,0.569,0.46,0.812,0.75,0.32-0.86,0.5-1.8,0.5-2.78,0-4.42-3.582-8-8-8zm0,2c-3.3137,0-6,2.69-6,6,0,0.27,0.0273,0.55,0.0625,0.81,0.8982-0.65,1.9385-0.89,2.9375-0.31,2.7682-4.8,8-1.7,8,1,0.25-0.07,0.516-0.04,0.781,0.03,0.129-0.49,0.219-1,0.219-1.53,0-3.31-2.686-6-6-6zm0.75,5c-1.3252,0.02-2.7119,0.7-3.75,2.5-3.3451-1.93-6.0288,4.33-4,5.5h14c2.066-1.19,0.074-5.06-2-4.5,0-1.69-2.041-3.53-4.25-3.5z" fill="#000"/>
  <path d="M8,0c-4.4183,0-8,3.5817-8,8,0,0.932,0.17578,1.8245,0.46875,2.656,0.22862-0.369,0.46661-0.7136,0.75005-1.031-0.1247-0.5229-0.2188-1.0639-0.2188-1.625,0-3.866,3.134-7,7-7s7,3.134,7,7c0,0.704-0.119,1.3903-0.312,2.031,0.277,0.213,0.569,0.455,0.812,0.75,0.32-0.8651,0.5-1.8041,0.5-2.781,0-4.4183-3.582-8-8-8zm0,2c-3.3137,0-6,2.6863-6,6,0,0.2726,0.0273,0.5495,0.0625,0.8125,0.8982-0.6557,1.9385-0.8893,2.9375-0.3125,2.7682-4.7971,8-1.7012,8,1,0.25-0.0669,0.516-0.0429,0.781,0.0312,0.129-0.4894,0.219-1.0013,0.219-1.5312,0-3.3137-2.686-6-6-6zm0.75,5c-1.3252,0.0161-2.7119,0.7011-3.75,2.5-3.3451-1.9313-6.0288,4.329-4,5.5h14c2.066-1.193,0.074-5.0561-2-4.5,0-1.6883-2.041-3.5268-4.25-3.5z" transform="translate(0,240)" fill="#dfdbd2"/>
 </g>
</svg>
