<?xml version="1.0" encoding="UTF-8" standalone="no"?>
<!-- Created with Inkscape (http://www.inkscape.org/) -->
<svg xmlns:rdf="http://www.w3.org/1999/02/22-rdf-syntax-ns#" xmlns="http://www.w3.org/2000/svg" height="96" width="96" version="1.1" xmlns:cc="http://creativecommons.org/ns#" xmlns:xlink="http://www.w3.org/1999/xlink" xmlns:dc="http://purl.org/dc/elements/1.1/">
 <title>Lookit icon - 96px</title>
 <defs>
  <linearGradient id="linearGradient4058">
   <stop stop-color="#000" stop-opacity="0.04705882" offset="0"/>
   <stop stop-color="#000" stop-opacity="0" offset="1"/>
  </linearGradient>
  <linearGradient id="linearGradient4255">
   <stop stop-color="#000" stop-opacity="0.01176471" offset="0"/>
   <stop stop-color="#000" stop-opacity="0.00392157" offset="0.8"/>
   <stop stop-color="#000" stop-opacity="0" offset="1"/>
  </linearGradient>
  <linearGradient id="linearGradient4150">
   <stop stop-color="#FFF" stop-opacity="0.13725491" offset="0"/>
   <stop stop-color="#FFF" stop-opacity="0" offset="1"/>
  </linearGradient>
  <linearGradient id="linearGradient4024">
   <stop stop-color="#FFF" stop-opacity="0" offset="0"/>
   <stop stop-color="#d9dddf" stop-opacity="0.19607843" offset="1"/>
  </linearGradient>
  <linearGradient id="linearGradient3956">
   <stop stop-color="#FFF" offset="0"/>
   <stop stop-color="#fafafa" offset="0.4"/>
   <stop stop-color="#d8e0e0" offset="1"/>
  </linearGradient>
  <linearGradient id="linearGradient3881">
   <stop stop-color="#000" stop-opacity="0.02352941" offset="0"/>
   <stop stop-color="#000" stop-opacity="0.00784314" offset="0.85"/>
   <stop stop-color="#000" stop-opacity="0" offset="1"/>
  </linearGradient>
  <linearGradient id="linearGradient4104">
   <stop stop-color="#FFF" stop-opacity="0.11764706" offset="0"/>
   <stop stop-color="#FFF" stop-opacity="0" offset="0.5"/>
   <stop stop-color="#FFF" stop-opacity="0" offset="1"/>
  </linearGradient>
  <linearGradient id="linearGradient3897">
   <stop stop-color="#FFF" stop-opacity="0.19607843" offset="0"/>
   <stop stop-color="#FFF" stop-opacity="0.13725491" offset="1"/>
  </linearGradient>
  <linearGradient id="linearGradient3815" y2="212" gradientUnits="userSpaceOnUse" x2="158.9" y1="47" x1="158.9">
   <stop stop-color="#373737" offset="0"/>
   <stop stop-color="#191919" offset="1"/>
  </linearGradient>
  <radialGradient id="radialGradient3871" gradientUnits="userSpaceOnUse" cy="206.35" cx="182.31" gradientTransform="matrix(2.0234928,1.1574411e-8,-1.0586926e-8,2.2099744,-186.59219,-242.59404)" r="75.956">
   <stop stop-color="#000" stop-opacity="0.25490198" offset="0"/>
   <stop stop-color="#000" stop-opacity="0.09803922" offset="1"/>
  </radialGradient>
  <radialGradient id="radialGradient3903" xlink:href="#linearGradient3897" gradientUnits="userSpaceOnUse" cy="207.25" cx="183.21" gradientTransform="matrix(2.0470128,-7.6327576e-8,6.9815798e-8,2.2356649,-191.82071,-248.92411)" r="75.962"/>
  <radialGradient id="radialGradient3911" xlink:href="#linearGradient3897" gradientUnits="userSpaceOnUse" cy="210.08" cx="186.03" gradientTransform="matrix(2.1210359,-3.4347468e-8,3.1416349e-8,2.3164501,-208.55007,-269.13148)" r="75.978"/>
  <radialGradient id="radialGradient3931" gradientUnits="userSpaceOnUse" cy="159.55" cx="135.55" gradientTransform="matrix(0.99999984,0,0,1.0927147,-30.045895,-44.838189)" r="75.5">
   <stop stop-color="#000" offset="0"/>
   <stop stop-color="#cdcdcd" offset="0.9"/>
   <stop stop-color="#b9b9b9" offset="1"/>
  </radialGradient>
  <linearGradient id="linearGradient3941" y2="47" gradientUnits="userSpaceOnUse" x2="181" y1="212" x1="30">
   <stop stop-color="#000" stop-opacity="0" offset="0"/>
   <stop stop-color="#e1e1e1" stop-opacity="0.17647059" offset="0.35"/>
   <stop stop-color="#FFF" stop-opacity="0.29411766" offset="0.55"/>
   <stop stop-color="#e1e1e1" stop-opacity="0.09803922" offset="0.75"/>
   <stop stop-color="#000" stop-opacity="0" offset="1"/>
  </linearGradient>
  <linearGradient id="linearGradient3957" y2="47" gradientUnits="userSpaceOnUse" x2="30" y1="212" x1="181">
   <stop stop-color="#000" stop-opacity="0.84313726" offset="0"/>
   <stop stop-color="#646464" stop-opacity="0" offset="0.75"/>
   <stop stop-color="#FFF" stop-opacity="0.82352942" offset="1"/>
  </linearGradient>
  <radialGradient id="radialGradient3967" gradientUnits="userSpaceOnUse" cy="129.5" cx="105.5" gradientTransform="matrix(1,0,0,1.0927152,0,-12.006623)" r="75.5">
   <stop stop-color="#3c3c3c" offset="0"/>
   <stop stop-color="#323232" offset="0.85"/>
   <stop stop-color="#232323" offset="1"/>
  </radialGradient>
  <radialGradient id="radialGradient3979" gradientUnits="userSpaceOnUse" cy="129.5" cx="105.5" gradientTransform="matrix(1,0,0,1.0927152,0,-12.006623)" r="75.5">
   <stop stop-color="#FFF" offset="0"/>
   <stop stop-color="#FFF" stop-opacity="0" offset="0.95"/>
   <stop stop-color="#FFF" stop-opacity="0.17647059" offset="1"/>
  </radialGradient>
  <linearGradient id="linearGradient3991" y2="47" gradientUnits="userSpaceOnUse" x2="30" y1="212" x1="181">
   <stop stop-color="#000" stop-opacity="0" offset="0"/>
   <stop stop-color="#FFF" stop-opacity="0" offset="0.3"/>
   <stop stop-color="#FFF" stop-opacity="0.11764706" offset="0.55"/>
   <stop stop-color="#FFF" stop-opacity="0" offset="0.8"/>
   <stop stop-color="#000" stop-opacity="0" offset="1"/>
  </linearGradient>
  <linearGradient id="linearGradient4069" y2="209.34" gradientUnits="userSpaceOnUse" x2="47.166" y1="45.067" x1="47.166">
   <stop stop-color="#373737" offset="0"/>
   <stop stop-color="#3c3c3c" offset="1"/>
  </linearGradient>
  <radialGradient id="radialGradient4071" gradientUnits="userSpaceOnUse" cy="129.5" cx="105.5" gradientTransform="matrix(1,0,0,1.0927152,0,-12.006623)" r="75.5">
   <stop stop-color="#2d2d2d" offset="0"/>
   <stop stop-color="#232323" offset="0.75"/>
   <stop stop-color="#1e1e1e" offset="1"/>
  </radialGradient>
  <linearGradient id="linearGradient4089" y2="212" gradientUnits="userSpaceOnUse" x2="181" y1="47" x1="181">
   <stop stop-color="#282828" offset="0"/>
   <stop stop-color="#323232" offset="1"/>
  </linearGradient>
  <radialGradient id="radialGradient4097" gradientUnits="userSpaceOnUse" cy="129.5" cx="105.5" gradientTransform="matrix(1,0,0,1.0927152,0,-12.006623)" r="75.5">
   <stop stop-color="#232323" offset="0"/>
   <stop stop-color="#191919" offset="1"/>
  </radialGradient>
  <radialGradient id="radialGradient4110" xlink:href="#linearGradient4104" gradientUnits="userSpaceOnUse" cy="184.75" cx="160.08" gradientTransform="matrix(1.4571666,0,0,1.5922681,-84.125913,-115.92156)" r="75.5"/>
  <radialGradient id="radialGradient4120" xlink:href="#linearGradient4104" gradientUnits="userSpaceOnUse" cy="112.68" cx="88.683" gradientTransform="matrix(1.4571666,0,0,1.5922681,-84.125913,-115.92156)" r="75.5"/>
  <radialGradient id="radialGradient4130" gradientUnits="userSpaceOnUse" cy="129.5" cx="105.5" gradientTransform="matrix(1,0,0,1.0927152,0,-12.006623)" r="75.5">
   <stop stop-color="#FFF" stop-opacity="0" offset="0"/>
   <stop stop-color="#FFF" stop-opacity="0.03921569" offset="0.9"/>
   <stop stop-color="#FFF" stop-opacity="0.17647059" offset="1"/>
  </radialGradient>
  <linearGradient id="linearGradient4142" y2="212.55" gradientUnits="userSpaceOnUse" x2="181.51" y1="46.446" x1="29.493">
   <stop stop-color="#FFF" stop-opacity="0.39215687" offset="0"/>
   <stop stop-color="#FFF" stop-opacity="0.05882353" offset="0.3"/>
   <stop stop-color="#FFF" stop-opacity="0.19607843" offset="0.5"/>
   <stop stop-color="#FFF" stop-opacity="0.05882353" offset="0.7"/>
   <stop stop-color="#FFF" stop-opacity="0.15686275" offset="1"/>
  </linearGradient>
  <linearGradient id="linearGradient3887" y2="226.54" xlink:href="#linearGradient3881" spreadMethod="reflect" gradientUnits="userSpaceOnUse" x2="174.05" y1="226.54" x1="127.57"/>
  <radialGradient id="radialGradient3962" xlink:href="#linearGradient3956" gradientUnits="userSpaceOnUse" cy="179.44" cx="60.271" gradientTransform="matrix(0.6613597,0,0,0.51137372,-17.907945,122.93831)" r="63.202"/>
  <clipPath id="clipPath3992" clipPathUnits="userSpaceOnUse">
   <path d="M17,175c-22.424-38.84,22.07-77.18,47-34,17.912-31.02,64.64,5.4,51.6,28,37.92-10.16,16.43,32.79,7.4,38-26.867,22.74-119.05,16.7-106-32z" fill="#FFF"/>
  </clipPath>
  <filter id="filter3996" color-interpolation-filters="sRGB">
   <feGaussianBlur stdDeviation="1.6814879"/>
  </filter>
  <radialGradient id="radialGradient4030" xlink:href="#linearGradient4024" gradientUnits="userSpaceOnUse" cy="146.18" cx="99.384" gradientTransform="matrix(0.58769876,0,0,0.45441795,-17.91946,147.65249)" r="63.202"/>
  <radialGradient id="radialGradient4038" xlink:href="#linearGradient3956" gradientUnits="userSpaceOnUse" cy="144.03" cx="198.93" gradientTransform="matrix(0.74808309,0,0,0.69425575,-73.967429,113.90503)" r="39.529"/>
  <radialGradient id="radialGradient4042" xlink:href="#linearGradient4024" gradientUnits="userSpaceOnUse" cy="142.62" cx="216.68" gradientTransform="matrix(0.50063934,0,0,0.46461649,-27.769808,150.19826)" r="39.529"/>
  <clipPath id="clipPath4048" clipPathUnits="userSpaceOnUse">
   <path fill="#FFF" d="M184,168c-18.55-4.97-29.74,22.26-20,32,40.06,40.06,90.91-23.09,71-43-17.85-30.92-51-16.36-51,11z"/>
  </clipPath>
  <filter id="filter4056" color-interpolation-filters="sRGB">
   <feGaussianBlur stdDeviation="1.1435154"/>
  </filter>
  <clipPath id="clipPath4106" clipPathUnits="userSpaceOnUse">
   <path d="M181,129.5a75.5,82.5,0,1,1,-151,0,75.5,82.5,0,1,1,151,0z" fill-rule="evenodd" transform="matrix(0.99337748,0,0,0.90909099,23.198676,10.27271)" fill="#FFF"/>
  </clipPath>
  <clipPath id="clipPath4110" clipPathUnits="userSpaceOnUse">
   <path d="M181,129.5a75.5,82.5,0,1,1,-151,0,75.5,82.5,0,1,1,151,0z" fill-rule="evenodd" transform="matrix(0.99337748,0,0,0.90909099,23.198676,10.27271)" fill="#FFF"/>
  </clipPath>
  <filter id="filter4134" color-interpolation-filters="sRGB">
   <feGaussianBlur stdDeviation="1.681488"/>
  </filter>
  <filter id="filter4142" color-interpolation-filters="sRGB">
   <feGaussianBlur stdDeviation="1.1435154"/>
  </filter>
  <radialGradient id="radialGradient4156" xlink:href="#linearGradient4150" gradientUnits="userSpaceOnUse" cy="161.72" cx="144.4" gradientTransform="matrix(0.97056357,0,0,1.0605496,1.3855187,-11.380714)" r="75.5"/>
  <radialGradient id="radialGradient4160" xlink:href="#linearGradient4150" gradientUnits="userSpaceOnUse" cy="99.834" cx="68.768" gradientTransform="matrix(0.97056357,0,0,1.0605496,1.3855187,-11.380714)" r="75.5"/>
  <radialGradient id="radialGradient4182" gradientUnits="userSpaceOnUse" cy="129.5" cx="105.5" gradientTransform="matrix(1,0,0,1.0927152,0,-12.006623)" r="75.5">
   <stop stop-color="#FFF" stop-opacity="0.17647059" offset="0"/>
   <stop stop-color="#FFF" stop-opacity="0" offset="1"/>
  </radialGradient>
  <radialGradient id="radialGradient4198" gradientUnits="userSpaceOnUse" cy="157.02" cx="133.77" gradientTransform="matrix(3.1385248,0,0,3.4295134,-237.83215,-328.71425)" r="75.5">
   <stop stop-color="#00b0fa" stop-opacity="0" offset="0"/>
   <stop stop-color="#00b0fa" stop-opacity="0.01960784" offset="0.35"/>
   <stop stop-color="#00affa" stop-opacity="0.09803922" offset="1"/>
  </radialGradient>
  <radialGradient id="radialGradient4204" gradientUnits="userSpaceOnUse" cy="109.87" cx="85.658" gradientTransform="matrix(3.1385248,0,0,3.4295134,-237.83215,-328.71425)" r="75.5">
   <stop stop-color="#1bfa00" stop-opacity="0" offset="0"/>
   <stop stop-color="#1dfa00" stop-opacity="0" offset="0.35"/>
   <stop stop-color="#1dfa00" stop-opacity="0.05882353" offset="1"/>
  </radialGradient>
  <radialGradient id="radialGradient4227" gradientUnits="userSpaceOnUse" cy="75.507" cx="63.943" gradientTransform="matrix(1.2159092,0,0,1.3286425,-13.805971,-29.820729)" r="75.5">
   <stop stop-color="#0093fa" stop-opacity="0.11764706" offset="0"/>
   <stop stop-color="#FFF" stop-opacity="0" offset="1"/>
  </radialGradient>
  <radialGradient id="radialGradient4246" gradientUnits="userSpaceOnUse" cy="55.007" cx="32.013" gradientTransform="matrix(0.72026919,0,0,0.7203848,-1.3282965,140.73905)" r="75.5">
   <stop stop-color="#FFF" stop-opacity="0.09803922" offset="0"/>
   <stop stop-color="#FFF" stop-opacity="0" offset="1"/>
  </radialGradient>
  <linearGradient id="linearGradient4261" y2="237" xlink:href="#linearGradient4255" spreadMethod="reflect" gradientUnits="userSpaceOnUse" x2="73" y1="237" x1="55.114"/>
  <linearGradient id="linearGradient4293" y2="230.5" xlink:href="#linearGradient4255" spreadMethod="reflect" gradientUnits="userSpaceOnUse" x2="225" y1="230.5" x1="210.41"/>
  <linearGradient id="linearGradient4323" y2="212.47" gradientUnits="userSpaceOnUse" x2="54.721" y1="46.534" x1="54.721">
   <stop stop-color="#FFF" stop-opacity="0.19607843" offset="0"/>
   <stop stop-color="#FFF" stop-opacity="0.09803922" offset="1"/>
  </linearGradient>
  <radialGradient id="radialGradient4064" xlink:href="#linearGradient4058" gradientUnits="userSpaceOnUse" cy="176.39" cx="105.13" gradientTransform="matrix(1.4017206,0,0,1.5161469,-41.655372,-89.762932)" r="24.5"/>
  <radialGradient id="radialGradient4068" xlink:href="#linearGradient4058" gradientUnits="userSpaceOnUse" cy="174.79" cx="97.933" gradientTransform="matrix(1.0856486,0,0,1.174273,-9.2772723,-28.806597)" r="24.5"/>
  <filter id="filter4110" height="1.2307739" width="1.2496126" color-interpolation-filters="sRGB" y="-0.11538695" x="-0.12480629">
   <feGaussianBlur stdDeviation="2.5481284"/>
  </filter>
  <filter id="filter4114" height="1.2307988" width="1.2496396" color-interpolation-filters="sRGB" y="-0.11539945" x="-0.12481981">
   <feGaussianBlur stdDeviation="2.5484045"/>
  </filter>
  <radialGradient id="radialGradient4121" xlink:href="#linearGradient4058" gradientUnits="userSpaceOnUse" cy="178.05" cx="96.824" gradientTransform="matrix(1.4017206,0,0,1.5161469,-41.655372,-89.762932)" r="24.5"/>
  <filter id="filter4123" height="1.2311099" width="1.2499759" color-interpolation-filters="sRGB" y="-0.1155549" x="-0.12498795">
   <feGaussianBlur stdDeviation="2.5518374"/>
  </filter>
  <radialGradient id="radialGradient4165" gradientUnits="userSpaceOnUse" cy="125.75" cx="125.25" gradientTransform="matrix(1,0,0,0.96601942,0,4.2730583)" r="64.375">
   <stop stop-color="#FFF" stop-opacity="0" offset="0"/>
   <stop stop-color="#FFF" stop-opacity="0" offset="0.7"/>
   <stop stop-color="#FFF" stop-opacity="0.05882353" offset="1"/>
  </radialGradient>
  <filter id="filter4183" color-interpolation-filters="sRGB">
   <feGaussianBlur stdDeviation="1.8984375"/>
  </filter>
  <filter id="filter4258" height="1.8258812" width="1.85436" color-interpolation-filters="sRGB" y="-0.41294068" x="-0.42718002">
   <feGaussianBlur stdDeviation="5.1617584"/>
  </filter>
  <clipPath id="clipPath4323" clipPathUnits="userSpaceOnUse">
   <path fill="#FFF" d="M17,175c-22.424-38.84,22.07-77.18,47-34,17.912-31.02,64.64,5.4,51.6,28,37.92-10.16,16.43,32.79,7.4,38-26.867,22.74-119.05,16.7-106-32z"/>
  </clipPath>
  <clipPath id="clipPath4330" clipPathUnits="userSpaceOnUse">
   <path fill="#FFF" d="M70.845,160.54c-15.671-5.07-25.127,22.68-16.897,32.61,33.844,40.83,76.802-23.53,59.982-43.82-15.079-31.51-43.085-16.68-43.085,11.21z"/>
  </clipPath>
  <linearGradient id="linearGradient4342" y2="212.42" gradientUnits="userSpaceOnUse" x2="52.052" y1="46.577" x1="52.052">
   <stop stop-color="#FFF" stop-opacity="0.19607843" offset="0"/>
   <stop stop-color="#FFF" stop-opacity="0.11764706" offset="1"/>
  </linearGradient>
 </defs>
 <metadata>
  <rdf:RDF>
   <cc:Work rdf:about="">
    <dc:format>image/svg+xml</dc:format>
    <dc:type rdf:resource="http://purl.org/dc/dcmitype/StillImage"/>
    <dc:title>Lookit icon - 96px</dc:title>
    <dc:creator>
     <cc:Agent>
      <dc:title>Harenome Ranaivoarivony Razanajato</dc:title>
     </cc:Agent>
    </dc:creator>
    <cc:license rdf:resource="http://www.gnu.org/licenses/gpl.html"/>
   </cc:Work>
  </rdf:RDF>
 </metadata>
 <g transform="translate(0,-160)">
  <path d="M174,226.54a46.433,12.456,0,1,1,-92.866,0,46.433,12.456,0,1,1,92.866,0z" fill-rule="evenodd" transform="matrix(0.54917818,0,0,0.22078076,-22.057001,194.2334)" fill="url(#linearGradient3887)"/>
  <path d="M174,226.54a46.433,12.456,0,1,1,-92.866,0,46.433,12.456,0,1,1,92.866,0z" fill-rule="evenodd" transform="matrix(0.53840998,0,0,0.20070979,-20.683334,198.53036)" fill="url(#linearGradient3887)"/>
  <path d="M174,226.54a46.433,12.456,0,1,1,-92.866,0,46.433,12.456,0,1,1,92.866,0z" fill-rule="evenodd" transform="matrix(0.52764178,0,0,0.18063881,-19.309667,202.82732)" fill="url(#linearGradient3887)"/>
  <path d="M174,226.54a46.433,12.456,0,1,1,-92.866,0,46.433,12.456,0,1,1,92.866,0z" fill-rule="evenodd" transform="matrix(0.51687358,0,0,0.16056783,-17.936001,207.12429)" fill="url(#linearGradient3887)"/>
  <path d="M174,226.54a46.433,12.456,0,1,1,-92.866,0,46.433,12.456,0,1,1,92.866,0z" fill-rule="evenodd" transform="matrix(0.50610538,0,0,0.14049685,-16.562334,211.42125)" fill="url(#linearGradient3887)"/>
  <path d="M174,226.54a46.433,12.456,0,1,1,-92.866,0,46.433,12.456,0,1,1,92.866,0z" fill-rule="evenodd" transform="matrix(0.49533718,0,0,0.12042587,-15.188667,215.71822)" fill="url(#linearGradient3887)"/>
  <path d="M174,226.54a46.433,12.456,0,1,1,-92.866,0,46.433,12.456,0,1,1,92.866,0z" fill-rule="evenodd" transform="matrix(0.37688698,0,0,0.16056783,-0.07833343,207.37429)" fill="url(#linearGradient3887)"/>
  <path d="M174,226.54a46.433,12.456,0,1,1,-92.866,0,46.433,12.456,0,1,1,92.866,0z" fill-rule="evenodd" transform="matrix(0.36611878,0,0,0.14049685,1.2953333,211.92125)" fill="url(#linearGradient3887)"/>
  <path d="M174,226.54a46.433,12.456,0,1,1,-92.866,0,46.433,12.456,0,1,1,92.866,0z" fill-rule="evenodd" transform="matrix(0.35535058,0,0,0.12042587,2.669,216.46822)" fill="url(#linearGradient3887)"/>
  <path d="M174,226.54a46.433,12.456,0,1,1,-92.866,0,46.433,12.456,0,1,1,92.866,0z" fill-rule="evenodd" transform="matrix(0.34458239,0,0,0.10035489,4.0426659,221.01518)" fill="url(#linearGradient3887)"/>
  <path d="M174,226.54a46.433,12.456,0,1,1,-92.866,0,46.433,12.456,0,1,1,92.866,0z" fill-rule="evenodd" transform="matrix(0.33381419,0,0,0.08028391,5.4164398,225.56215)" fill="url(#linearGradient3887)"/>
  <path d="M174,226.54a46.433,12.456,0,1,1,-92.866,0,46.433,12.456,0,1,1,92.866,0z" fill-rule="evenodd" transform="matrix(0.32304599,0,0,0.06021294,6.7899993,230.10911)" fill="url(#linearGradient3887)"/>
  <path d="M181,129.5a75.5,82.5,0,1,1,-151,0,75.5,82.5,0,1,1,151,0z" fill-rule="evenodd" transform="matrix(0.47682119,0,0,0.43636364,-2.3046357,151.49091)" fill="url(#radialGradient3931)"/>
  <path d="M181,129.5a75.5,82.5,0,1,1,-151,0,75.5,82.5,0,1,1,151,0z" transform="matrix(0.47019868,0,0,0.43030303,-1.6059604,152.27576)" stroke="url(#linearGradient4342)" stroke-dasharray="none" stroke-miterlimit="4" stroke-width="2.22316694" fill="none"/>
  <path d="M181,129.5a75.5,82.5,0,1,1,-151,0,75.5,82.5,0,1,1,151,0z" fill-rule="evenodd" transform="matrix(0.47682119,0,0,0.43636364,-2.3046357,151.49091)" fill="url(#linearGradient3941)"/>
  <path d="M181,129.5a75.5,82.5,0,1,1,-151,0,75.5,82.5,0,1,1,151,0z" fill-rule="evenodd" transform="matrix(0.47682119,0,0,0.43636364,-2.3046357,151.49091)" fill="url(#linearGradient3957)"/>
  <path d="M181,129.5a75.5,82.5,0,1,1,-151,0,75.5,82.5,0,1,1,151,0z" fill-rule="evenodd" transform="matrix(0.47682119,0,0,0.43636364,-2.3046357,151.49091)" fill="url(#radialGradient3979)"/>
  <path d="M181,129.5a75.5,82.5,0,1,1,-151,0,75.5,82.5,0,1,1,151,0z" transform="matrix(0.43046358,0,0,0.39393939,2.5860926,156.98485)" stroke="url(#linearGradient4323)" stroke-dasharray="none" stroke-miterlimit="4" stroke-width="2.42838264" fill="none"/>
  <path d="M181,129.5a75.5,82.5,0,1,1,-151,0,75.5,82.5,0,1,1,151,0z" fill-rule="evenodd" transform="matrix(0.42384106,0,0,0.38787879,3.2847682,157.7697)" fill="url(#linearGradient3815)"/>
  <path d="M181,129.5a75.5,82.5,0,1,1,-151,0,75.5,82.5,0,1,1,151,0z" fill-rule="evenodd" transform="matrix(0.42384106,0,0,0.38787879,3.2847682,157.7697)" fill="url(#radialGradient4227)"/>
  <path d="M181,129.5a75.5,82.5,0,1,1,-151,0,75.5,82.5,0,1,1,151,0z" transform="matrix(0.40397351,0,0,0.36969697,5.3807947,160.12424)" stroke="url(#radialGradient3903)" stroke-dasharray="none" stroke-miterlimit="4" stroke-width="2.5876205" fill="none"/>
  <path d="M181,129.5a75.5,82.5,0,1,1,-151,0,75.5,82.5,0,1,1,151,0z" transform="matrix(0.39072848,0,0,0.35757576,6.7781456,161.69394)" stroke="url(#radialGradient3871)" stroke-dasharray="none" stroke-miterlimit="4" stroke-width="2.67533684" fill="none"/>
  <path d="M181,129.5a75.5,82.5,0,1,1,-151,0,75.5,82.5,0,1,1,151,0z" transform="matrix(0.37748344,0,0,0.34545455,8.1754968,163.26364)" stroke="url(#radialGradient3911)" stroke-dasharray="none" stroke-miterlimit="4" stroke-width="2.76920795" fill="none"/>
  <path d="M181,129.5a75.5,82.5,0,1,1,-151,0,75.5,82.5,0,1,1,151,0z" fill-rule="evenodd" transform="matrix(0.42384106,0,0,0.38787879,3.2847682,157.7697)" fill="url(#linearGradient3991)"/>
  <path d="M181,129.5a75.5,82.5,0,1,1,-151,0,75.5,82.5,0,1,1,151,0z" fill-rule="evenodd" transform="matrix(0.37086093,0,0,0.33939394,8.8741721,164.04848)" fill="url(#radialGradient3967)"/>
  <path d="M181,129.5a75.5,82.5,0,1,1,-151,0,75.5,82.5,0,1,1,151,0z" fill-rule="evenodd" transform="matrix(0.29139073,0,0,0.26666667,17.258278,173.46667)" fill="url(#linearGradient4069)"/>
  <path d="M181,129.5a75.5,82.5,0,1,1,-151,0,75.5,82.5,0,1,1,151,0z" fill-rule="evenodd" transform="matrix(0.2781457,0,0,0.25454545,18.655629,175.03636)" fill="url(#radialGradient4071)"/>
  <path d="M181,129.5a75.5,82.5,0,1,1,-151,0,75.5,82.5,0,1,1,151,0z" fill-rule="evenodd" transform="matrix(0.0794702,0,0,0.07272727,39.615894,198.58182)" fill="url(#linearGradient4089)"/>
  <path d="M181,129.5a75.5,82.5,0,1,1,-151,0,75.5,82.5,0,1,1,151,0z" fill-rule="evenodd" transform="matrix(0.06622517,0,0,0.06060606,41.013245,200.15152)" fill="url(#radialGradient4097)"/>
  <path d="M181,129.5a75.5,82.5,0,1,1,-151,0,75.5,82.5,0,1,1,151,0z" fill-rule="evenodd" transform="matrix(0.02649007,0,0,0.02424242,45.205298,204.86061)" fill="url(#radialGradient4182)"/>
  <path d="M181,129.5a75.5,82.5,0,1,1,-151,0,75.5,82.5,0,1,1,151,0z" fill-rule="evenodd" transform="matrix(0.05298013,0,0,0.04848485,42.410596,201.72121)" fill="url(#radialGradient4156)"/>
  <path d="M181,129.5a75.5,82.5,0,1,1,-151,0,75.5,82.5,0,1,1,151,0z" fill-rule="evenodd" transform="matrix(0.05298013,0,0,0.04848485,42.410596,201.72121)" fill="url(#radialGradient4160)"/>
  <path d="M181,129.5a75.5,82.5,0,1,1,-151,0,75.5,82.5,0,1,1,151,0z" fill-rule="evenodd" transform="matrix(0.35761589,0,0,0.32727273,10.271523,165.61818)" fill="url(#radialGradient4110)"/>
  <path d="M181,129.5a75.5,82.5,0,1,1,-151,0,75.5,82.5,0,1,1,151,0z" fill-rule="evenodd" transform="matrix(0.35761589,0,0,0.32727273,10.271523,165.61818)" fill="url(#radialGradient4120)"/>
  <path d="M181,129.5a75.5,82.5,0,1,1,-151,0,75.5,82.5,0,1,1,151,0z" fill-rule="evenodd" transform="matrix(0.35761589,0,0,0.32727273,10.271523,165.61818)" fill="url(#radialGradient4130)"/>
  <path d="M181,129.5a75.5,82.5,0,1,1,-151,0,75.5,82.5,0,1,1,151,0z" transform="matrix(0.35099338,0,0,0.32121212,10.970199,166.40303)" stroke="url(#linearGradient4142)" stroke-dasharray="none" stroke-miterlimit="4" stroke-width="2.97820497" fill="none"/>
  <path d="M181,129.5a75.5,82.5,0,1,1,-151,0,75.5,82.5,0,1,1,151,0z" fill-rule="evenodd" transform="matrix(0.35761589,0,0,0.32727273,10.271523,165.61818)" fill="url(#radialGradient4198)"/>
  <path d="M181,129.5a75.5,82.5,0,1,1,-151,0,75.5,82.5,0,1,1,151,0z" fill-rule="evenodd" transform="matrix(0.35761589,0,0,0.32727273,10.271523,165.61818)" fill="url(#radialGradient4204)"/>
  <path fill-rule="evenodd" fill="url(#radialGradient4246)" d="M48.372,180c-15.117,0-27.372,12.26-27.372,27.38,0,6.71,2.413,12.86,6.421,17.62,5.305-15.97,20.36-27.48,38.104-27.48,2.997,0,5.915,0.34,8.725,0.96-3.694-10.75-13.877-18.48-25.878-18.48z"/>
  <path d="M106.25,63.562c-3.9,1.318-7.638,2.999-11.188,4.969l9.658,17.469c2.51-1.398,5.17-2.536,7.94-3.469l-6.41-18.969zm-20.094,10.876c-8.402,6.573-15.219,15.072-19.781,24.843l18.094,8.439c3.221-6.9,8.064-12.89,14-17.532l-12.313-15.75zm-21.656,29.222c-1.645,4.28-2.874,8.78-3.625,13.43l19.75,3.22c0.53-3.29,1.398-6.46,2.563-9.5l-18.688-7.15zm107,44.65c-1.97,4.22-4.54,8.1-7.59,11.53l14.97,13.28c4.33-4.87,7.95-10.39,10.74-16.37l-18.12-8.44zm-9.56,13.63c-3.32,3.31-7.12,6.17-11.28,8.4l9.43,17.6c5.91-3.17,11.31-7.15,16-11.85l-14.15-14.15z" fill-rule="evenodd" transform="matrix(0.36611296,0,0,0.36589806,2.0196199,160.35497)" filter="url(#filter4183)" fill="url(#radialGradient4165)"/>
  <path d="M118,108a14.5,15,0,1,1,-29,0,14.5,15,0,1,1,29,0z" fill-rule="evenodd" fill-opacity="0.05882353" transform="matrix(0.63122923,0,0,0.60983008,-28.531875,129.61954)" filter="url(#filter4258)" fill="#FFF"/>
  <path d="M73,237a18,10,0,1,1,-36,0,18,10,0,1,1,36,0z" fill-rule="evenodd" transform="matrix(0.7118863,0,0,0.18294903,-14.435123,204.81159)" fill="url(#linearGradient4261)"/>
  <path d="M73,237a18,10,0,1,1,-36,0,18,10,0,1,1,36,0z" fill-rule="evenodd" transform="matrix(0.6915467,0,0,0.16465413,-13.316445,208.96453)" fill="url(#linearGradient4261)"/>
  <path d="M73,237a18,10,0,1,1,-36,0,18,10,0,1,1,36,0z" fill-rule="evenodd" transform="matrix(0.67120708,0,0,0.14635923,-12.197766,213.11748)" fill="url(#linearGradient4261)"/>
  <path d="M73,237a18,10,0,1,1,-36,0,18,10,0,1,1,36,0z" fill-rule="evenodd" transform="matrix(0.65086749,0,0,0.12806432,-11.079088,217.27042)" fill="url(#linearGradient4261)"/>
  <path d="M73,237a18,10,0,1,1,-36,0,18,10,0,1,1,36,0z" fill-rule="evenodd" transform="matrix(0.63052786,0,0,0.10976942,-9.9604091,221.42336)" fill="url(#linearGradient4261)"/>
  <path d="M73,237a18,10,0,1,1,-36,0,18,10,0,1,1,36,0z" fill-rule="evenodd" transform="matrix(0.61018828,0,0,0.09147452,-8.8417314,225.57631)" fill="url(#linearGradient4261)"/>
  <path d="M225,230.5a14.5,3.5,0,1,1,-29,0,14.5,3.5,0,1,1,29,0z" fill-rule="evenodd" transform="matrix(0.63122915,0,0,0.52271151,-54.702624,124.75833)" fill="url(#linearGradient4293)"/>
  <path d="M225,230.5a14.5,3.5,0,1,1,-29,0,14.5,3.5,0,1,1,29,0z" fill-rule="evenodd" transform="matrix(0.60597999,0,0,0.47044037,-49.387674,136.62388)" fill="url(#linearGradient4293)"/>
  <path d="M225,230.5a14.5,3.5,0,1,1,-29,0,14.5,3.5,0,1,1,29,0z" fill-rule="evenodd" transform="matrix(0.58073083,0,0,0.4181692,-44.072724,148.48942)" fill="url(#linearGradient4293)"/>
  <path d="M225,230.5a14.5,3.5,0,1,1,-29,0,14.5,3.5,0,1,1,29,0z" fill-rule="evenodd" transform="matrix(0.55548167,0,0,0.36589806,-38.757774,160.35497)" fill="url(#linearGradient4293)"/>
  <path d="M225,230.5a14.5,3.5,0,1,1,-29,0,14.5,3.5,0,1,1,29,0z" fill-rule="evenodd" transform="matrix(0.53023251,0,0,0.31362692,-33.442825,172.22053)" fill="url(#linearGradient4293)"/>
  <path d="M225,230.5a14.5,3.5,0,1,1,-29,0,14.5,3.5,0,1,1,29,0z" fill-rule="evenodd" transform="matrix(0.50498334,0,0,0.26135576,-28.127877,184.08608)" fill="url(#linearGradient4293)"/>
  <path opacity="0.03999999" d="M27,170c-22.424-38.84,22.07-77.18,47-34,17.912-31.02,64.64,5.4,51.6,28,37.92-10.16,16.43,32.79,7.4,38-26.87,22.74-119.05,16.7-106-32z" clip-path="url(#clipPath4106)" transform="matrix(0.36611296,0,0,0.36589806,2.0196199,160.35497)" filter="url(#filter4134)" fill="#FFF"/>
  <path opacity="0.03999999" d="M179,163c-18.55-4.97-29.74,22.26-20,32,40.06,40.06,90.91-23.09,71-43-17.85-30.92-51-16.36-51,11z" clip-path="url(#clipPath4110)" transform="matrix(0.36611296,0,0,0.36589806,2.0196199,160.35497)" filter="url(#filter4142)" fill="#FFF"/>
  <path fill="url(#radialGradient3962)" d="M8.2434,224.39c-8.2095-14.21,8.0806-28.24,17.208-12.44,6.558-11.36,23.667,1.97,18.89,10.24,13.884-3.72,6.017,12,2.71,13.91-9.836,8.32-43.585,6.11-38.808-11.71z"/>
  <path fill="url(#radialGradient4038)" d="M69.384,221.83c-6.79-1.82-10.889,8.14-7.322,11.7,14.667,14.66,33.285-8.44,25.994-15.73-6.535-11.31-18.672-5.99-18.672,4.03z"/>
  <path d="M8.2434,224.39c-8.2095-14.21,8.0806-28.24,17.208-12.44,6.558-11.36,23.667,1.97,18.89,10.24,13.884-3.72,6.017,12,2.71,13.91-9.836,8.32-43.585,6.11-38.808-11.71z" fill="url(#radialGradient4030)"/>
  <path d="M17,175c-22.424-38.84,22.07-77.18,47-34,17.912-31.02,64.64,5.4,51.6,28,37.92-10.16,16.43,32.79,7.4,38-26.867,22.74-119.05,16.7-106-32z" stroke-opacity="0.58823529" clip-path="url(#clipPath3992)" transform="matrix(0.36611296,0,0,0.36589806,2.0196199,160.35497)" filter="url(#filter3996)" stroke="#FFF" stroke-dasharray="none" stroke-miterlimit="4" stroke-width="5.46439838" fill="none"/>
  <path d="M69.384,221.83c-6.79-1.82-10.889,8.14-7.322,11.7,14.667,14.66,33.285-8.44,25.994-15.73-6.535-11.31-18.672-5.99-18.672,4.03z" fill="url(#radialGradient4042)"/>
  <path d="M184,168c-18.55-4.97-29.74,22.26-20,32,40.06,40.06,90.91-23.09,71-43-17.85-30.92-51-16.36-51,11z" stroke-opacity="0.58823529" clip-path="url(#clipPath4048)" transform="matrix(0.36611296,0,0,0.36589806,2.0196199,160.35497)" filter="url(#filter4056)" stroke="#FFF" stroke-dasharray="none" stroke-miterlimit="4" stroke-width="5.46439838" fill="none"/>
  <g fill-rule="evenodd" transform="matrix(0.36611296,0,0,0.36589806,2.0196199,160.35497)" clip-path="url(#clipPath4323)">
   <path d="M119,158.5a24.5,26.5,0,1,1,-49,0,24.5,26.5,0,1,1,49,0z" transform="matrix(1.2244898,0,0,1.1132075,-27.714283,-16.943387)" filter="url(#filter4110)" fill="url(#radialGradient4064)"/>
   <path d="M119,158.5a24.5,26.5,0,1,1,-49,0,24.5,26.5,0,1,1,49,0z" transform="matrix(1.1836735,0,0,1.1320755,-76.857145,-28.433962)" filter="url(#filter4114)" fill="url(#radialGradient4068)"/>
  </g>
  <path d="M119,158.5a24.5,26.5,0,1,1,-49,0,24.5,26.5,0,1,1,49,0z" clip-path="url(#clipPath4330)" fill-rule="evenodd" transform="matrix(0.43335821,0,0,0.35899433,38.683216,164.19346)" filter="url(#filter4123)" fill="url(#radialGradient4121)"/>
 </g>
</svg>
