<?xml version="1.0" encoding="UTF-8" standalone="no"?>
<!-- Created with Inkscape (http://www.inkscape.org/) -->
<svg xmlns:rdf="http://www.w3.org/1999/02/22-rdf-syntax-ns#" xmlns="http://www.w3.org/2000/svg" height="256" width="256" version="1.1" xmlns:cc="http://creativecommons.org/ns#" xmlns:xlink="http://www.w3.org/1999/xlink" xmlns:dc="http://purl.org/dc/elements/1.1/">
 <title>Lookit icon - 256px</title>
 <defs>
  <linearGradient id="linearGradient4058">
   <stop stop-color="#000" stop-opacity="0.04705882" offset="0"/>
   <stop stop-color="#000" stop-opacity="0" offset="1"/>
  </linearGradient>
  <linearGradient id="linearGradient4255">
   <stop stop-color="#000" stop-opacity="0.01176471" offset="0"/>
   <stop stop-color="#000" stop-opacity="0.00392157" offset="0.8"/>
   <stop stop-color="#000" stop-opacity="0" offset="1"/>
  </linearGradient>
  <linearGradient id="linearGradient4150">
   <stop stop-color="#FFF" stop-opacity="0.13725491" offset="0"/>
   <stop stop-color="#FFF" stop-opacity="0" offset="1"/>
  </linearGradient>
  <linearGradient id="linearGradient4024">
   <stop stop-color="#FFF" stop-opacity="0" offset="0"/>
   <stop stop-color="#d9dddf" stop-opacity="0.19607843" offset="1"/>
  </linearGradient>
  <linearGradient id="linearGradient3956">
   <stop stop-color="#FFF" offset="0"/>
   <stop stop-color="#fafafa" offset="0.4"/>
   <stop stop-color="#d8e0e0" offset="1"/>
  </linearGradient>
  <linearGradient id="linearGradient3881">
   <stop stop-color="#000" stop-opacity="0.02352941" offset="0"/>
   <stop stop-color="#000" stop-opacity="0.00784314" offset="0.85"/>
   <stop stop-color="#000" stop-opacity="0" offset="1"/>
  </linearGradient>
  <linearGradient id="linearGradient4104">
   <stop stop-color="#FFF" stop-opacity="0.11764706" offset="0"/>
   <stop stop-color="#FFF" stop-opacity="0" offset="0.5"/>
   <stop stop-color="#FFF" stop-opacity="0" offset="1"/>
  </linearGradient>
  <linearGradient id="linearGradient3897">
   <stop stop-color="#FFF" stop-opacity="0.19607843" offset="0"/>
   <stop stop-color="#FFF" stop-opacity="0.13725491" offset="1"/>
  </linearGradient>
  <linearGradient id="linearGradient3865">
   <stop stop-color="#000" stop-opacity="0.25490198" offset="0"/>
   <stop stop-color="#000" stop-opacity="0.09803922" offset="1"/>
  </linearGradient>
  <linearGradient id="linearGradient3815" y2="212" gradientUnits="userSpaceOnUse" x2="158.9" y1="47" x1="158.9">
   <stop stop-color="#373737" offset="0"/>
   <stop stop-color="#191919" offset="1"/>
  </linearGradient>
  <radialGradient id="radialGradient3871" xlink:href="#linearGradient3865" gradientUnits="userSpaceOnUse" cy="206.35" cx="182.31" gradientTransform="matrix(2.0234928,1.1574411e-8,-1.0586926e-8,2.2099744,-186.59219,-242.59404)" r="75.956"/>
  <radialGradient id="radialGradient3879" xlink:href="#linearGradient3865" gradientUnits="userSpaceOnUse" cy="209.11" cx="185.07" gradientTransform="matrix(2.0993071,-2.0167413e-7,1.8415494e-7,2.2888805,-203.44756,-262.18365)" r="75.973"/>
  <radialGradient id="radialGradient3887" xlink:href="#linearGradient3865" gradientUnits="userSpaceOnUse" cy="211.07" cx="187.02" gradientTransform="matrix(2.1469187,1.2558885e-7,-1.1487017e-7,2.3446914,-214.49838,-276.30392)" r="75.984"/>
  <radialGradient id="radialGradient3895" xlink:href="#linearGradient3865" gradientUnits="userSpaceOnUse" cy="214.18" cx="190.14" gradientTransform="matrix(2.2304834,-1.4964438e-7,1.3674622e-7,2.4337049,-233.96036,-299.27769)" r="76.003"/>
  <radialGradient id="radialGradient3903" xlink:href="#linearGradient3897" gradientUnits="userSpaceOnUse" cy="207.25" cx="183.21" gradientTransform="matrix(2.0470128,-7.6327576e-8,6.9815798e-8,2.2356649,-191.82071,-248.92411)" r="75.962"/>
  <radialGradient id="radialGradient3911" xlink:href="#linearGradient3897" gradientUnits="userSpaceOnUse" cy="210.08" cx="186.03" gradientTransform="matrix(2.1210359,-3.4347468e-8,3.1416349e-8,2.3164501,-208.55007,-269.13148)" r="75.978"/>
  <radialGradient id="radialGradient3919" xlink:href="#linearGradient3897" gradientUnits="userSpaceOnUse" cy="213.12" cx="189.07" gradientTransform="matrix(2.2005959,-1.2878297e-7,1.1779064e-7,2.4032921,-226.99949,-291.36563)" r="75.996"/>
  <radialGradient id="radialGradient3927" xlink:href="#linearGradient3897" gradientUnits="userSpaceOnUse" cy="215.28" cx="191.23" gradientTransform="matrix(2.256985,1.9617233e-7,-1.7009211e-7,2.4648969,-240.37194,-307.46017)" r="76.009"/>
  <radialGradient id="radialGradient3931" gradientUnits="userSpaceOnUse" cy="159.55" cx="135.55" gradientTransform="matrix(0.99999984,0,0,1.0927147,-30.045895,-44.838189)" r="75.5">
   <stop stop-color="#000" offset="0"/>
   <stop stop-color="#cdcdcd" offset="0.9"/>
   <stop stop-color="#b9b9b9" offset="1"/>
  </radialGradient>
  <linearGradient id="linearGradient3941" y2="47" gradientUnits="userSpaceOnUse" x2="181" y1="212" x1="30">
   <stop stop-color="#000" stop-opacity="0" offset="0"/>
   <stop stop-color="#e1e1e1" stop-opacity="0.17647059" offset="0.35"/>
   <stop stop-color="#FFF" stop-opacity="0.29411766" offset="0.55"/>
   <stop stop-color="#e1e1e1" stop-opacity="0.09803922" offset="0.75"/>
   <stop stop-color="#000" stop-opacity="0" offset="1"/>
  </linearGradient>
  <linearGradient id="linearGradient3957" y2="47" gradientUnits="userSpaceOnUse" x2="30" y1="212" x1="181">
   <stop stop-color="#000" stop-opacity="0.84313726" offset="0"/>
   <stop stop-color="#646464" stop-opacity="0" offset="0.75"/>
   <stop stop-color="#FFF" stop-opacity="0.82352942" offset="1"/>
  </linearGradient>
  <radialGradient id="radialGradient3967" gradientUnits="userSpaceOnUse" cy="129.5" cx="105.5" gradientTransform="matrix(1,0,0,1.0927152,0,-12.006623)" r="75.5">
   <stop stop-color="#3c3c3c" offset="0"/>
   <stop stop-color="#323232" offset="0.85"/>
   <stop stop-color="#232323" offset="1"/>
  </radialGradient>
  <radialGradient id="radialGradient3979" gradientUnits="userSpaceOnUse" cy="129.5" cx="105.5" gradientTransform="matrix(1,0,0,1.0927152,0,-12.006623)" r="75.5">
   <stop stop-color="#FFF" offset="0"/>
   <stop stop-color="#FFF" stop-opacity="0" offset="0.95"/>
   <stop stop-color="#FFF" stop-opacity="0.17647059" offset="1"/>
  </radialGradient>
  <linearGradient id="linearGradient3991" y2="47" gradientUnits="userSpaceOnUse" x2="30" y1="212" x1="181">
   <stop stop-color="#000" stop-opacity="0" offset="0"/>
   <stop stop-color="#FFF" stop-opacity="0" offset="0.3"/>
   <stop stop-color="#FFF" stop-opacity="0.11764706" offset="0.55"/>
   <stop stop-color="#FFF" stop-opacity="0" offset="0.8"/>
   <stop stop-color="#000" stop-opacity="0" offset="1"/>
  </linearGradient>
  <linearGradient id="linearGradient4069" y2="209.34" gradientUnits="userSpaceOnUse" x2="47.166" y1="45.067" x1="47.166">
   <stop stop-color="#373737" offset="0"/>
   <stop stop-color="#3c3c3c" offset="1"/>
  </linearGradient>
  <radialGradient id="radialGradient4071" gradientUnits="userSpaceOnUse" cy="129.5" cx="105.5" gradientTransform="matrix(1,0,0,1.0927152,0,-12.006623)" r="75.5">
   <stop stop-color="#2d2d2d" offset="0"/>
   <stop stop-color="#232323" offset="0.75"/>
   <stop stop-color="#1e1e1e" offset="1"/>
  </radialGradient>
  <linearGradient id="linearGradient4089" y2="212" gradientUnits="userSpaceOnUse" x2="181" y1="47" x1="181">
   <stop stop-color="#282828" offset="0"/>
   <stop stop-color="#323232" offset="1"/>
  </linearGradient>
  <radialGradient id="radialGradient4097" gradientUnits="userSpaceOnUse" cy="129.5" cx="105.5" gradientTransform="matrix(1,0,0,1.0927152,0,-12.006623)" r="75.5">
   <stop stop-color="#232323" offset="0"/>
   <stop stop-color="#191919" offset="1"/>
  </radialGradient>
  <radialGradient id="radialGradient4110" xlink:href="#linearGradient4104" gradientUnits="userSpaceOnUse" cy="184.75" cx="160.08" gradientTransform="matrix(1.4571666,0,0,1.5922681,-84.125913,-115.92156)" r="75.5"/>
  <radialGradient id="radialGradient4120" xlink:href="#linearGradient4104" gradientUnits="userSpaceOnUse" cy="112.68" cx="88.683" gradientTransform="matrix(1.4571666,0,0,1.5922681,-84.125913,-115.92156)" r="75.5"/>
  <radialGradient id="radialGradient4130" gradientUnits="userSpaceOnUse" cy="129.5" cx="105.5" gradientTransform="matrix(1,0,0,1.0927152,0,-12.006623)" r="75.5">
   <stop stop-color="#FFF" stop-opacity="0" offset="0"/>
   <stop stop-color="#FFF" stop-opacity="0.03921569" offset="0.9"/>
   <stop stop-color="#FFF" stop-opacity="0.17647059" offset="1"/>
  </radialGradient>
  <linearGradient id="linearGradient4142" y2="212.55" gradientUnits="userSpaceOnUse" x2="181.51" y1="46.446" x1="29.493">
   <stop stop-color="#FFF" stop-opacity="0.39215687" offset="0"/>
   <stop stop-color="#FFF" stop-opacity="0.05882353" offset="0.3"/>
   <stop stop-color="#FFF" stop-opacity="0.19607843" offset="0.5"/>
   <stop stop-color="#FFF" stop-opacity="0.05882353" offset="0.7"/>
   <stop stop-color="#FFF" stop-opacity="0.15686275" offset="1"/>
  </linearGradient>
  <linearGradient id="linearGradient3887" y2="226.54" xlink:href="#linearGradient3881" spreadMethod="reflect" gradientUnits="userSpaceOnUse" x2="174.05" y1="226.54" x1="127.57"/>
  <radialGradient id="radialGradient3962" xlink:href="#linearGradient3956" gradientUnits="userSpaceOnUse" cy="179.44" cx="60.271" gradientTransform="matrix(1.8064362,0,0,1.3975852,-54.430101,-102.25983)" r="63.202"/>
  <clipPath id="clipPath3992" clipPathUnits="userSpaceOnUse">
   <path d="M17,175c-22.424-38.84,22.07-77.18,47-34,17.912-31.02,64.64,5.4,51.6,28,37.92-10.16,16.43,32.79,7.4,38-26.867,22.74-119.05,16.7-106-32z" fill="#FFF"/>
  </clipPath>
  <filter id="filter3996" color-interpolation-filters="sRGB">
   <feGaussianBlur stdDeviation="1.6814879"/>
  </filter>
  <radialGradient id="radialGradient4030" xlink:href="#linearGradient4024" gradientUnits="userSpaceOnUse" cy="146.18" cx="99.384" gradientTransform="matrix(1.6052389,0,0,1.241925,-54.461553,-34.715924)" r="63.202"/>
  <radialGradient id="radialGradient4038" xlink:href="#linearGradient3956" gradientUnits="userSpaceOnUse" cy="144.03" cx="198.93" gradientTransform="matrix(2.0433122,0,0,1.8974021,-207.55083,-126.94778)" r="39.529"/>
  <radialGradient id="radialGradient4042" xlink:href="#linearGradient4024" gradientUnits="userSpaceOnUse" cy="142.62" cx="216.68" gradientTransform="matrix(1.367445,0,0,1.2697976,-81.366766,-27.758308)" r="39.529"/>
  <clipPath id="clipPath4048" clipPathUnits="userSpaceOnUse">
   <path fill="#FFF" d="M184,168c-18.55-4.97-29.74,22.26-20,32,40.06,40.06,90.91-23.09,71-43-17.85-30.92-51-16.36-51,11z"/>
  </clipPath>
  <filter id="filter4056" color-interpolation-filters="sRGB">
   <feGaussianBlur stdDeviation="1.1435154"/>
  </filter>
  <clipPath id="clipPath4106" clipPathUnits="userSpaceOnUse">
   <path d="M181,129.5a75.5,82.5,0,1,1,-151,0,75.5,82.5,0,1,1,151,0z" fill-rule="evenodd" transform="matrix(0.99337748,0,0,0.90909099,23.198676,10.27271)" fill="#FFF"/>
  </clipPath>
  <clipPath id="clipPath4110" clipPathUnits="userSpaceOnUse">
   <path d="M181,129.5a75.5,82.5,0,1,1,-151,0,75.5,82.5,0,1,1,151,0z" fill-rule="evenodd" transform="matrix(0.99337748,0,0,0.90909099,23.198676,10.27271)" fill="#FFF"/>
  </clipPath>
  <filter id="filter4134" color-interpolation-filters="sRGB">
   <feGaussianBlur stdDeviation="1.681488"/>
  </filter>
  <filter id="filter4142" color-interpolation-filters="sRGB">
   <feGaussianBlur stdDeviation="1.1435154"/>
  </filter>
  <radialGradient id="radialGradient4156" xlink:href="#linearGradient4150" gradientUnits="userSpaceOnUse" cy="161.72" cx="144.4" gradientTransform="matrix(0.97056357,0,0,1.0605496,1.3855187,-11.380714)" r="75.5"/>
  <radialGradient id="radialGradient4160" xlink:href="#linearGradient4150" gradientUnits="userSpaceOnUse" cy="99.834" cx="68.768" gradientTransform="matrix(0.97056357,0,0,1.0605496,1.3855187,-11.380714)" r="75.5"/>
  <radialGradient id="radialGradient4182" gradientUnits="userSpaceOnUse" cy="129.5" cx="105.5" gradientTransform="matrix(1,0,0,1.0927152,0,-12.006623)" r="75.5">
   <stop stop-color="#FFF" stop-opacity="0.17647059" offset="0"/>
   <stop stop-color="#FFF" stop-opacity="0" offset="1"/>
  </radialGradient>
  <radialGradient id="radialGradient4198" gradientUnits="userSpaceOnUse" cy="157.02" cx="133.77" gradientTransform="matrix(3.1385248,0,0,3.4295134,-237.83215,-328.71425)" r="75.5">
   <stop stop-color="#00b0fa" stop-opacity="0" offset="0"/>
   <stop stop-color="#00b0fa" stop-opacity="0.01960784" offset="0.35"/>
   <stop stop-color="#00affa" stop-opacity="0.09803922" offset="1"/>
  </radialGradient>
  <radialGradient id="radialGradient4204" gradientUnits="userSpaceOnUse" cy="109.87" cx="85.658" gradientTransform="matrix(3.1385248,0,0,3.4295134,-237.83215,-328.71425)" r="75.5">
   <stop stop-color="#1bfa00" stop-opacity="0" offset="0"/>
   <stop stop-color="#1dfa00" stop-opacity="0" offset="0.35"/>
   <stop stop-color="#1dfa00" stop-opacity="0.05882353" offset="1"/>
  </radialGradient>
  <radialGradient id="radialGradient4227" gradientUnits="userSpaceOnUse" cy="75.507" cx="63.943" gradientTransform="matrix(1.2159092,0,0,1.3286425,-13.805971,-29.820729)" r="75.5">
   <stop stop-color="#0093fa" stop-opacity="0.11764706" offset="0"/>
   <stop stop-color="#FFF" stop-opacity="0" offset="1"/>
  </radialGradient>
  <radialGradient id="radialGradient4246" gradientUnits="userSpaceOnUse" cy="55.007" cx="32.013" gradientTransform="matrix(1.9735545,0,0,1.9735545,-8.1800544,-54.558678)" r="75.5">
   <stop stop-color="#FFF" stop-opacity="0.09803922" offset="0"/>
   <stop stop-color="#FFF" stop-opacity="0" offset="1"/>
  </radialGradient>
  <linearGradient id="linearGradient4261" y2="237" xlink:href="#linearGradient4255" spreadMethod="reflect" gradientUnits="userSpaceOnUse" x2="73" y1="237" x1="55.114"/>
  <linearGradient id="linearGradient4293" y2="230.5" xlink:href="#linearGradient4255" spreadMethod="reflect" gradientUnits="userSpaceOnUse" x2="225" y1="230.5" x1="210.41"/>
  <linearGradient id="linearGradient4323" y2="212.47" gradientUnits="userSpaceOnUse" x2="54.721" y1="46.534" x1="54.721">
   <stop stop-color="#FFF" stop-opacity="0.19607843" offset="0"/>
   <stop stop-color="#FFF" stop-opacity="0.09803922" offset="1"/>
  </linearGradient>
  <radialGradient id="radialGradient4064" xlink:href="#linearGradient4058" gradientUnits="userSpaceOnUse" cy="176.39" cx="105.13" gradientTransform="matrix(1.4017206,0,0,1.5161469,-41.655372,-89.762932)" r="24.5"/>
  <radialGradient id="radialGradient4068" xlink:href="#linearGradient4058" gradientUnits="userSpaceOnUse" cy="174.79" cx="97.933" gradientTransform="matrix(1.0856486,0,0,1.174273,-9.2772723,-28.806597)" r="24.5"/>
  <filter id="filter4110" height="1.2307739" width="1.2496126" color-interpolation-filters="sRGB" y="-0.11538695" x="-0.12480629">
   <feGaussianBlur stdDeviation="2.5481284"/>
  </filter>
  <filter id="filter4114" height="1.2307988" width="1.2496396" color-interpolation-filters="sRGB" y="-0.11539945" x="-0.12481981">
   <feGaussianBlur stdDeviation="2.5484045"/>
  </filter>
  <radialGradient id="radialGradient4121" xlink:href="#linearGradient4058" gradientUnits="userSpaceOnUse" cy="178.05" cx="96.824" gradientTransform="matrix(1.4017206,0,0,1.5161469,-41.655372,-89.762932)" r="24.5"/>
  <filter id="filter4123" height="1.2311099" width="1.2499759" color-interpolation-filters="sRGB" y="-0.1155549" x="-0.12498795">
   <feGaussianBlur stdDeviation="2.5518374"/>
  </filter>
  <radialGradient id="radialGradient4165" gradientUnits="userSpaceOnUse" cy="125.75" cx="125.25" gradientTransform="matrix(1,0,0,0.96601942,0,4.2730583)" r="64.375">
   <stop stop-color="#FFF" stop-opacity="0" offset="0"/>
   <stop stop-color="#FFF" stop-opacity="0" offset="0.7"/>
   <stop stop-color="#FFF" stop-opacity="0.05882353" offset="1"/>
  </radialGradient>
  <filter id="filter4183" color-interpolation-filters="sRGB">
   <feGaussianBlur stdDeviation="1.8984375"/>
  </filter>
  <filter id="filter4258" height="1.8258812" width="1.85436" color-interpolation-filters="sRGB" y="-0.41294068" x="-0.42718002">
   <feGaussianBlur stdDeviation="5.1617584"/>
  </filter>
  <clipPath id="clipPath4323" clipPathUnits="userSpaceOnUse">
   <path fill="#FFF" d="M17,175c-22.424-38.84,22.07-77.18,47-34,17.912-31.02,64.64,5.4,51.6,28,37.92-10.16,16.43,32.79,7.4,38-26.867,22.74-119.05,16.7-106-32z"/>
  </clipPath>
  <clipPath id="clipPath4330" clipPathUnits="userSpaceOnUse">
   <path fill="#FFF" d="M70.845,160.54c-15.671-5.07-25.127,22.68-16.897,32.61,33.844,40.83,76.802-23.53,59.982-43.82-15.079-31.51-43.085-16.68-43.085,11.21z"/>
  </clipPath>
  <linearGradient id="linearGradient4342" y2="212.42" gradientUnits="userSpaceOnUse" x2="52.052" y1="46.577" x1="52.052">
   <stop stop-color="#FFF" stop-opacity="0.19607843" offset="0"/>
   <stop stop-color="#FFF" stop-opacity="0.11764706" offset="1"/>
  </linearGradient>
 </defs>
 <metadata>
  <rdf:RDF>
   <cc:Work rdf:about="">
    <dc:format>image/svg+xml</dc:format>
    <dc:type rdf:resource="http://purl.org/dc/dcmitype/StillImage"/>
    <dc:title>Lookit icon - 256px</dc:title>
    <dc:creator>
     <cc:Agent>
      <dc:title>Harenome Ranaivoarivony Razanajato</dc:title>
     </cc:Agent>
    </dc:creator>
    <cc:license rdf:resource="http://www.gnu.org/licenses/gpl.html"/>
   </cc:Work>
  </rdf:RDF>
 </metadata>
 <path d="M174,226.54a46.433,12.456,0,1,1,-92.866,0,46.433,12.456,0,1,1,92.866,0z" fill-rule="evenodd" transform="matrix(1.4644751,0,0,0.72255523,-58.818665,63.3093)" fill="url(#linearGradient3887)"/>
 <path d="M174,226.54a46.433,12.456,0,1,1,-92.866,0,46.433,12.456,0,1,1,92.866,0z" fill-rule="evenodd" transform="matrix(1.4429387,0,0,0.64227131,-56.071332,81.497157)" fill="url(#linearGradient3887)"/>
 <path d="M174,226.54a46.433,12.456,0,1,1,-92.866,0,46.433,12.456,0,1,1,92.866,0z" fill-rule="evenodd" transform="matrix(1.4214023,0,0,0.5619874,-53.323998,99.685011)" fill="url(#linearGradient3887)"/>
 <path d="M174,226.54a46.433,12.456,0,1,1,-92.866,0,46.433,12.456,0,1,1,92.866,0z" fill-rule="evenodd" transform="matrix(1.3998659,0,0,0.48170349,-50.576665,117.87287)" fill="url(#linearGradient3887)"/>
 <path d="M174,226.54a46.433,12.456,0,1,1,-92.866,0,46.433,12.456,0,1,1,92.866,0z" fill-rule="evenodd" transform="matrix(1.3783295,0,0,0.40141957,-47.829332,136.06072)" fill="url(#linearGradient3887)"/>
 <path d="M174,226.54a46.433,12.456,0,1,1,-92.866,0,46.433,12.456,0,1,1,92.866,0z" fill-rule="evenodd" transform="matrix(1.3567931,0,0,0.32113566,-45.082001,154.24858)" fill="url(#linearGradient3887)"/>
 <path d="M174,226.54a46.433,12.456,0,1,1,-92.866,0,46.433,12.456,0,1,1,92.866,0z" fill-rule="evenodd" transform="matrix(0.99067436,0,0,0.36127761,1.6226656,145.65465)" fill="url(#linearGradient3887)"/>
 <path d="M174,226.54a46.433,12.456,0,1,1,-92.866,0,46.433,12.456,0,1,1,92.866,0z" fill-rule="evenodd" transform="matrix(0.96913796,0,0,0.32113566,4.369999,154.24858)" fill="url(#linearGradient3887)"/>
 <path d="M174,226.54a46.433,12.456,0,1,1,-92.866,0,46.433,12.456,0,1,1,92.866,0z" fill-rule="evenodd" transform="matrix(0.94760156,0,0,0.2809937,7.1173322,162.84251)" fill="url(#linearGradient3887)"/>
 <path d="M174,226.54a46.433,12.456,0,1,1,-92.866,0,46.433,12.456,0,1,1,92.866,0z" fill-rule="evenodd" transform="matrix(0.92606516,0,0,0.24085174,9.8646657,171.43644)" fill="url(#linearGradient3887)"/>
 <path d="M174,226.54a46.433,12.456,0,1,1,-92.866,0,46.433,12.456,0,1,1,92.866,0z" fill-rule="evenodd" transform="matrix(0.90452876,0,0,0.20070979,12.611999,180.03036)" fill="url(#linearGradient3887)"/>
 <path d="M174,226.54a46.433,12.456,0,1,1,-92.866,0,46.433,12.456,0,1,1,92.866,0z" fill-rule="evenodd" transform="matrix(0.88299236,0,0,0.16056783,15.359333,188.62429)" fill="url(#linearGradient3887)"/>
 <path d="M181,129.5a75.5,82.5,0,1,1,-151,0,75.5,82.5,0,1,1,151,0z" fill-rule="evenodd" transform="matrix(1.2980132,0,0,1.1878788,-8.940396,-25.830306)" fill="url(#radialGradient3931)"/>
 <path d="M181,129.5a75.5,82.5,0,1,1,-151,0,75.5,82.5,0,1,1,151,0z" transform="matrix(1.2913907,0,0,1.1818182,-8.241721,-25.045458)" stroke="url(#linearGradient4342)" stroke-dasharray="none" stroke-miterlimit="4" stroke-width="0.80946082" fill="none"/>
 <path d="M181,129.5a75.5,82.5,0,1,1,-151,0,75.5,82.5,0,1,1,151,0z" fill-rule="evenodd" transform="matrix(1.2980132,0,0,1.1878788,-8.940396,-25.830306)" fill="url(#linearGradient3941)"/>
 <path d="M181,129.5a75.5,82.5,0,1,1,-151,0,75.5,82.5,0,1,1,151,0z" fill-rule="evenodd" transform="matrix(1.2980132,0,0,1.1878788,-8.940396,-25.830306)" fill="url(#linearGradient3957)"/>
 <path d="M181,129.5a75.5,82.5,0,1,1,-151,0,75.5,82.5,0,1,1,151,0z" transform="matrix(1.1721854,0,0,1.0727273,4.334438,-10.918188)" stroke="url(#linearGradient4323)" stroke-dasharray="none" stroke-miterlimit="4" stroke-width="0.89177889" fill="none"/>
 <path d="M181,129.5a75.5,82.5,0,1,1,-151,0,75.5,82.5,0,1,1,151,0z" fill-rule="evenodd" transform="matrix(1.2980132,0,0,1.1878788,-8.940396,-25.830306)" fill="url(#radialGradient3979)"/>
 <path d="M181,129.5a75.5,82.5,0,1,1,-151,0,75.5,82.5,0,1,1,151,0z" fill-rule="evenodd" transform="matrix(1.1655629,0,0,1.0666667,5.033113,-10.13334)" fill="url(#linearGradient3815)"/>
 <path d="M181,129.5a75.5,82.5,0,1,1,-151,0,75.5,82.5,0,1,1,151,0z" fill-rule="evenodd" transform="matrix(1.1655629,0,0,1.0666667,5.033113,-10.13334)" fill="url(#radialGradient4227)"/>
 <path d="M181,129.5a75.5,82.5,0,1,1,-151,0,75.5,82.5,0,1,1,151,0z" transform="matrix(1.1456954,0,0,1.0484849,7.129138,-7.7787988)" stroke="url(#radialGradient3871)" stroke-dasharray="none" stroke-miterlimit="4" stroke-width="0.91239804" fill="none"/>
 <path d="M181,129.5a75.5,82.5,0,1,1,-151,0,75.5,82.5,0,1,1,151,0z" transform="matrix(1.1324503,0,0,1.0363637,8.526491,-6.2091044)" stroke="url(#radialGradient3903)" stroke-dasharray="none" stroke-miterlimit="4" stroke-width="0.92306942" fill="none"/>
 <path d="M181,129.5a75.5,82.5,0,1,1,-151,0,75.5,82.5,0,1,1,151,0z" transform="matrix(1.1059603,0,0,1.0121213,11.321191,-3.0697156)" stroke="url(#radialGradient3879)" stroke-dasharray="none" stroke-miterlimit="4" stroke-width="0.94517881" fill="none"/>
 <path d="M181,129.5a75.5,82.5,0,1,1,-151,0,75.5,82.5,0,1,1,151,0z" transform="matrix(1.0927152,0,0,1.0000001,12.718544,-1.5000212)" stroke="url(#radialGradient3911)" stroke-dasharray="none" stroke-miterlimit="4" stroke-width="0.95663553" fill="none"/>
 <path d="M181,129.5a75.5,82.5,0,1,1,-151,0,75.5,82.5,0,1,1,151,0z" transform="matrix(1.0794702,0,0,0.98787892,14.115894,0.06966894)" stroke="url(#radialGradient3887)" stroke-dasharray="none" stroke-miterlimit="4" stroke-width="0.96837336" fill="none"/>
 <path d="M181,129.5a75.5,82.5,0,1,1,-151,0,75.5,82.5,0,1,1,151,0z" transform="matrix(1.0529801,0,0,0.96363645,16.910597,3.2090726)" stroke="url(#radialGradient3919)" stroke-dasharray="none" stroke-miterlimit="4" stroke-width="0.99273497" fill="none"/>
 <path d="M181,129.5a75.5,82.5,0,1,1,-151,0,75.5,82.5,0,1,1,151,0z" transform="matrix(1.0397351,0,0,0.95151527,18.307947,4.7787628)" stroke="url(#radialGradient3895)" stroke-dasharray="none" stroke-miterlimit="4" stroke-width="1.00538123" fill="none"/>
 <path d="M181,129.5a75.5,82.5,0,1,1,-151,0,75.5,82.5,0,1,1,151,0z" transform="matrix(1.0264901,0,0,0.93939406,19.705297,6.3484592)" stroke="url(#radialGradient3927)" stroke-dasharray="none" stroke-miterlimit="4" stroke-width="1.01835394" fill="none"/>
 <path d="M181,129.5a75.5,82.5,0,1,1,-151,0,75.5,82.5,0,1,1,151,0z" fill-rule="evenodd" transform="matrix(1.1655629,0,0,1.0666667,5.033113,-10.13334)" fill="url(#linearGradient3991)"/>
 <path d="M181,129.5a75.5,82.5,0,1,1,-151,0,75.5,82.5,0,1,1,151,0z" fill-rule="evenodd" transform="matrix(1.0198675,0,0,0.93333337,20.403975,7.1333256)" fill="url(#radialGradient3967)"/>
 <path d="M181,129.5a75.5,82.5,0,1,1,-151,0,75.5,82.5,0,1,1,151,0z" fill-rule="evenodd" transform="matrix(0.82119205,0,0,0.75151522,41.364238,30.678773)" fill="url(#linearGradient4069)"/>
 <path d="M181,129.5a75.5,82.5,0,1,1,-151,0,75.5,82.5,0,1,1,151,0z" fill-rule="evenodd" transform="matrix(0.79470199,0,0,0.7272728,44.15894,33.818166)" fill="url(#radialGradient4071)"/>
 <path d="M181,129.5a75.5,82.5,0,1,1,-151,0,75.5,82.5,0,1,1,151,0z" fill-rule="evenodd" transform="matrix(0.22516556,0,0,0.20606063,104.24503,101.31515)" fill="url(#linearGradient4089)"/>
 <path d="M181,129.5a75.5,82.5,0,1,1,-151,0,75.5,82.5,0,1,1,151,0z" fill-rule="evenodd" transform="matrix(0.1986755,0,0,0.1818182,107.03973,104.45454)" fill="url(#radialGradient4097)"/>
 <path d="M181,129.5a75.5,82.5,0,1,1,-151,0,75.5,82.5,0,1,1,151,0z" fill-rule="evenodd" transform="matrix(0.06622517,0,0,0.06060607,121.01324,120.15151)" fill="url(#radialGradient4182)"/>
 <path d="M181,129.5a75.5,82.5,0,1,1,-151,0,75.5,82.5,0,1,1,151,0z" fill-rule="evenodd" transform="matrix(0.13245033,0,0,0.12121213,114.02649,112.30303)" fill="url(#radialGradient4156)"/>
 <path d="M181,129.5a75.5,82.5,0,1,1,-151,0,75.5,82.5,0,1,1,151,0z" fill-rule="evenodd" transform="matrix(0.13245033,0,0,0.12121213,114.02649,112.30303)" fill="url(#radialGradient4160)"/>
 <path d="M181,129.5a75.5,82.5,0,1,1,-151,0,75.5,82.5,0,1,1,151,0z" fill-rule="evenodd" transform="matrix(0.99337748,0,0,0.90909099,23.198676,10.27271)" fill="url(#radialGradient4110)"/>
 <path d="M181,129.5a75.5,82.5,0,1,1,-151,0,75.5,82.5,0,1,1,151,0z" fill-rule="evenodd" transform="matrix(0.99337748,0,0,0.90909099,23.198676,10.27271)" fill="url(#radialGradient4120)"/>
 <path d="M181,129.5a75.5,82.5,0,1,1,-151,0,75.5,82.5,0,1,1,151,0z" fill-rule="evenodd" transform="matrix(0.99337748,0,0,0.90909099,23.198676,10.27271)" fill="url(#radialGradient4130)"/>
 <path d="M181,129.5a75.5,82.5,0,1,1,-151,0,75.5,82.5,0,1,1,151,0z" transform="matrix(0.98675497,0,0,0.90303039,23.897351,11.057557)" stroke="url(#linearGradient4142)" stroke-dasharray="none" stroke-miterlimit="4" stroke-width="1.05936146" fill="none"/>
 <path d="M181,129.5a75.5,82.5,0,1,1,-151,0,75.5,82.5,0,1,1,151,0z" fill-rule="evenodd" transform="matrix(0.99337748,0,0,0.90909099,23.198676,10.27271)" fill="url(#radialGradient4198)"/>
 <path d="M181,129.5a75.5,82.5,0,1,1,-151,0,75.5,82.5,0,1,1,151,0z" fill-rule="evenodd" transform="matrix(0.99337748,0,0,0.90909099,23.198676,10.27271)" fill="url(#radialGradient4204)"/>
 <path fill-rule="evenodd" fill="url(#radialGradient4246)" d="M128,53c-41.421,0-75,33.579-75,75,0,18.39,6.613,35.24,17.594,48.28,14.536-43.74,55.786-75.28,104.41-75.28,8.21,0,16.21,0.92,23.91,2.62-10.12-29.444-38.03-50.62-70.91-50.62z"/>
 <path d="M106.25,63.562c-3.9,1.318-7.638,2.999-11.188,4.969l9.658,17.469c2.51-1.398,5.17-2.536,7.94-3.469l-6.41-18.969zm-20.094,10.876c-8.402,6.573-15.219,15.072-19.781,24.843l18.094,8.439c3.221-6.9,8.064-12.89,14-17.532l-12.313-15.75zm-21.656,29.222c-1.645,4.28-2.874,8.78-3.625,13.43l19.75,3.22c0.53-3.29,1.398-6.46,2.563-9.5l-18.688-7.15zm107,44.65c-1.97,4.22-4.54,8.1-7.59,11.53l14.97,13.28c4.33-4.87,7.95-10.39,10.74-16.37l-18.12-8.44zm-9.56,13.63c-3.32,3.31-7.12,6.17-11.28,8.4l9.43,17.6c5.91-3.17,11.31-7.15,16-11.85l-14.15-14.15z" fill-rule="evenodd" filter="url(#filter4183)" fill="url(#radialGradient4165)"/>
 <path d="M118,108a14.5,15,0,1,1,-29,0,14.5,15,0,1,1,29,0z" fill-rule="evenodd" fill-opacity="0.05882353" transform="matrix(1.7241379,0,0,1.6666666,-83.448275,-84)" filter="url(#filter4258)" fill="#FFF"/>
 <path d="M73,237a18,10,0,1,1,-36,0,18,10,0,1,1,36,0z" fill-rule="evenodd" transform="matrix(1.9444444,0,0,0.5,-44.944443,121.5)" fill="url(#linearGradient4261)"/>
 <path d="M73,237a18,10,0,1,1,-36,0,18,10,0,1,1,36,0z" fill-rule="evenodd" transform="matrix(1.8888889,0,0,0.45,-41.888889,132.85)" fill="url(#linearGradient4261)"/>
 <path d="M73,237a18,10,0,1,1,-36,0,18,10,0,1,1,36,0z" fill-rule="evenodd" transform="matrix(1.8333333,0,0,0.4,-38.833332,144.2)" fill="url(#linearGradient4261)"/>
 <path d="M73,237a18,10,0,1,1,-36,0,18,10,0,1,1,36,0z" fill-rule="evenodd" transform="matrix(1.7777778,0,0,0.35,-35.777779,155.55)" fill="url(#linearGradient4261)"/>
 <path d="M73,237a18,10,0,1,1,-36,0,18,10,0,1,1,36,0z" fill-rule="evenodd" transform="matrix(1.7222222,0,0,0.3,-32.722222,166.9)" fill="url(#linearGradient4261)"/>
 <path d="M73,237a18,10,0,1,1,-36,0,18,10,0,1,1,36,0z" fill-rule="evenodd" transform="matrix(1.6666667,0,0,0.25,-29.666668,178.25)" fill="url(#linearGradient4261)"/>
 <path d="M225,230.5a14.5,3.5,0,1,1,-29,0,14.5,3.5,0,1,1,29,0z" fill-rule="evenodd" transform="matrix(1.7241377,0,0,1.4285714,-154.93099,-97.285714)" fill="url(#linearGradient4293)"/>
 <path d="M225,230.5a14.5,3.5,0,1,1,-29,0,14.5,3.5,0,1,1,29,0z" fill-rule="evenodd" transform="matrix(1.6551722,0,0,1.2857143,-140.41375,-64.857142)" fill="url(#linearGradient4293)"/>
 <path d="M225,230.5a14.5,3.5,0,1,1,-29,0,14.5,3.5,0,1,1,29,0z" fill-rule="evenodd" transform="matrix(1.5862067,0,0,1.1428571,-125.89651,-32.428571)" fill="url(#linearGradient4293)"/>
 <path d="M225,230.5a14.5,3.5,0,1,1,-29,0,14.5,3.5,0,1,1,29,0z" fill-rule="evenodd" transform="matrix(1.5172412,0,0,1,-111.37927,2.3999951e-7)" fill="url(#linearGradient4293)"/>
 <path d="M225,230.5a14.5,3.5,0,1,1,-29,0,14.5,3.5,0,1,1,29,0z" fill-rule="evenodd" transform="matrix(1.4482757,0,0,0.85714286,-96.862029,32.428572)" fill="url(#linearGradient4293)"/>
 <path d="M225,230.5a14.5,3.5,0,1,1,-29,0,14.5,3.5,0,1,1,29,0z" fill-rule="evenodd" transform="matrix(1.3793102,0,0,0.71428571,-82.344797,64.857144)" fill="url(#linearGradient4293)"/>
 <path opacity="0.03999999" d="M27,170c-22.424-38.84,22.07-77.18,47-34,17.912-31.02,64.64,5.4,51.6,28,37.92-10.16,16.43,32.79,7.4,38-26.87,22.74-119.05,16.7-106-32z" clip-path="url(#clipPath4106)" filter="url(#filter4134)" fill="#FFF"/>
 <path opacity="0.03999999" d="M179,163c-18.55-4.97-29.74,22.26-20,32,40.06,40.06,90.91-23.09,71-43-17.85-30.92-51-16.36-51,11z" clip-path="url(#clipPath4110)" filter="url(#filter4142)" fill="#FFF"/>
 <path fill="url(#radialGradient3962)" d="M17,175c-22.424-38.84,22.07-77.18,47-34,17.912-31.02,64.64,5.4,51.6,28,37.92-10.16,16.43,32.79,7.4,38-26.867,22.74-119.05,16.7-106-32z"/>
 <path fill="url(#radialGradient4038)" d="M184,168c-18.55-4.97-29.74,22.26-20,32,40.06,40.06,90.91-23.09,71-43-17.85-30.92-51-16.36-51,11z"/>
 <path d="M17,175c-22.424-38.84,22.07-77.18,47-34,17.912-31.02,64.64,5.4,51.6,28,37.92-10.16,16.43,32.79,7.4,38-26.867,22.74-119.05,16.7-106-32z" fill="url(#radialGradient4030)"/>
 <path d="M17,175c-22.424-38.84,22.07-77.18,47-34,17.912-31.02,64.64,5.4,51.6,28,37.92-10.16,16.43,32.79,7.4,38-26.867,22.74-119.05,16.7-106-32z" stroke-opacity="0.58823529" clip-path="url(#clipPath3992)" filter="url(#filter3996)" stroke="#FFF" stroke-dasharray="none" stroke-miterlimit="4" stroke-width="2" fill="none"/>
 <path d="M184,168c-18.55-4.97-29.74,22.26-20,32,40.06,40.06,90.91-23.09,71-43-17.85-30.92-51-16.36-51,11z" fill="url(#radialGradient4042)"/>
 <path d="M184,168c-18.55-4.97-29.74,22.26-20,32,40.06,40.06,90.91-23.09,71-43-17.85-30.92-51-16.36-51,11z" stroke-opacity="0.58823529" clip-path="url(#clipPath4048)" filter="url(#filter4056)" stroke="#FFF" stroke-dasharray="none" stroke-miterlimit="4" stroke-width="2" fill="none"/>
 <g fill-rule="evenodd" clip-path="url(#clipPath4323)">
  <path d="M119,158.5a24.5,26.5,0,1,1,-49,0,24.5,26.5,0,1,1,49,0z" transform="matrix(1.2244898,0,0,1.1132075,-27.714283,-16.943387)" filter="url(#filter4110)" fill="url(#radialGradient4064)"/>
  <path d="M119,158.5a24.5,26.5,0,1,1,-49,0,24.5,26.5,0,1,1,49,0z" transform="matrix(1.1836735,0,0,1.1320755,-76.857145,-28.433962)" filter="url(#filter4114)" fill="url(#radialGradient4068)"/>
 </g>
 <path d="M119,158.5a24.5,26.5,0,1,1,-49,0,24.5,26.5,0,1,1,49,0z" clip-path="url(#clipPath4330)" fill-rule="evenodd" transform="matrix(1.1836735,0,0,0.98113208,100.14285,10.490566)" filter="url(#filter4123)" fill="url(#radialGradient4121)"/>
</svg>
