<?xml version="1.0" encoding="UTF-8" standalone="no"?>
<!-- Created with Inkscape (http://www.inkscape.org/) -->
<svg xmlns:rdf="http://www.w3.org/1999/02/22-rdf-syntax-ns#" xmlns="http://www.w3.org/2000/svg" height="128" width="128" version="1.1" xmlns:cc="http://creativecommons.org/ns#" xmlns:xlink="http://www.w3.org/1999/xlink" xmlns:dc="http://purl.org/dc/elements/1.1/">
 <title>Lookit icon - 128px</title>
 <defs>
  <linearGradient id="linearGradient4058">
   <stop stop-color="#000" stop-opacity="0.04705882" offset="0"/>
   <stop stop-color="#000" stop-opacity="0" offset="1"/>
  </linearGradient>
  <linearGradient id="linearGradient4255">
   <stop stop-color="#000" stop-opacity="0.01176471" offset="0"/>
   <stop stop-color="#000" stop-opacity="0.00392157" offset="0.8"/>
   <stop stop-color="#000" stop-opacity="0" offset="1"/>
  </linearGradient>
  <linearGradient id="linearGradient4150">
   <stop stop-color="#FFF" stop-opacity="0.13725491" offset="0"/>
   <stop stop-color="#FFF" stop-opacity="0" offset="1"/>
  </linearGradient>
  <linearGradient id="linearGradient4024">
   <stop stop-color="#FFF" stop-opacity="0" offset="0"/>
   <stop stop-color="#d9dddf" stop-opacity="0.19607843" offset="1"/>
  </linearGradient>
  <linearGradient id="linearGradient3956">
   <stop stop-color="#FFF" offset="0"/>
   <stop stop-color="#fafafa" offset="0.4"/>
   <stop stop-color="#d8e0e0" offset="1"/>
  </linearGradient>
  <linearGradient id="linearGradient3881">
   <stop stop-color="#000" stop-opacity="0.02352941" offset="0"/>
   <stop stop-color="#000" stop-opacity="0.00784314" offset="0.85"/>
   <stop stop-color="#000" stop-opacity="0" offset="1"/>
  </linearGradient>
  <linearGradient id="linearGradient4104">
   <stop stop-color="#FFF" stop-opacity="0.11764706" offset="0"/>
   <stop stop-color="#FFF" stop-opacity="0" offset="0.5"/>
   <stop stop-color="#FFF" stop-opacity="0" offset="1"/>
  </linearGradient>
  <linearGradient id="linearGradient3897">
   <stop stop-color="#FFF" stop-opacity="0.19607843" offset="0"/>
   <stop stop-color="#FFF" stop-opacity="0.13725491" offset="1"/>
  </linearGradient>
  <linearGradient id="linearGradient3865">
   <stop stop-color="#000" stop-opacity="0.25490198" offset="0"/>
   <stop stop-color="#000" stop-opacity="0.09803922" offset="1"/>
  </linearGradient>
  <linearGradient id="linearGradient3815" y2="212" gradientUnits="userSpaceOnUse" x2="158.9" y1="47" x1="158.9">
   <stop stop-color="#373737" offset="0"/>
   <stop stop-color="#191919" offset="1"/>
  </linearGradient>
  <radialGradient id="radialGradient3871" xlink:href="#linearGradient3865" gradientUnits="userSpaceOnUse" cy="206.35" cx="182.31" gradientTransform="matrix(2.0234928,1.1574411e-8,-1.0586926e-8,2.2099744,-186.59219,-242.59404)" r="75.956"/>
  <radialGradient id="radialGradient3879" xlink:href="#linearGradient3865" gradientUnits="userSpaceOnUse" cy="209.11" cx="185.07" gradientTransform="matrix(2.0993071,-2.0167413e-7,1.8415494e-7,2.2888805,-203.44756,-262.18365)" r="75.973"/>
  <radialGradient id="radialGradient3903" xlink:href="#linearGradient3897" gradientUnits="userSpaceOnUse" cy="207.25" cx="183.21" gradientTransform="matrix(2.0470128,-7.6327576e-8,6.9815798e-8,2.2356649,-191.82071,-248.92411)" r="75.962"/>
  <radialGradient id="radialGradient3911" xlink:href="#linearGradient3897" gradientUnits="userSpaceOnUse" cy="210.08" cx="186.03" gradientTransform="matrix(2.1210359,-3.4347468e-8,3.1416349e-8,2.3164501,-208.55007,-269.13148)" r="75.978"/>
  <radialGradient id="radialGradient3931" gradientUnits="userSpaceOnUse" cy="159.55" cx="135.55" gradientTransform="matrix(0.99999984,0,0,1.0927147,-30.045895,-44.838189)" r="75.5">
   <stop stop-color="#000" offset="0"/>
   <stop stop-color="#cdcdcd" offset="0.9"/>
   <stop stop-color="#b9b9b9" offset="1"/>
  </radialGradient>
  <linearGradient id="linearGradient3941" y2="47" gradientUnits="userSpaceOnUse" x2="181" y1="212" x1="30">
   <stop stop-color="#000" stop-opacity="0" offset="0"/>
   <stop stop-color="#e1e1e1" stop-opacity="0.17647059" offset="0.35"/>
   <stop stop-color="#FFF" stop-opacity="0.29411766" offset="0.55"/>
   <stop stop-color="#e1e1e1" stop-opacity="0.09803922" offset="0.75"/>
   <stop stop-color="#000" stop-opacity="0" offset="1"/>
  </linearGradient>
  <linearGradient id="linearGradient3957" y2="47" gradientUnits="userSpaceOnUse" x2="30" y1="212" x1="181">
   <stop stop-color="#000" stop-opacity="0.84313726" offset="0"/>
   <stop stop-color="#646464" stop-opacity="0" offset="0.75"/>
   <stop stop-color="#FFF" stop-opacity="0.82352942" offset="1"/>
  </linearGradient>
  <radialGradient id="radialGradient3967" gradientUnits="userSpaceOnUse" cy="129.5" cx="105.5" gradientTransform="matrix(1,0,0,1.0927152,0,-12.006623)" r="75.5">
   <stop stop-color="#3c3c3c" offset="0"/>
   <stop stop-color="#323232" offset="0.85"/>
   <stop stop-color="#232323" offset="1"/>
  </radialGradient>
  <radialGradient id="radialGradient3979" gradientUnits="userSpaceOnUse" cy="129.5" cx="105.5" gradientTransform="matrix(1,0,0,1.0927152,0,-12.006623)" r="75.5">
   <stop stop-color="#FFF" offset="0"/>
   <stop stop-color="#FFF" stop-opacity="0" offset="0.95"/>
   <stop stop-color="#FFF" stop-opacity="0.17647059" offset="1"/>
  </radialGradient>
  <linearGradient id="linearGradient3991" y2="47" gradientUnits="userSpaceOnUse" x2="30" y1="212" x1="181">
   <stop stop-color="#000" stop-opacity="0" offset="0"/>
   <stop stop-color="#FFF" stop-opacity="0" offset="0.3"/>
   <stop stop-color="#FFF" stop-opacity="0.11764706" offset="0.55"/>
   <stop stop-color="#FFF" stop-opacity="0" offset="0.8"/>
   <stop stop-color="#000" stop-opacity="0" offset="1"/>
  </linearGradient>
  <linearGradient id="linearGradient4069" y2="209.34" gradientUnits="userSpaceOnUse" x2="47.166" y1="45.067" x1="47.166">
   <stop stop-color="#373737" offset="0"/>
   <stop stop-color="#3c3c3c" offset="1"/>
  </linearGradient>
  <radialGradient id="radialGradient4071" gradientUnits="userSpaceOnUse" cy="129.5" cx="105.5" gradientTransform="matrix(1,0,0,1.0927152,0,-12.006623)" r="75.5">
   <stop stop-color="#2d2d2d" offset="0"/>
   <stop stop-color="#232323" offset="0.75"/>
   <stop stop-color="#1e1e1e" offset="1"/>
  </radialGradient>
  <linearGradient id="linearGradient4089" y2="212" gradientUnits="userSpaceOnUse" x2="181" y1="47" x1="181">
   <stop stop-color="#282828" offset="0"/>
   <stop stop-color="#323232" offset="1"/>
  </linearGradient>
  <radialGradient id="radialGradient4097" gradientUnits="userSpaceOnUse" cy="129.5" cx="105.5" gradientTransform="matrix(1,0,0,1.0927152,0,-12.006623)" r="75.5">
   <stop stop-color="#232323" offset="0"/>
   <stop stop-color="#191919" offset="1"/>
  </radialGradient>
  <radialGradient id="radialGradient4110" xlink:href="#linearGradient4104" gradientUnits="userSpaceOnUse" cy="184.75" cx="160.08" gradientTransform="matrix(1.4571666,0,0,1.5922681,-84.125913,-115.92156)" r="75.5"/>
  <radialGradient id="radialGradient4120" xlink:href="#linearGradient4104" gradientUnits="userSpaceOnUse" cy="112.68" cx="88.683" gradientTransform="matrix(1.4571666,0,0,1.5922681,-84.125913,-115.92156)" r="75.5"/>
  <radialGradient id="radialGradient4130" gradientUnits="userSpaceOnUse" cy="129.5" cx="105.5" gradientTransform="matrix(1,0,0,1.0927152,0,-12.006623)" r="75.5">
   <stop stop-color="#FFF" stop-opacity="0" offset="0"/>
   <stop stop-color="#FFF" stop-opacity="0.03921569" offset="0.9"/>
   <stop stop-color="#FFF" stop-opacity="0.17647059" offset="1"/>
  </radialGradient>
  <linearGradient id="linearGradient4142" y2="212.55" gradientUnits="userSpaceOnUse" x2="181.51" y1="46.446" x1="29.493">
   <stop stop-color="#FFF" stop-opacity="0.39215687" offset="0"/>
   <stop stop-color="#FFF" stop-opacity="0.05882353" offset="0.3"/>
   <stop stop-color="#FFF" stop-opacity="0.19607843" offset="0.5"/>
   <stop stop-color="#FFF" stop-opacity="0.05882353" offset="0.7"/>
   <stop stop-color="#FFF" stop-opacity="0.15686275" offset="1"/>
  </linearGradient>
  <linearGradient id="linearGradient3887" y2="226.54" xlink:href="#linearGradient3881" spreadMethod="reflect" gradientUnits="userSpaceOnUse" x2="174.05" y1="226.54" x1="127.57"/>
  <radialGradient id="radialGradient3962" xlink:href="#linearGradient3956" gradientUnits="userSpaceOnUse" cy="179.44" cx="60.271" gradientTransform="matrix(0.88596885,0,0,0.68521892,-24.027495,78.742754)" r="63.202"/>
  <clipPath id="clipPath3992" clipPathUnits="userSpaceOnUse">
   <path d="M17,175c-22.424-38.84,22.07-77.18,47-34,17.912-31.02,64.64,5.4,51.6,28,37.92-10.16,16.43,32.79,7.4,38-26.867,22.74-119.05,16.7-106-32z" fill="#FFF"/>
  </clipPath>
  <filter id="filter3996" color-interpolation-filters="sRGB">
   <feGaussianBlur stdDeviation="1.6814879"/>
  </filter>
  <radialGradient id="radialGradient4030" xlink:href="#linearGradient4024" gradientUnits="userSpaceOnUse" cy="146.18" cx="99.384" gradientTransform="matrix(0.78729139,0,0,0.60890063,-24.042921,111.8587)" r="63.202"/>
  <radialGradient id="radialGradient4038" xlink:href="#linearGradient3956" gradientUnits="userSpaceOnUse" cy="144.03" cx="198.93" gradientTransform="matrix(1.002145,0,0,0.93027303,-99.125745,66.638554)" r="39.529"/>
  <radialGradient id="radialGradient4042" xlink:href="#linearGradient4024" gradientUnits="userSpaceOnUse" cy="142.62" cx="216.68" gradientTransform="matrix(0.67066508,0,0,0.62256623,-37.238616,115.26993)" r="39.529"/>
  <clipPath id="clipPath4048" clipPathUnits="userSpaceOnUse">
   <path fill="#FFF" d="M184,168c-18.55-4.97-29.74,22.26-20,32,40.06,40.06,90.91-23.09,71-43-17.85-30.92-51-16.36-51,11z"/>
  </clipPath>
  <filter id="filter4056" color-interpolation-filters="sRGB">
   <feGaussianBlur stdDeviation="1.1435154"/>
  </filter>
  <clipPath id="clipPath4106" clipPathUnits="userSpaceOnUse">
   <path d="M181,129.5a75.5,82.5,0,1,1,-151,0,75.5,82.5,0,1,1,151,0z" fill-rule="evenodd" transform="matrix(0.99337748,0,0,0.90909099,23.198676,10.27271)" fill="#FFF"/>
  </clipPath>
  <clipPath id="clipPath4110" clipPathUnits="userSpaceOnUse">
   <path d="M181,129.5a75.5,82.5,0,1,1,-151,0,75.5,82.5,0,1,1,151,0z" fill-rule="evenodd" transform="matrix(0.99337748,0,0,0.90909099,23.198676,10.27271)" fill="#FFF"/>
  </clipPath>
  <filter id="filter4134" color-interpolation-filters="sRGB">
   <feGaussianBlur stdDeviation="1.681488"/>
  </filter>
  <filter id="filter4142" color-interpolation-filters="sRGB">
   <feGaussianBlur stdDeviation="1.1435154"/>
  </filter>
  <radialGradient id="radialGradient4156" xlink:href="#linearGradient4150" gradientUnits="userSpaceOnUse" cy="161.72" cx="144.4" gradientTransform="matrix(0.97056357,0,0,1.0605496,1.3855187,-11.380714)" r="75.5"/>
  <radialGradient id="radialGradient4160" xlink:href="#linearGradient4150" gradientUnits="userSpaceOnUse" cy="99.834" cx="68.768" gradientTransform="matrix(0.97056357,0,0,1.0605496,1.3855187,-11.380714)" r="75.5"/>
  <radialGradient id="radialGradient4182" gradientUnits="userSpaceOnUse" cy="129.5" cx="105.5" gradientTransform="matrix(1,0,0,1.0927152,0,-12.006623)" r="75.5">
   <stop stop-color="#FFF" stop-opacity="0.17647059" offset="0"/>
   <stop stop-color="#FFF" stop-opacity="0" offset="1"/>
  </radialGradient>
  <radialGradient id="radialGradient4198" gradientUnits="userSpaceOnUse" cy="157.02" cx="133.77" gradientTransform="matrix(3.1385248,0,0,3.4295134,-237.83215,-328.71425)" r="75.5">
   <stop stop-color="#00b0fa" stop-opacity="0" offset="0"/>
   <stop stop-color="#00b0fa" stop-opacity="0.01960784" offset="0.35"/>
   <stop stop-color="#00affa" stop-opacity="0.09803922" offset="1"/>
  </radialGradient>
  <radialGradient id="radialGradient4204" gradientUnits="userSpaceOnUse" cy="109.87" cx="85.658" gradientTransform="matrix(3.1385248,0,0,3.4295134,-237.83215,-328.71425)" r="75.5">
   <stop stop-color="#1bfa00" stop-opacity="0" offset="0"/>
   <stop stop-color="#1dfa00" stop-opacity="0" offset="0.35"/>
   <stop stop-color="#1dfa00" stop-opacity="0.05882353" offset="1"/>
  </radialGradient>
  <radialGradient id="radialGradient4227" gradientUnits="userSpaceOnUse" cy="75.507" cx="63.943" gradientTransform="matrix(1.2159092,0,0,1.3286425,-13.805971,-29.820729)" r="75.5">
   <stop stop-color="#0093fa" stop-opacity="0.11764706" offset="0"/>
   <stop stop-color="#FFF" stop-opacity="0" offset="1"/>
  </radialGradient>
  <radialGradient id="radialGradient4246" gradientUnits="userSpaceOnUse" cy="55.007" cx="32.013" gradientTransform="matrix(0.96712201,0,0,0.96851747,-2.9807171,102.21582)" r="75.5">
   <stop stop-color="#FFF" stop-opacity="0.09803922" offset="0"/>
   <stop stop-color="#FFF" stop-opacity="0" offset="1"/>
  </radialGradient>
  <linearGradient id="linearGradient4261" y2="237" xlink:href="#linearGradient4255" spreadMethod="reflect" gradientUnits="userSpaceOnUse" x2="73" y1="237" x1="55.114"/>
  <linearGradient id="linearGradient4293" y2="230.5" xlink:href="#linearGradient4255" spreadMethod="reflect" gradientUnits="userSpaceOnUse" x2="225" y1="230.5" x1="210.41"/>
  <linearGradient id="linearGradient4323" y2="212.47" gradientUnits="userSpaceOnUse" x2="54.721" y1="46.534" x1="54.721">
   <stop stop-color="#FFF" stop-opacity="0.19607843" offset="0"/>
   <stop stop-color="#FFF" stop-opacity="0.09803922" offset="1"/>
  </linearGradient>
  <radialGradient id="radialGradient4064" xlink:href="#linearGradient4058" gradientUnits="userSpaceOnUse" cy="176.39" cx="105.13" gradientTransform="matrix(1.4017206,0,0,1.5161469,-41.655372,-89.762932)" r="24.5"/>
  <radialGradient id="radialGradient4068" xlink:href="#linearGradient4058" gradientUnits="userSpaceOnUse" cy="174.79" cx="97.933" gradientTransform="matrix(1.0856486,0,0,1.174273,-9.2772723,-28.806597)" r="24.5"/>
  <filter id="filter4110" height="1.2307739" width="1.2496126" color-interpolation-filters="sRGB" y="-0.11538695" x="-0.12480629">
   <feGaussianBlur stdDeviation="2.5481284"/>
  </filter>
  <filter id="filter4114" height="1.2307988" width="1.2496396" color-interpolation-filters="sRGB" y="-0.11539945" x="-0.12481981">
   <feGaussianBlur stdDeviation="2.5484045"/>
  </filter>
  <radialGradient id="radialGradient4121" xlink:href="#linearGradient4058" gradientUnits="userSpaceOnUse" cy="178.05" cx="96.824" gradientTransform="matrix(1.4017206,0,0,1.5161469,-41.655372,-89.762932)" r="24.5"/>
  <filter id="filter4123" height="1.2311099" width="1.2499759" color-interpolation-filters="sRGB" y="-0.1155549" x="-0.12498795">
   <feGaussianBlur stdDeviation="2.5518374"/>
  </filter>
  <radialGradient id="radialGradient4165" gradientUnits="userSpaceOnUse" cy="125.75" cx="125.25" gradientTransform="matrix(1,0,0,0.96601942,0,4.2730583)" r="64.375">
   <stop stop-color="#FFF" stop-opacity="0" offset="0"/>
   <stop stop-color="#FFF" stop-opacity="0" offset="0.7"/>
   <stop stop-color="#FFF" stop-opacity="0.05882353" offset="1"/>
  </radialGradient>
  <filter id="filter4183" color-interpolation-filters="sRGB">
   <feGaussianBlur stdDeviation="1.8984375"/>
  </filter>
  <filter id="filter4258" height="1.8258812" width="1.85436" color-interpolation-filters="sRGB" y="-0.41294068" x="-0.42718002">
   <feGaussianBlur stdDeviation="5.1617584"/>
  </filter>
  <clipPath id="clipPath4323" clipPathUnits="userSpaceOnUse">
   <path fill="#FFF" d="M17,175c-22.424-38.84,22.07-77.18,47-34,17.912-31.02,64.64,5.4,51.6,28,37.92-10.16,16.43,32.79,7.4,38-26.867,22.74-119.05,16.7-106-32z"/>
  </clipPath>
  <clipPath id="clipPath4330" clipPathUnits="userSpaceOnUse">
   <path fill="#FFF" d="M70.845,160.54c-15.671-5.07-25.127,22.68-16.897,32.61,33.844,40.83,76.802-23.53,59.982-43.82-15.079-31.51-43.085-16.68-43.085,11.21z"/>
  </clipPath>
  <linearGradient id="linearGradient4342" y2="212.42" gradientUnits="userSpaceOnUse" x2="52.052" y1="46.577" x1="52.052">
   <stop stop-color="#FFF" stop-opacity="0.19607843" offset="0"/>
   <stop stop-color="#FFF" stop-opacity="0.11764706" offset="1"/>
  </linearGradient>
 </defs>
 <metadata>
  <rdf:RDF>
   <cc:Work rdf:about="">
    <dc:format>image/svg+xml</dc:format>
    <dc:type rdf:resource="http://purl.org/dc/dcmitype/StillImage"/>
    <dc:title>Lookit icon - 128px</dc:title>
    <dc:creator>
     <cc:Agent>
      <dc:title>Harenome Ranaivoarivony Razanajato</dc:title>
     </cc:Agent>
    </dc:creator>
    <cc:license rdf:resource="http://www.gnu.org/licenses/gpl.html"/>
   </cc:Work>
  </rdf:RDF>
 </metadata>
 <g transform="translate(0,-128)">
  <path d="M174,226.54a46.433,12.456,0,1,1,-92.866,0,46.433,12.456,0,1,1,92.866,0z" fill-rule="evenodd" transform="matrix(0.72146937,0,0,0.36127761,-28.035668,158.15465)" fill="url(#linearGradient3887)"/>
  <path d="M174,226.54a46.433,12.456,0,1,1,-92.866,0,46.433,12.456,0,1,1,92.866,0z" fill-rule="evenodd" transform="matrix(0.71070117,0,0,0.32113566,-26.662001,167.24858)" fill="url(#linearGradient3887)"/>
  <path d="M174,226.54a46.433,12.456,0,1,1,-92.866,0,46.433,12.456,0,1,1,92.866,0z" fill-rule="evenodd" transform="matrix(0.69993297,0,0,0.2809937,-25.288334,176.34251)" fill="url(#linearGradient3887)"/>
  <path d="M174,226.54a46.433,12.456,0,1,1,-92.866,0,46.433,12.456,0,1,1,92.866,0z" fill-rule="evenodd" transform="matrix(0.68916477,0,0,0.24085174,-23.914667,185.43643)" fill="url(#linearGradient3887)"/>
  <path d="M174,226.54a46.433,12.456,0,1,1,-92.866,0,46.433,12.456,0,1,1,92.866,0z" fill-rule="evenodd" transform="matrix(0.67839657,0,0,0.20070979,-22.541001,194.53036)" fill="url(#linearGradient3887)"/>
  <path d="M174,226.54a46.433,12.456,0,1,1,-92.866,0,46.433,12.456,0,1,1,92.866,0z" fill-rule="evenodd" transform="matrix(0.66762837,0,0,0.16056783,-21.167334,203.62429)" fill="url(#linearGradient3887)"/>
  <path d="M174,226.54a46.433,12.456,0,1,1,-92.866,0,46.433,12.456,0,1,1,92.866,0z" fill-rule="evenodd" transform="matrix(0.48456898,0,0,0.18063881,3.1849994,198.57732)" fill="url(#linearGradient3887)"/>
  <path d="M174,226.54a46.433,12.456,0,1,1,-92.866,0,46.433,12.456,0,1,1,92.866,0z" fill-rule="evenodd" transform="matrix(0.47380078,0,0,0.16056783,3.5586661,203.12429)" fill="url(#linearGradient3887)"/>
  <path d="M174,226.54a46.433,12.456,0,1,1,-92.866,0,46.433,12.456,0,1,1,92.866,0z" fill-rule="evenodd" transform="matrix(0.46303258,0,0,0.14049685,4.9323328,207.67125)" fill="url(#linearGradient3887)"/>
  <path d="M174,226.54a46.433,12.456,0,1,1,-92.866,0,46.433,12.456,0,1,1,92.866,0z" fill-rule="evenodd" transform="matrix(0.45226438,0,0,0.12042587,6.3059996,212.21822)" fill="url(#linearGradient3887)"/>
  <path d="M174,226.54a46.433,12.456,0,1,1,-92.866,0,46.433,12.456,0,1,1,92.866,0z" fill-rule="evenodd" transform="matrix(0.44149618,0,0,0.10035489,7.6796663,216.76518)" fill="url(#linearGradient3887)"/>
  <path d="M174,226.54a46.433,12.456,0,1,1,-92.866,0,46.433,12.456,0,1,1,92.866,0z" fill-rule="evenodd" transform="matrix(0.43072798,0,0,0.08028391,9.053333,221.31215)" fill="url(#linearGradient3887)"/>
  <path d="M181,129.5a75.5,82.5,0,1,1,-151,0,75.5,82.5,0,1,1,151,0z" fill-rule="evenodd" transform="matrix(0.63576159,0,0,0.58181818,-3.0728477,116.65455)" fill="url(#radialGradient3931)"/>
  <path d="M181,129.5a75.5,82.5,0,1,1,-151,0,75.5,82.5,0,1,1,151,0z" transform="matrix(0.62913907,0,0,0.57575758,-2.3741721,117.4394)" stroke="url(#linearGradient4342)" stroke-dasharray="none" stroke-miterlimit="4" stroke-width="1.66152477" fill="none"/>
  <path d="M181,129.5a75.5,82.5,0,1,1,-151,0,75.5,82.5,0,1,1,151,0z" fill-rule="evenodd" transform="matrix(0.63576159,0,0,0.58181818,-3.0728477,116.65455)" fill="url(#linearGradient3941)"/>
  <path d="M181,129.5a75.5,82.5,0,1,1,-151,0,75.5,82.5,0,1,1,151,0z" fill-rule="evenodd" transform="matrix(0.63576159,0,0,0.58181818,-3.0728477,116.65455)" fill="url(#linearGradient3957)"/>
  <path d="M181,129.5a75.5,82.5,0,1,1,-151,0,75.5,82.5,0,1,1,151,0z" fill-rule="evenodd" transform="matrix(0.63576159,0,0,0.58181818,-3.0728477,116.65455)" fill="url(#radialGradient3979)"/>
  <path d="M181,129.5a75.5,82.5,0,1,1,-151,0,75.5,82.5,0,1,1,151,0z" transform="matrix(0.57615894,0,0,0.52727273,3.2152318,123.71818)" stroke="url(#linearGradient4323)" stroke-dasharray="none" stroke-miterlimit="4" stroke-width="1.81430888" fill="none"/>
  <path d="M181,129.5a75.5,82.5,0,1,1,-151,0,75.5,82.5,0,1,1,151,0z" fill-rule="evenodd" transform="matrix(0.56953642,0,0,0.52121212,3.9139074,124.50303)" fill="url(#linearGradient3815)"/>
  <path d="M181,129.5a75.5,82.5,0,1,1,-151,0,75.5,82.5,0,1,1,151,0z" fill-rule="evenodd" transform="matrix(0.56953642,0,0,0.52121212,3.9139074,124.50303)" fill="url(#radialGradient4227)"/>
  <path d="M181,129.5a75.5,82.5,0,1,1,-151,0,75.5,82.5,0,1,1,151,0z" transform="matrix(0.54966887,0,0,0.5030303,6.0099339,126.85758)" stroke="url(#radialGradient3871)" stroke-dasharray="none" stroke-miterlimit="4" stroke-width="1.90174532" fill="none"/>
  <path d="M181,129.5a75.5,82.5,0,1,1,-151,0,75.5,82.5,0,1,1,151,0z" transform="matrix(0.53642384,0,0,0.49090909,7.4072848,128.42727)" stroke="url(#radialGradient3903)" stroke-dasharray="none" stroke-miterlimit="4" stroke-width="1.94870198" fill="none"/>
  <path d="M181,129.5a75.5,82.5,0,1,1,-151,0,75.5,82.5,0,1,1,151,0z" transform="matrix(0.52317881,0,0,0.47878788,8.8046357,129.99697)" stroke="url(#radialGradient3879)" stroke-dasharray="none" stroke-miterlimit="4" stroke-width="1.99803627" fill="none"/>
  <path d="M181,129.5a75.5,82.5,0,1,1,-151,0,75.5,82.5,0,1,1,151,0z" transform="matrix(0.50993377,0,0,0.46666667,10.201987,131.56667)" stroke="url(#radialGradient3911)" stroke-dasharray="none" stroke-miterlimit="4" stroke-width="2.0499332" fill="none"/>
  <path d="M181,129.5a75.5,82.5,0,1,1,-151,0,75.5,82.5,0,1,1,151,0z" fill-rule="evenodd" transform="matrix(0.56953642,0,0,0.52121212,3.9139074,124.50303)" fill="url(#linearGradient3991)"/>
  <path d="M181,129.5a75.5,82.5,0,1,1,-151,0,75.5,82.5,0,1,1,151,0z" fill-rule="evenodd" transform="matrix(0.50331126,0,0,0.46060606,10.900662,132.35152)" fill="url(#radialGradient3967)"/>
  <path d="M181,129.5a75.5,82.5,0,1,1,-151,0,75.5,82.5,0,1,1,151,0z" fill-rule="evenodd" transform="matrix(0.39735099,0,0,0.36363636,22.07947,144.90909)" fill="url(#linearGradient4069)"/>
  <path d="M181,129.5a75.5,82.5,0,1,1,-151,0,75.5,82.5,0,1,1,151,0z" fill-rule="evenodd" transform="matrix(0.38410596,0,0,0.35151515,23.476821,146.47879)" fill="url(#radialGradient4071)"/>
  <path d="M181,129.5a75.5,82.5,0,1,1,-151,0,75.5,82.5,0,1,1,151,0z" fill-rule="evenodd" transform="matrix(0.10596026,0,0,0.0969697,52.821192,179.44242)" fill="url(#linearGradient4089)"/>
  <path d="M181,129.5a75.5,82.5,0,1,1,-151,0,75.5,82.5,0,1,1,151,0z" fill-rule="evenodd" transform="matrix(0.09271523,0,0,0.08484848,54.218543,181.01212)" fill="url(#radialGradient4097)"/>
  <path d="M181,129.5a75.5,82.5,0,1,1,-151,0,75.5,82.5,0,1,1,151,0z" fill-rule="evenodd" transform="matrix(0.0397351,0,0,0.03636364,59.807947,187.29091)" fill="url(#radialGradient4182)"/>
  <path d="M181,129.5a75.5,82.5,0,1,1,-151,0,75.5,82.5,0,1,1,151,0z" fill-rule="evenodd" transform="matrix(0.06622517,0,0,0.06060606,57.013245,184.15152)" fill="url(#radialGradient4156)"/>
  <path d="M181,129.5a75.5,82.5,0,1,1,-151,0,75.5,82.5,0,1,1,151,0z" fill-rule="evenodd" transform="matrix(0.06622517,0,0,0.06060606,57.013245,184.15152)" fill="url(#radialGradient4160)"/>
  <path d="M181,129.5a75.5,82.5,0,1,1,-151,0,75.5,82.5,0,1,1,151,0z" fill-rule="evenodd" transform="matrix(0.49006623,0,0,0.44848485,12.298013,133.92121)" fill="url(#radialGradient4110)"/>
  <path d="M181,129.5a75.5,82.5,0,1,1,-151,0,75.5,82.5,0,1,1,151,0z" fill-rule="evenodd" transform="matrix(0.49006623,0,0,0.44848485,12.298013,133.92121)" fill="url(#radialGradient4120)"/>
  <path d="M181,129.5a75.5,82.5,0,1,1,-151,0,75.5,82.5,0,1,1,151,0z" fill-rule="evenodd" transform="matrix(0.49006623,0,0,0.44848485,12.298013,133.92121)" fill="url(#radialGradient4130)"/>
  <path d="M181,129.5a75.5,82.5,0,1,1,-151,0,75.5,82.5,0,1,1,151,0z" transform="matrix(0.48344371,0,0,0.44242424,12.996689,134.70606)" stroke="url(#linearGradient4142)" stroke-dasharray="none" stroke-miterlimit="4" stroke-width="2.16225839" fill="none"/>
  <path d="M181,129.5a75.5,82.5,0,1,1,-151,0,75.5,82.5,0,1,1,151,0z" fill-rule="evenodd" transform="matrix(0.49006623,0,0,0.44848485,12.298013,133.92121)" fill="url(#radialGradient4198)"/>
  <path d="M181,129.5a75.5,82.5,0,1,1,-151,0,75.5,82.5,0,1,1,151,0z" fill-rule="evenodd" transform="matrix(0.49006623,0,0,0.44848485,12.298013,133.92121)" fill="url(#radialGradient4204)"/>
  <path fill-rule="evenodd" fill="url(#radialGradient4246)" d="M63.753,155c-20.298,0-36.753,16.48-36.753,36.81,0,9.02,3.241,17.29,8.622,23.69,7.123-21.46,27.337-36.94,51.163-36.94,4.024,0,7.942,0.45,11.715,1.28-4.96-14.45-18.633-24.84-34.747-24.84z"/>
  <path d="M106.25,63.562c-3.9,1.318-7.638,2.999-11.188,4.969l9.658,17.469c2.51-1.398,5.17-2.536,7.94-3.469l-6.41-18.969zm-20.094,10.876c-8.402,6.573-15.219,15.072-19.781,24.843l18.094,8.439c3.221-6.9,8.064-12.89,14-17.532l-12.313-15.75zm-21.656,29.222c-1.645,4.28-2.874,8.78-3.625,13.43l19.75,3.22c0.53-3.29,1.398-6.46,2.563-9.5l-18.688-7.15zm107,44.65c-1.97,4.22-4.54,8.1-7.59,11.53l14.97,13.28c4.33-4.87,7.95-10.39,10.74-16.37l-18.12-8.44zm-9.56,13.63c-3.32,3.31-7.12,6.17-11.28,8.4l9.43,17.6c5.91-3.17,11.31-7.15,16-11.85l-14.15-14.15z" fill-rule="evenodd" transform="matrix(0.49045123,0,0,0.49028776,2.6678143,128.87949)" filter="url(#filter4183)" fill="url(#radialGradient4165)"/>
  <path d="M118,108a14.5,15,0,1,1,-29,0,14.5,15,0,1,1,29,0z" fill-rule="evenodd" fill-opacity="0.05882353" transform="matrix(0.84560555,0,0,0.81714624,-38.259494,87.695325)" filter="url(#filter4258)" fill="#FFF"/>
  <path d="M73,237a18,10,0,1,1,-36,0,18,10,0,1,1,36,0z" fill-rule="evenodd" transform="matrix(0.95365515,0,0,0.24514388,-19.375243,188.44946)" fill="url(#linearGradient4261)"/>
  <path d="M73,237a18,10,0,1,1,-36,0,18,10,0,1,1,36,0z" fill-rule="evenodd" transform="matrix(0.92640788,0,0,0.22062949,-17.876642,194.01422)" fill="url(#linearGradient4261)"/>
  <path d="M73,237a18,10,0,1,1,-36,0,18,10,0,1,1,36,0z" fill-rule="evenodd" transform="matrix(0.89916057,0,0,0.19611511,-16.378041,199.57899)" fill="url(#linearGradient4261)"/>
  <path d="M73,237a18,10,0,1,1,-36,0,18,10,0,1,1,36,0z" fill-rule="evenodd" transform="matrix(0.87191331,0,0,0.17160072,-14.879441,205.14375)" fill="url(#linearGradient4261)"/>
  <path d="M73,237a18,10,0,1,1,-36,0,18,10,0,1,1,36,0z" fill-rule="evenodd" transform="matrix(0.84466599,0,0,0.14708633,-13.380839,210.70852)" fill="url(#linearGradient4261)"/>
  <path d="M73,237a18,10,0,1,1,-36,0,18,10,0,1,1,36,0z" fill-rule="evenodd" transform="matrix(0.81741873,0,0,0.12257194,-11.882239,216.27329)" fill="url(#linearGradient4261)"/>
  <path d="M225,230.5a14.5,3.5,0,1,1,-29,0,14.5,3.5,0,1,1,29,0z" fill-rule="evenodd" transform="matrix(0.84560545,0,0,0.70041108,-73.31828,81.181502)" fill="url(#linearGradient4293)"/>
  <path d="M225,230.5a14.5,3.5,0,1,1,-29,0,14.5,3.5,0,1,1,29,0z" fill-rule="evenodd" transform="matrix(0.81178124,0,0,0.63036999,-66.198282,97.080834)" fill="url(#linearGradient4293)"/>
  <path d="M225,230.5a14.5,3.5,0,1,1,-29,0,14.5,3.5,0,1,1,29,0z" fill-rule="evenodd" transform="matrix(0.77795703,0,0,0.56032885,-59.078283,112.98016)" fill="url(#linearGradient4293)"/>
  <path d="M225,230.5a14.5,3.5,0,1,1,-29,0,14.5,3.5,0,1,1,29,0z" fill-rule="evenodd" transform="matrix(0.74413281,0,0,0.49028776,-51.958285,128.87949)" fill="url(#linearGradient4293)"/>
  <path d="M225,230.5a14.5,3.5,0,1,1,-29,0,14.5,3.5,0,1,1,29,0z" fill-rule="evenodd" transform="matrix(0.7103086,0,0,0.42024666,-44.838287,144.77883)" fill="url(#linearGradient4293)"/>
  <path d="M225,230.5a14.5,3.5,0,1,1,-29,0,14.5,3.5,0,1,1,29,0z" fill-rule="evenodd" transform="matrix(0.67648438,0,0,0.35020554,-37.718292,160.67816)" fill="url(#linearGradient4293)"/>
  <path opacity="0.03999999" d="M27,170c-22.424-38.84,22.07-77.18,47-34,17.912-31.02,64.64,5.4,51.6,28,37.92-10.16,16.43,32.79,7.4,38-26.87,22.74-119.05,16.7-106-32z" clip-path="url(#clipPath4106)" transform="matrix(0.49045123,0,0,0.49028776,2.6678143,128.87949)" filter="url(#filter4134)" fill="#FFF"/>
  <path opacity="0.03999999" d="M179,163c-18.55-4.97-29.74,22.26-20,32,40.06,40.06,90.91-23.09,71-43-17.85-30.92-51-16.36-51,11z" clip-path="url(#clipPath4110)" transform="matrix(0.49045123,0,0,0.49028776,2.6678143,128.87949)" filter="url(#filter4142)" fill="#FFF"/>
  <path fill="url(#radialGradient3962)" d="M11.005,214.68c-10.997-19.04,10.825-37.84,23.051-16.67,8.786-15.21,31.705,2.65,25.306,13.73,18.599-4.98,8.061,16.07,3.631,18.63-13.177,11.15-58.388,8.19-51.988-15.69z"/>
  <path fill="url(#radialGradient4038)" d="M92.911,211.25c-9.097-2.44-14.587,10.91-9.809,15.69,19.648,19.64,44.588-11.32,34.818-21.09-8.75-15.15-25.009-8.02-25.009,5.4z"/>
  <path d="M11.005,214.68c-10.997-19.04,10.825-37.84,23.051-16.67,8.786-15.21,31.705,2.65,25.306,13.73,18.599-4.98,8.061,16.07,3.631,18.63-13.177,11.15-58.388,8.19-51.988-15.69z" fill="url(#radialGradient4030)"/>
  <path d="M17,175c-22.424-38.84,22.07-77.18,47-34,17.912-31.02,64.64,5.4,51.6,28,37.92-10.16,16.43,32.79,7.4,38-26.867,22.74-119.05,16.7-106-32z" stroke-opacity="0.58823529" clip-path="url(#clipPath3992)" transform="matrix(0.49045123,0,0,0.49028776,2.6678143,128.87949)" filter="url(#filter3996)" stroke="#FFF" stroke-dasharray="none" stroke-miterlimit="4" stroke-width="4.07855701" fill="none"/>
  <path d="M92.911,211.25c-9.097-2.44-14.587,10.91-9.809,15.69,19.648,19.64,44.588-11.32,34.818-21.09-8.75-15.15-25.009-8.02-25.009,5.4z" fill="url(#radialGradient4042)"/>
  <path d="M184,168c-18.55-4.97-29.74,22.26-20,32,40.06,40.06,90.91-23.09,71-43-17.85-30.92-51-16.36-51,11z" stroke-opacity="0.58823529" clip-path="url(#clipPath4048)" transform="matrix(0.49045123,0,0,0.49028776,2.6678143,128.87949)" filter="url(#filter4056)" stroke="#FFF" stroke-dasharray="none" stroke-miterlimit="4" stroke-width="4.07855701" fill="none"/>
  <g fill-rule="evenodd" transform="matrix(0.49045123,0,0,0.49028776,2.6678143,128.87949)" clip-path="url(#clipPath4323)">
   <path d="M119,158.5a24.5,26.5,0,1,1,-49,0,24.5,26.5,0,1,1,49,0z" transform="matrix(1.2244898,0,0,1.1132075,-27.714283,-16.943387)" filter="url(#filter4110)" fill="url(#radialGradient4064)"/>
   <path d="M119,158.5a24.5,26.5,0,1,1,-49,0,24.5,26.5,0,1,1,49,0z" transform="matrix(1.1836735,0,0,1.1320755,-76.857145,-28.433962)" filter="url(#filter4114)" fill="url(#radialGradient4068)"/>
  </g>
  <path d="M119,158.5a24.5,26.5,0,1,1,-49,0,24.5,26.5,0,1,1,49,0z" clip-path="url(#clipPath4330)" fill-rule="evenodd" transform="matrix(0.58053412,0,0,0.48103705,51.782999,134.02289)" filter="url(#filter4123)" fill="url(#radialGradient4121)"/>
 </g>
</svg>
