<?xml version="1.0" encoding="UTF-8" standalone="no"?>
<!-- Created with Inkscape (http://www.inkscape.org/) -->

<svg
   xmlns:dc="http://purl.org/dc/elements/1.1/"
   xmlns:cc="http://creativecommons.org/ns#"
   xmlns:rdf="http://www.w3.org/1999/02/22-rdf-syntax-ns#"
   xmlns:svg="http://www.w3.org/2000/svg"
   xmlns="http://www.w3.org/2000/svg"
   xmlns:sodipodi="http://sodipodi.sourceforge.net/DTD/sodipodi-0.dtd"
   xmlns:inkscape="http://www.inkscape.org/namespaces/inkscape"
   width="64px"
   height="64px"
   id="svg2888"
   version="1.1"
   inkscape:version="0.47 r22583"
   sodipodi:docname="New document 1">
  <defs
     id="defs2890">
    <inkscape:perspective
       sodipodi:type="inkscape:persp3d"
       inkscape:vp_x="0 : 32 : 1"
       inkscape:vp_y="0 : 1000 : 0"
       inkscape:vp_z="64 : 32 : 1"
       inkscape:persp3d-origin="32 : 21.333333 : 1"
       id="perspective2896" />
  </defs>
  <sodipodi:namedview
     id="base"
     pagecolor="#ffffff"
     bordercolor="#666666"
     borderopacity="1.0"
     inkscape:pageopacity="0.0"
     inkscape:pageshadow="2"
     inkscape:zoom="10.765625"
     inkscape:cx="43.657475"
     inkscape:cy="32"
     inkscape:current-layer="layer1"
     showgrid="true"
     inkscape:document-units="px"
     inkscape:grid-bbox="true"
     inkscape:window-width="1920"
     inkscape:window-height="957"
     inkscape:window-x="0"
     inkscape:window-y="24"
     inkscape:window-maximized="1" />
  <metadata
     id="metadata2893">
    <rdf:RDF>
      <cc:Work
         rdf:about="">
        <dc:format>image/svg+xml</dc:format>
        <dc:type
           rdf:resource="http://purl.org/dc/dcmitype/StillImage" />
        <dc:title></dc:title>
      </cc:Work>
    </rdf:RDF>
  </metadata>
  <g
     id="layer1"
     inkscape:label="Layer 1"
     inkscape:groupmode="layer">
    <path
       style="fill:#000000"
       d="M 12.375 9.625 C 10.159 9.625 8.375 11.409 8.375 13.625 L 8.375 15.625 C 6.159 15.625 4.375 17.409 4.375 19.625 L 4.375 49.625 C 4.375 51.841 6.159 53.625 8.375 53.625 L 56.375 53.625 C 58.591 53.625 60.375 51.841 60.375 49.625 L 60.375 19.625 C 60.375 17.409 58.591 15.625 56.375 15.625 L 28.375 15.625 L 28.375 13.625 C 28.375 11.409 26.591 9.625 24.375 9.625 L 12.375 9.625 z M 12.375 12.625 L 24.375 12.625 C 24.929 12.625 25.375 13.071 25.375 13.625 L 25.375 17.625 C 25.375 18.179 24.929 18.625 24.375 18.625 L 12.375 18.625 C 11.821 18.625 11.375 18.179 11.375 17.625 L 11.375 13.625 C 11.375 13.071 11.821 12.625 12.375 12.625 z M 41.375 22.625 C 48.002417 22.625 53.375 27.997583 53.375 34.625 C 53.375 41.252417 48.002417 46.625 41.375 46.625 C 34.747583 46.625 29.375 41.252417 29.375 34.625 C 29.375 27.997583 34.747583 22.625 41.375 22.625 z "
       id="rect2898" />
  </g>
</svg>
