<?xml version="1.0" encoding="UTF-8" standalone="no"?>
<!-- Created with Inkscape (http://www.inkscape.org/) -->
<svg xmlns:rdf="http://www.w3.org/1999/02/22-rdf-syntax-ns#" xmlns="http://www.w3.org/2000/svg" height="48" width="48" version="1.1" xmlns:cc="http://creativecommons.org/ns#" xmlns:xlink="http://www.w3.org/1999/xlink" xmlns:dc="http://purl.org/dc/elements/1.1/">
 <title>Lookit icon - 48px</title>
 <defs>
  <linearGradient id="linearGradient4056">
   <stop stop-color="#ebebeb" offset="0"/>
   <stop stop-color="#d7d7d7" offset="1"/>
  </linearGradient>
  <linearGradient id="linearGradient4058">
   <stop stop-color="#000" stop-opacity="0.05098039" offset="0"/>
   <stop stop-color="#000" stop-opacity="0" offset="1"/>
  </linearGradient>
  <linearGradient id="linearGradient4255">
   <stop stop-color="#000" stop-opacity="0.01568628" offset="0"/>
   <stop stop-color="#000" stop-opacity="0.00784314" offset="0.8"/>
   <stop stop-color="#000" stop-opacity="0" offset="1"/>
  </linearGradient>
  <linearGradient id="linearGradient4150">
   <stop stop-color="#FFF" stop-opacity="0.13725491" offset="0"/>
   <stop stop-color="#FFF" stop-opacity="0" offset="1"/>
  </linearGradient>
  <linearGradient id="linearGradient4024">
   <stop stop-color="#FFF" stop-opacity="0" offset="0"/>
   <stop stop-color="#d9dddf" stop-opacity="0.19607843" offset="1"/>
  </linearGradient>
  <linearGradient id="linearGradient3956">
   <stop stop-color="#FFF" offset="0"/>
   <stop stop-color="#fafafa" offset="0.4"/>
   <stop stop-color="#d8e0e0" offset="1"/>
  </linearGradient>
  <linearGradient id="linearGradient3881">
   <stop stop-color="#000" stop-opacity="0.02745098" offset="0"/>
   <stop stop-color="#000" stop-opacity="0.01176471" offset="0.85"/>
   <stop stop-color="#000" stop-opacity="0" offset="1"/>
  </linearGradient>
  <linearGradient id="linearGradient4104">
   <stop stop-color="#FFF" stop-opacity="0.11764706" offset="0"/>
   <stop stop-color="#FFF" stop-opacity="0" offset="0.5"/>
   <stop stop-color="#FFF" stop-opacity="0" offset="1"/>
  </linearGradient>
  <linearGradient id="linearGradient3815" y2="212" gradientUnits="userSpaceOnUse" x2="158.9" y1="47" x1="158.9">
   <stop stop-color="#373737" offset="0"/>
   <stop stop-color="#191919" offset="1"/>
  </linearGradient>
  <radialGradient id="radialGradient3903" gradientUnits="userSpaceOnUse" cy="207.25" cx="183.21" gradientTransform="matrix(2.0470128,-7.6327576e-8,6.9815798e-8,2.2356649,-191.82071,-248.92411)" r="75.962">
   <stop stop-color="#FFF" stop-opacity="0.19607843" offset="0"/>
   <stop stop-color="#FFF" stop-opacity="0.13725491" offset="1"/>
  </radialGradient>
  <radialGradient id="radialGradient3931" gradientUnits="userSpaceOnUse" cy="159.55" cx="135.55" gradientTransform="matrix(0.99999984,0,0,1.0927147,-30.045895,-44.838189)" r="75.5">
   <stop stop-color="#000" offset="0"/>
   <stop stop-color="#cdcdcd" offset="0.85"/>
   <stop stop-color="#bebebe" offset="1"/>
  </radialGradient>
  <linearGradient id="linearGradient3941" y2="47" gradientUnits="userSpaceOnUse" x2="181" y1="212" x1="30">
   <stop stop-color="#000" stop-opacity="0" offset="0"/>
   <stop stop-color="#e1e1e1" stop-opacity="0.17647059" offset="0.35"/>
   <stop stop-color="#FFF" stop-opacity="0.29411766" offset="0.55"/>
   <stop stop-color="#e1e1e1" stop-opacity="0.09803922" offset="0.75"/>
   <stop stop-color="#000" stop-opacity="0" offset="1"/>
  </linearGradient>
  <linearGradient id="linearGradient3957" y2="47" gradientUnits="userSpaceOnUse" x2="30" y1="212" x1="181">
   <stop stop-color="#000" stop-opacity="0.84313726" offset="0"/>
   <stop stop-color="#646464" stop-opacity="0" offset="0.75"/>
   <stop stop-color="#FFF" stop-opacity="0.82352942" offset="1"/>
  </linearGradient>
  <radialGradient id="radialGradient3967" gradientUnits="userSpaceOnUse" cy="129.5" cx="105.5" gradientTransform="matrix(1,0,0,1.0927152,0,-12.006623)" r="75.5">
   <stop stop-color="#3c3c3c" offset="0"/>
   <stop stop-color="#323232" offset="1"/>
  </radialGradient>
  <linearGradient id="linearGradient3991" y2="47" gradientUnits="userSpaceOnUse" x2="30" y1="212" x1="181">
   <stop stop-color="#000" stop-opacity="0" offset="0"/>
   <stop stop-color="#FFF" stop-opacity="0" offset="0.3"/>
   <stop stop-color="#FFF" stop-opacity="0.11764706" offset="0.55"/>
   <stop stop-color="#FFF" stop-opacity="0" offset="0.8"/>
   <stop stop-color="#000" stop-opacity="0" offset="1"/>
  </linearGradient>
  <linearGradient id="linearGradient4069" y2="209.34" gradientUnits="userSpaceOnUse" x2="47.166" y1="45.067" x1="47.166">
   <stop stop-color="#373737" offset="0"/>
   <stop stop-color="#3c3c3c" offset="1"/>
  </linearGradient>
  <radialGradient id="radialGradient4071" gradientUnits="userSpaceOnUse" cy="129.5" cx="105.5" gradientTransform="matrix(1,0,0,1.0927152,0,-12.006623)" r="75.5">
   <stop stop-color="#2d2d2d" offset="0"/>
   <stop stop-color="#232323" offset="0.75"/>
   <stop stop-color="#1e1e1e" offset="1"/>
  </radialGradient>
  <linearGradient id="linearGradient4089" y2="212" gradientUnits="userSpaceOnUse" x2="181" y1="47" x1="181">
   <stop stop-color="#282828" offset="0"/>
   <stop stop-color="#323232" offset="1"/>
  </linearGradient>
  <radialGradient id="radialGradient4097" gradientUnits="userSpaceOnUse" cy="129.5" cx="105.5" gradientTransform="matrix(1,0,0,1.0927152,0,-12.006623)" r="75.5">
   <stop stop-color="#232323" offset="0"/>
   <stop stop-color="#191919" offset="1"/>
  </radialGradient>
  <radialGradient id="radialGradient4110" xlink:href="#linearGradient4104" gradientUnits="userSpaceOnUse" cy="184.75" cx="160.08" gradientTransform="matrix(1.4571666,0,0,1.5922681,-84.125913,-115.92156)" r="75.5"/>
  <radialGradient id="radialGradient4120" xlink:href="#linearGradient4104" gradientUnits="userSpaceOnUse" cy="112.68" cx="88.683" gradientTransform="matrix(1.4571666,0,0,1.5922681,-84.125913,-115.92156)" r="75.5"/>
  <radialGradient id="radialGradient4130" gradientUnits="userSpaceOnUse" cy="129.5" cx="105.5" gradientTransform="matrix(1,0,0,1.0927152,0,-12.006623)" r="75.5">
   <stop stop-color="#FFF" stop-opacity="0" offset="0"/>
   <stop stop-color="#FFF" stop-opacity="0.03921569" offset="0.9"/>
   <stop stop-color="#FFF" stop-opacity="0.17647059" offset="1"/>
  </radialGradient>
  <linearGradient id="linearGradient4142" y2="212.55" gradientUnits="userSpaceOnUse" x2="181.51" y1="46.446" x1="29.493">
   <stop stop-color="#FFF" stop-opacity="0.39215687" offset="0"/>
   <stop stop-color="#FFF" stop-opacity="0.05882353" offset="0.3"/>
   <stop stop-color="#FFF" stop-opacity="0.19607843" offset="0.5"/>
   <stop stop-color="#FFF" stop-opacity="0.05882353" offset="0.7"/>
   <stop stop-color="#FFF" stop-opacity="0.15686275" offset="1"/>
  </linearGradient>
  <linearGradient id="linearGradient3887" y2="226.54" xlink:href="#linearGradient3881" spreadMethod="reflect" gradientUnits="userSpaceOnUse" x2="174.05" y1="226.54" x1="127.57"/>
  <radialGradient id="radialGradient3962" xlink:href="#linearGradient3956" gradientUnits="userSpaceOnUse" cy="179.44" cx="60.271" gradientTransform="matrix(0.32458766,0,0,0.25071817,-7.2535618,189.51837)" r="63.202"/>
  <radialGradient id="radialGradient4030" xlink:href="#linearGradient4024" gradientUnits="userSpaceOnUse" cy="146.18" cx="99.384" gradientTransform="matrix(0.28843573,0,0,0.22279368,-7.2592135,201.63533)" r="63.202"/>
  <radialGradient id="radialGradient4038" xlink:href="#linearGradient3956" gradientUnits="userSpaceOnUse" cy="144.03" cx="198.93" gradientTransform="matrix(0.3671505,0,0,0.34038223,-34.766907,185.0895)" r="39.529"/>
  <radialGradient id="radialGradient4042" xlink:href="#linearGradient4024" gradientUnits="userSpaceOnUse" cy="142.62" cx="216.68" gradientTransform="matrix(0.24570798,0,0,0.22779386,-12.09365,202.88348)" r="39.529"/>
  <radialGradient id="radialGradient4156" xlink:href="#linearGradient4150" gradientUnits="userSpaceOnUse" cy="161.72" cx="144.4" gradientTransform="matrix(0.97056357,0,0,1.0605496,1.3855187,-11.380714)" r="75.5"/>
  <radialGradient id="radialGradient4160" xlink:href="#linearGradient4150" gradientUnits="userSpaceOnUse" cy="99.834" cx="68.768" gradientTransform="matrix(0.97056357,0,0,1.0605496,1.3855187,-11.380714)" r="75.5"/>
  <radialGradient id="radialGradient4182" gradientUnits="userSpaceOnUse" cy="129.5" cx="105.5" gradientTransform="matrix(1,0,0,1.0927152,0,-12.006623)" r="75.5">
   <stop stop-color="#FFF" stop-opacity="0.17647059" offset="0"/>
   <stop stop-color="#FFF" stop-opacity="0" offset="1"/>
  </radialGradient>
  <radialGradient id="radialGradient4198" gradientUnits="userSpaceOnUse" cy="157.02" cx="133.77" gradientTransform="matrix(3.1385248,0,0,3.4295134,-237.83215,-328.71425)" r="75.5">
   <stop stop-color="#00b0fa" stop-opacity="0" offset="0"/>
   <stop stop-color="#00b0fa" stop-opacity="0.01960784" offset="0.35"/>
   <stop stop-color="#00affa" stop-opacity="0.09803922" offset="1"/>
  </radialGradient>
  <radialGradient id="radialGradient4204" gradientUnits="userSpaceOnUse" cy="109.87" cx="85.658" gradientTransform="matrix(3.1385248,0,0,3.4295134,-237.83215,-328.71425)" r="75.5">
   <stop stop-color="#1bfa00" stop-opacity="0" offset="0"/>
   <stop stop-color="#1dfa00" stop-opacity="0" offset="0.35"/>
   <stop stop-color="#1dfa00" stop-opacity="0.05882353" offset="1"/>
  </radialGradient>
  <radialGradient id="radialGradient4227" gradientUnits="userSpaceOnUse" cy="75.507" cx="63.943" gradientTransform="matrix(1.2159092,0,0,1.3286425,-13.805971,-29.820729)" r="75.5">
   <stop stop-color="#0093fa" stop-opacity="0.11764706" offset="0"/>
   <stop stop-color="#FFF" stop-opacity="0" offset="1"/>
  </radialGradient>
  <radialGradient id="radialGradient4246" gradientUnits="userSpaceOnUse" cy="55.007" cx="32.013" gradientTransform="matrix(0.32462838,0,0,0.32017106,1.9365424,202.55068)" r="75.5">
   <stop stop-color="#FFF" stop-opacity="0.09803922" offset="0"/>
   <stop stop-color="#FFF" stop-opacity="0" offset="1"/>
  </radialGradient>
  <linearGradient id="linearGradient4261" y2="237" xlink:href="#linearGradient4255" spreadMethod="reflect" gradientUnits="userSpaceOnUse" x2="73" y1="237" x1="55.114"/>
  <linearGradient id="linearGradient4293" y2="230.5" xlink:href="#linearGradient4255" spreadMethod="reflect" gradientUnits="userSpaceOnUse" x2="225" y1="230.5" x1="210.41"/>
  <linearGradient id="linearGradient4323" y2="212.47" gradientUnits="userSpaceOnUse" x2="54.721" y1="46.534" x1="54.721">
   <stop stop-color="#FFF" stop-opacity="0.19607843" offset="0"/>
   <stop stop-color="#FFF" stop-opacity="0.09803922" offset="1"/>
  </linearGradient>
  <radialGradient id="radialGradient4064" xlink:href="#linearGradient4058" gradientUnits="userSpaceOnUse" cy="176.39" cx="105.13" gradientTransform="matrix(1.4017206,0,0,1.5161469,-41.655372,-89.762932)" r="24.5"/>
  <radialGradient id="radialGradient4068" xlink:href="#linearGradient4058" gradientUnits="userSpaceOnUse" cy="174.79" cx="97.933" gradientTransform="matrix(1.0856486,0,0,1.174273,-9.2772723,-28.806597)" r="24.5"/>
  <filter id="filter4110" height="1.2307739" width="1.2496126" color-interpolation-filters="sRGB" y="-0.11538695" x="-0.12480629">
   <feGaussianBlur stdDeviation="2.5481284"/>
  </filter>
  <filter id="filter4114" height="1.2307988" width="1.2496396" color-interpolation-filters="sRGB" y="-0.11539945" x="-0.12481981">
   <feGaussianBlur stdDeviation="2.5484045"/>
  </filter>
  <radialGradient id="radialGradient4121" xlink:href="#linearGradient4058" gradientUnits="userSpaceOnUse" cy="178.05" cx="96.824" gradientTransform="matrix(1.4017206,0,0,1.5161469,-41.655372,-89.762932)" r="24.5"/>
  <filter id="filter4123" height="1.2311099" width="1.2499759" color-interpolation-filters="sRGB" y="-0.1155549" x="-0.12498795">
   <feGaussianBlur stdDeviation="2.5518374"/>
  </filter>
  <filter id="filter4258" height="1.8258812" width="1.85436" color-interpolation-filters="sRGB" y="-0.41294068" x="-0.42718002">
   <feGaussianBlur stdDeviation="5.1617584"/>
  </filter>
  <clipPath id="clipPath4323" clipPathUnits="userSpaceOnUse">
   <path fill="#FFF" d="M17,175c-22.424-38.84,22.07-77.18,47-34,17.912-31.02,64.64,5.4,51.6,28,37.92-10.16,16.43,32.79,7.4,38-26.867,22.74-119.05,16.7-106-32z"/>
  </clipPath>
  <clipPath id="clipPath4330" clipPathUnits="userSpaceOnUse">
   <path fill="#FFF" d="M70.845,160.54c-15.671-5.07-25.127,22.68-16.897,32.61,33.844,40.83,76.802-23.53,59.982-43.82-15.079-31.51-43.085-16.68-43.085,11.21z"/>
  </clipPath>
  <linearGradient id="linearGradient4342" y2="212.42" gradientUnits="userSpaceOnUse" x2="52.052" y1="46.577" x1="52.052">
   <stop stop-color="#FFF" stop-opacity="0.49019608" offset="0"/>
   <stop stop-color="#FFF" stop-opacity="0.39215687" offset="1"/>
  </linearGradient>
  <linearGradient id="linearGradient4047" y2="213.68" gradientUnits="userSpaceOnUse" x2="31.541" y1="45.316" x1="31.541">
   <stop stop-color="#a5a5a5" offset="0"/>
   <stop stop-color="#787878" offset="1"/>
  </linearGradient>
  <linearGradient id="linearGradient4064" y2="245.5" xlink:href="#linearGradient4056" gradientUnits="userSpaceOnUse" x2="4.5267" gradientTransform="matrix(0.74180641,0,0,0.74146342,0.77114791,65.707317)" y1="220.83" x1="4.5267"/>
  <linearGradient id="linearGradient4072" y2="244.14" xlink:href="#linearGradient4056" gradientUnits="userSpaceOnUse" x2="40.654" gradientTransform="matrix(0.74180641,0,0,0.74146342,0.77114791,65.707317)" y1="225.24" x1="40.654"/>
 </defs>
 <metadata>
  <rdf:RDF>
   <cc:Work rdf:about="">
    <dc:format>image/svg+xml</dc:format>
    <dc:type rdf:resource="http://purl.org/dc/dcmitype/StillImage"/>
    <dc:title>Lookit icon - 48px</dc:title>
    <dc:creator>
     <cc:Agent>
      <dc:title>Harenome Ranaivoarivony Razanajato</dc:title>
     </cc:Agent>
    </dc:creator>
    <cc:license rdf:resource="http://www.gnu.org/licenses/gpl.html"/>
   </cc:Work>
  </rdf:RDF>
 </metadata>
 <g transform="translate(0,-208)">
  <path d="M174,226.54a46.433,12.456,0,1,1,-92.866,0,46.433,12.456,0,1,1,92.866,0z" fill-rule="evenodd" transform="matrix(0.26382089,0,0,0.16056783,-9.6548337,214.12429)" fill="url(#linearGradient3887)"/>
  <path d="M174,226.54a46.433,12.456,0,1,1,-92.866,0,46.433,12.456,0,1,1,92.866,0z" fill-rule="evenodd" transform="matrix(0.25843679,0,0,0.14049685,-8.9680004,218.67125)" fill="url(#linearGradient3887)"/>
  <path d="M174,226.54a46.433,12.456,0,1,1,-92.866,0,46.433,12.456,0,1,1,92.866,0z" fill-rule="evenodd" transform="matrix(0.25305269,0,0,0.12042587,-8.281167,223.21822)" fill="url(#linearGradient3887)"/>
  <path d="M174,226.54a46.433,12.456,0,1,1,-92.866,0,46.433,12.456,0,1,1,92.866,0z" fill-rule="evenodd" transform="matrix(0.24766859,0,0,0.10035489,-7.5943337,227.76518)" fill="url(#linearGradient3887)"/>
  <path d="M174,226.54a46.433,12.456,0,1,1,-92.866,0,46.433,12.456,0,1,1,92.866,0z" fill-rule="evenodd" transform="matrix(0.24228449,0,0,0.08028391,-6.9075003,232.31215)" fill="url(#linearGradient3887)"/>
  <path d="M174,226.54a46.433,12.456,0,1,1,-92.866,0,46.433,12.456,0,1,1,92.866,0z" fill-rule="evenodd" transform="matrix(0.23690039,0,0,0.06021294,-6.2206669,236.85911)" fill="url(#linearGradient3887)"/>
  <path d="M174,226.54a46.433,12.456,0,1,1,-92.866,0,46.433,12.456,0,1,1,92.866,0z" fill-rule="evenodd" transform="matrix(0.17767529,0,0,0.14049685,1.3345,218.92125)" fill="url(#linearGradient3887)"/>
  <path d="M174,226.54a46.433,12.456,0,1,1,-92.866,0,46.433,12.456,0,1,1,92.866,0z" fill-rule="evenodd" transform="matrix(0.17229119,0,0,0.12042587,2.0213334,223.46822)" fill="url(#linearGradient3887)"/>
  <path d="M174,226.54a46.433,12.456,0,1,1,-92.866,0,46.433,12.456,0,1,1,92.866,0z" fill-rule="evenodd" transform="matrix(0.16690709,0,0,0.10035489,2.7081667,228.01518)" fill="url(#linearGradient3887)"/>
  <path d="M174,226.54a46.433,12.456,0,1,1,-92.866,0,46.433,12.456,0,1,1,92.866,0z" fill-rule="evenodd" transform="matrix(0.16152299,0,0,0.08028391,3.3950001,232.56215)" fill="url(#linearGradient3887)"/>
  <path d="M174,226.54a46.433,12.456,0,1,1,-92.866,0,46.433,12.456,0,1,1,92.866,0z" fill-rule="evenodd" transform="matrix(0.15613889,0,0,0.06021294,4.0818334,237.10911)" fill="url(#linearGradient3887)"/>
  <path d="M174,226.54a46.433,12.456,0,1,1,-92.866,0,46.433,12.456,0,1,1,92.866,0z" fill-rule="evenodd" transform="matrix(0.15075479,0,0,0.04014196,4.7686668,241.65607)" fill="url(#linearGradient3887)"/>
  <path d="M181,129.5a75.5,82.5,0,1,1,-151,0,75.5,82.5,0,1,1,151,0z" fill-rule="evenodd" transform="matrix(0.24503311,0,0,0.22424242,-1.8509933,202.96061)" stroke="url(#linearGradient4047)" stroke-miterlimit="4" stroke-dasharray="none" stroke-width="4.26607752" fill="url(#radialGradient3931)"/>
  <path d="M181,129.5a75.5,82.5,0,1,1,-151,0,75.5,82.5,0,1,1,151,0z" fill-rule="evenodd" transform="matrix(0.2384106,0,0,0.21818182,-1.152318,203.74545)" fill="url(#linearGradient3941)"/>
  <path d="M181,129.5a75.5,82.5,0,1,1,-151,0,75.5,82.5,0,1,1,151,0z" fill-rule="evenodd" transform="matrix(0.2384106,0,0,0.21818182,-1.152318,203.74545)" fill="url(#linearGradient3957)"/>
  <path d="M181,129.5a75.5,82.5,0,1,1,-151,0,75.5,82.5,0,1,1,151,0z" transform="matrix(0.23178808,0,0,0.21212121,-0.45364243,204.5303)" stroke="url(#linearGradient4342)" stroke-dasharray="none" stroke-miterlimit="4" stroke-width="4.50985289" fill="none"/>
  <path d="M181,129.5a75.5,82.5,0,1,1,-151,0,75.5,82.5,0,1,1,151,0z" transform="matrix(0.20529801,0,0,0.18787879,2.3410597,207.6697)" stroke="url(#linearGradient4323)" stroke-dasharray="none" stroke-miterlimit="4" stroke-width="5.09177017" fill="none"/>
  <path d="M181,129.5a75.5,82.5,0,1,1,-151,0,75.5,82.5,0,1,1,151,0z" fill-rule="evenodd" transform="matrix(0.1986755,0,0,0.18181818,3.039735,208.45455)" fill="url(#linearGradient3815)"/>
  <path d="M181,129.5a75.5,82.5,0,1,1,-151,0,75.5,82.5,0,1,1,151,0z" fill-rule="evenodd" transform="matrix(0.1986755,0,0,0.18181818,3.039735,208.45454)" fill="url(#radialGradient4227)"/>
  <path d="M181,129.5a75.5,82.5,0,1,1,-151,0,75.5,82.5,0,1,1,151,0z" transform="matrix(0.17880795,0,0,0.16363636,5.1357615,210.8091)" stroke="url(#radialGradient3903)" stroke-dasharray="none" stroke-miterlimit="4" stroke-width="5.84610605" fill="none"/>
  <path d="M181,129.5a75.5,82.5,0,1,1,-151,0,75.5,82.5,0,1,1,151,0z" fill-rule="evenodd" transform="matrix(0.1986755,0,0,0.18181818,3.039735,208.45455)" fill="url(#linearGradient3991)"/>
  <path d="M181,129.5a75.5,82.5,0,1,1,-151,0,75.5,82.5,0,1,1,151,0z" fill-rule="evenodd" transform="matrix(0.17218543,0,0,0.15757577,5.8344371,211.59394)" fill="url(#radialGradient3967)"/>
  <path d="M181,129.5a75.5,82.5,0,1,1,-151,0,75.5,82.5,0,1,1,151,0z" fill-rule="evenodd" transform="matrix(0.13245033,0,0,0.12121212,10.02649,216.30303)" fill="url(#linearGradient4069)"/>
  <path d="M181,129.5a75.5,82.5,0,1,1,-151,0,75.5,82.5,0,1,1,151,0z" fill-rule="evenodd" transform="matrix(0.1192053,0,0,0.10909091,11.423841,217.87273)" fill="url(#radialGradient4071)"/>
  <path d="M181,129.5a75.5,82.5,0,1,1,-151,0,75.5,82.5,0,1,1,151,0z" fill-rule="evenodd" transform="matrix(0.05298013,0,0,0.04848485,18.410596,225.72121)" fill="url(#linearGradient4089)"/>
  <path d="M181,129.5a75.5,82.5,0,1,1,-151,0,75.5,82.5,0,1,1,151,0z" fill-rule="evenodd" transform="matrix(0.0397351,0,0,0.03636364,19.807947,227.29091)" fill="url(#radialGradient4097)"/>
  <path d="M181,129.5a75.5,82.5,0,1,1,-151,0,75.5,82.5,0,1,1,151,0z" fill-rule="evenodd" transform="matrix(0.01986755,0,0,0.01818182,21.903973,229.64545)" fill="url(#radialGradient4182)"/>
  <path d="M181,129.5a75.5,82.5,0,1,1,-151,0,75.5,82.5,0,1,1,151,0z" fill-rule="evenodd" transform="matrix(0.02649007,0,0,0.02424242,21.205298,228.86061)" fill="url(#radialGradient4156)"/>
  <path d="M181,129.5a75.5,82.5,0,1,1,-151,0,75.5,82.5,0,1,1,151,0z" fill-rule="evenodd" transform="matrix(0.02649007,0,0,0.02424242,21.205298,228.86061)" fill="url(#radialGradient4160)"/>
  <path d="M181,129.5a75.5,82.5,0,1,1,-151,0,75.5,82.5,0,1,1,151,0z" fill-rule="evenodd" transform="matrix(0.1589404,0,0,0.14545455,7.231788,213.16364)" fill="url(#radialGradient4110)"/>
  <path d="M181,129.5a75.5,82.5,0,1,1,-151,0,75.5,82.5,0,1,1,151,0z" fill-rule="evenodd" transform="matrix(0.1589404,0,0,0.14545455,7.231788,213.16364)" fill="url(#radialGradient4120)"/>
  <path d="M181,129.5a75.5,82.5,0,1,1,-151,0,75.5,82.5,0,1,1,151,0z" fill-rule="evenodd" transform="matrix(0.1589404,0,0,0.14545455,7.231788,213.16364)" fill="url(#radialGradient4130)"/>
  <path d="M181,129.5a75.5,82.5,0,1,1,-151,0,75.5,82.5,0,1,1,151,0z" transform="matrix(0.15231788,0,0,0.13939394,7.9304636,213.94849)" stroke="url(#linearGradient4142)" stroke-dasharray="none" stroke-miterlimit="4" stroke-width="6.86282015" fill="none"/>
  <path d="M181,129.5a75.5,82.5,0,1,1,-151,0,75.5,82.5,0,1,1,151,0z" fill-rule="evenodd" transform="matrix(0.1589404,0,0,0.14545455,7.2317881,213.16364)" fill="url(#radialGradient4198)"/>
  <path d="M181,129.5a75.5,82.5,0,1,1,-151,0,75.5,82.5,0,1,1,151,0z" fill-rule="evenodd" transform="matrix(0.1589404,0,0,0.14545455,7.231788,213.16364)" fill="url(#radialGradient4204)"/>
  <path fill-rule="evenodd" fill="url(#radialGradient4246)" d="M24.337,220c-6.814,0-12.337,5.45-12.337,12.17,0,2.98,1.088,5.71,2.894,7.83,2.391-7.1,9.176-12.21,17.174-12.21,1.351,0,2.666,0.15,3.932,0.42-1.665-4.77-6.254-8.21-11.663-8.21z"/>
  <path d="M118,108a14.5,15,0,1,1,-29,0,14.5,15,0,1,1,29,0z" fill-rule="evenodd" fill-opacity="0.05882353" transform="matrix(0.30979998,0,0,0.2989897,-12.467664,192.79407)" filter="url(#filter4258)" fill="#FFF"/>
  <path d="M73,237a18,10,0,1,1,-36,0,18,10,0,1,1,36,0z" fill-rule="evenodd" transform="matrix(0.36111111,0,0,0.1,-5.3611111,228.3)" fill="url(#linearGradient4261)"/>
  <path d="M73,237a18,10,0,1,1,-36,0,18,10,0,1,1,36,0z" fill-rule="evenodd" transform="matrix(0.34722222,0,0,0.0875,-4.5972221,231.1375)" fill="url(#linearGradient4261)"/>
  <path d="M73,237a18,10,0,1,1,-36,0,18,10,0,1,1,36,0z" fill-rule="evenodd" transform="matrix(0.33333333,0,0,0.075,-3.8333332,233.975)" fill="url(#linearGradient4261)"/>
  <path d="M73,237a18,10,0,1,1,-36,0,18,10,0,1,1,36,0z" fill-rule="evenodd" transform="matrix(0.31943821,0,0,0.0625,-3.0692138,236.8125)" fill="url(#linearGradient4261)"/>
  <path d="M73,237a18,10,0,1,1,-36,0,18,10,0,1,1,36,0z" fill-rule="evenodd" transform="matrix(0.30555556,0,0,0.05,-2.3055557,239.65)" fill="url(#linearGradient4261)"/>
  <path d="M73,237a18,10,0,1,1,-36,0,18,10,0,1,1,36,0z" fill-rule="evenodd" transform="matrix(0.29166667,0,0,0.0375,-1.5416668,242.4875)" fill="url(#linearGradient4261)"/>
  <path d="M225,230.5a14.5,3.5,0,1,1,-29,0,14.5,3.5,0,1,1,29,0z" fill-rule="evenodd" transform="matrix(0.31034479,0,0,0.28571429,-25.827578,183.14286)" fill="url(#linearGradient4293)"/>
  <path d="M225,230.5a14.5,3.5,0,1,1,-29,0,14.5,3.5,0,1,1,29,0z" fill-rule="evenodd" transform="matrix(0.29310341,0,0,0.25,-22.198268,191.25)" fill="url(#linearGradient4293)"/>
  <path d="M225,230.5a14.5,3.5,0,1,1,-29,0,14.5,3.5,0,1,1,29,0z" fill-rule="evenodd" transform="matrix(0.27586203,0,0,0.21428571,-18.568957,199.35714)" fill="url(#linearGradient4293)"/>
  <path d="M225,230.5a14.5,3.5,0,1,1,-29,0,14.5,3.5,0,1,1,29,0z" fill-rule="evenodd" transform="matrix(0.26724134,0,0,0.17857143,-16.629302,207.46429)" fill="url(#linearGradient4293)"/>
  <path d="M225,230.5a14.5,3.5,0,1,1,-29,0,14.5,3.5,0,1,1,29,0z" fill-rule="evenodd" transform="matrix(0.25862066,0,0,0.14285714,-14.689649,215.57143)" fill="url(#linearGradient4293)"/>
  <path d="M225,230.5a14.5,3.5,0,1,1,-29,0,14.5,3.5,0,1,1,29,0z" fill-rule="evenodd" transform="matrix(0.24999997,0,0,0.10714286,-12.749994,223.67857)" fill="url(#linearGradient4293)"/>
  <path d="M5.5,239.5c-4.0291-6.97,4.0205-13.75,8.5-6,3.219-5.57,11.844,0.45,9.5,4.5,6.814-1.82,2.623,6.06,1,7-4.827,4.08-21.345,3.24-19-5.5z" stroke="url(#linearGradient4064)" stroke-width="1" fill="url(#radialGradient3962)"/>
  <path d="M35.5,238c-3.333-0.89-5.251,4.25-3.5,6,7.198,7.19,16.078-3.93,12.5-7.5-3.207-5.55-9-3.41-9,1.5z" stroke="url(#linearGradient4072)" stroke-width="1" fill="url(#radialGradient4038)"/>
  <path d="M6,239.5c-4.0291-6.97,3.5205-13.75,8-6,3.219-5.57,11.344,0.95,9,5,6.814-1.82,2.623,5.06,1,6-4.827,4.08-20.345,3.74-18-5z" fill="url(#radialGradient4030)"/>
  <path d="M36,238.5c-3.333-0.89-5.251,3.25-3.5,5,7.198,7.19,15.078-3.43,11.5-7-3.207-5.55-8-2.91-8,2z" fill="url(#radialGradient4042)"/>
  <path d="M36.5,239c-3.333-0.89-5.251,2.75-3.5,4.5,6.059,6.06,14.078-3.43,10.5-7-2.696-4.66-7-2.41-7,2.5z" stroke-opacity="0.39215686" stroke="#FFF" stroke-width="1" fill="none"/>
  <path d="M6.5,239.5c-4.0291-6.97,3.0205-11.75,7.5-4,3.219-5.57,10.844-0.55,8.5,3.5,6.814-1.82,2.957,4.04,2,5-4.827,4.08-20.345,4.24-18-4.5z" stroke-opacity="0.39215686" stroke="#FFF" stroke-width="1" fill="none"/>
  <g fill-rule="evenodd" transform="matrix(0.17968399,0,0,0.17939383,2.5266557,207.86314)" clip-path="url(#clipPath4323)">
   <path d="M119,158.5a24.5,26.5,0,1,1,-49,0,24.5,26.5,0,1,1,49,0z" transform="matrix(1.2244898,0,0,1.1132075,-27.714283,-16.943387)" filter="url(#filter4110)" fill="url(#radialGradient4064)"/>
   <path d="M119,158.5a24.5,26.5,0,1,1,-49,0,24.5,26.5,0,1,1,49,0z" transform="matrix(1.1836735,0,0,1.1320755,-76.857145,-28.433962)" filter="url(#filter4114)" fill="url(#radialGradient4068)"/>
  </g>
  <path d="M119,158.5a24.5,26.5,0,1,1,-49,0,24.5,26.5,0,1,1,49,0z" clip-path="url(#clipPath4330)" fill-rule="evenodd" transform="matrix(0.21268718,0,0,0.17600905,20.520722,209.7451)" filter="url(#filter4123)" fill="url(#radialGradient4121)"/>
 </g>
</svg>
