<?xml version="1.0" encoding="UTF-8" standalone="no"?>
<!-- Created with Inkscape (http://www.inkscape.org/) -->
<svg xmlns:rdf="http://www.w3.org/1999/02/22-rdf-syntax-ns#" xmlns="http://www.w3.org/2000/svg" height="64" width="64" version="1.1" xmlns:cc="http://creativecommons.org/ns#" xmlns:xlink="http://www.w3.org/1999/xlink" xmlns:dc="http://purl.org/dc/elements/1.1/">
 <title>Lookit icon - 64px</title>
 <defs>
  <linearGradient id="linearGradient4056">
   <stop stop-color="#ebebeb" offset="0"/>
   <stop stop-color="#d7d7d7" offset="1"/>
  </linearGradient>
  <linearGradient id="linearGradient4058">
   <stop stop-color="#000" stop-opacity="0.05098039" offset="0"/>
   <stop stop-color="#000" stop-opacity="0" offset="1"/>
  </linearGradient>
  <linearGradient id="linearGradient4255">
   <stop stop-color="#000" stop-opacity="0.01176471" offset="0"/>
   <stop stop-color="#000" stop-opacity="0.00392157" offset="0.8"/>
   <stop stop-color="#000" stop-opacity="0" offset="1"/>
  </linearGradient>
  <linearGradient id="linearGradient4150">
   <stop stop-color="#FFF" stop-opacity="0.13725491" offset="0"/>
   <stop stop-color="#FFF" stop-opacity="0" offset="1"/>
  </linearGradient>
  <linearGradient id="linearGradient4024">
   <stop stop-color="#FFF" stop-opacity="0" offset="0"/>
   <stop stop-color="#d9dddf" stop-opacity="0.19607843" offset="1"/>
  </linearGradient>
  <linearGradient id="linearGradient3956">
   <stop stop-color="#FFF" offset="0"/>
   <stop stop-color="#fafafa" offset="0.4"/>
   <stop stop-color="#d8e0e0" offset="1"/>
  </linearGradient>
  <linearGradient id="linearGradient3881">
   <stop stop-color="#000" stop-opacity="0.02352941" offset="0"/>
   <stop stop-color="#000" stop-opacity="0.00784314" offset="0.85"/>
   <stop stop-color="#000" stop-opacity="0" offset="1"/>
  </linearGradient>
  <linearGradient id="linearGradient4104">
   <stop stop-color="#FFF" stop-opacity="0.11764706" offset="0"/>
   <stop stop-color="#FFF" stop-opacity="0" offset="0.5"/>
   <stop stop-color="#FFF" stop-opacity="0" offset="1"/>
  </linearGradient>
  <linearGradient id="linearGradient3897">
   <stop stop-color="#FFF" stop-opacity="0.19607843" offset="0"/>
   <stop stop-color="#FFF" stop-opacity="0.13725491" offset="1"/>
  </linearGradient>
  <linearGradient id="linearGradient3815" y2="212" gradientUnits="userSpaceOnUse" x2="158.9" y1="47" x1="158.9">
   <stop stop-color="#373737" offset="0"/>
   <stop stop-color="#191919" offset="1"/>
  </linearGradient>
  <radialGradient id="radialGradient3871" gradientUnits="userSpaceOnUse" cy="206.35" cx="182.31" gradientTransform="matrix(2.0234928,1.1574411e-8,-1.0586926e-8,2.2099744,-186.59219,-242.59404)" r="75.956">
   <stop stop-color="#000" stop-opacity="0.25490198" offset="0"/>
   <stop stop-color="#000" stop-opacity="0.09803922" offset="1"/>
  </radialGradient>
  <radialGradient id="radialGradient3903" xlink:href="#linearGradient3897" gradientUnits="userSpaceOnUse" cy="207.25" cx="183.21" gradientTransform="matrix(2.0470128,-7.6327576e-8,6.9815798e-8,2.2356649,-191.82071,-248.92411)" r="75.962"/>
  <radialGradient id="radialGradient3911" xlink:href="#linearGradient3897" gradientUnits="userSpaceOnUse" cy="210.08" cx="186.03" gradientTransform="matrix(2.1210359,-3.4347468e-8,3.1416349e-8,2.3164501,-208.55007,-269.13148)" r="75.978"/>
  <radialGradient id="radialGradient3931" gradientUnits="userSpaceOnUse" cy="159.55" cx="135.55" gradientTransform="matrix(0.99999984,0,0,1.0927147,-30.045895,-44.838189)" r="75.5">
   <stop stop-color="#000" offset="0"/>
   <stop stop-color="#cdcdcd" offset="0.85"/>
   <stop stop-color="#bebebe" offset="1"/>
  </radialGradient>
  <linearGradient id="linearGradient3941" y2="47" gradientUnits="userSpaceOnUse" x2="181" y1="212" x1="30">
   <stop stop-color="#000" stop-opacity="0" offset="0"/>
   <stop stop-color="#e1e1e1" stop-opacity="0.17647059" offset="0.35"/>
   <stop stop-color="#FFF" stop-opacity="0.29411766" offset="0.55"/>
   <stop stop-color="#e1e1e1" stop-opacity="0.09803922" offset="0.75"/>
   <stop stop-color="#000" stop-opacity="0" offset="1"/>
  </linearGradient>
  <linearGradient id="linearGradient3957" y2="47" gradientUnits="userSpaceOnUse" x2="30" y1="212" x1="181">
   <stop stop-color="#000" stop-opacity="0.84313726" offset="0"/>
   <stop stop-color="#646464" stop-opacity="0" offset="0.75"/>
   <stop stop-color="#FFF" stop-opacity="0.82352942" offset="1"/>
  </linearGradient>
  <radialGradient id="radialGradient3967" gradientUnits="userSpaceOnUse" cy="129.5" cx="105.5" gradientTransform="matrix(1,0,0,1.0927152,0,-12.006623)" r="75.5">
   <stop stop-color="#3c3c3c" offset="0"/>
   <stop stop-color="#323232" offset="0.85"/>
   <stop stop-color="#232323" offset="1"/>
  </radialGradient>
  <radialGradient id="radialGradient3979" gradientUnits="userSpaceOnUse" cy="129.5" cx="105.5" gradientTransform="matrix(1,0,0,1.0927152,0,-12.006623)" r="75.5">
   <stop stop-color="#FFF" offset="0"/>
   <stop stop-color="#FFF" stop-opacity="0" offset="0.95"/>
   <stop stop-color="#FFF" stop-opacity="0.17647059" offset="1"/>
  </radialGradient>
  <linearGradient id="linearGradient3991" y2="47" gradientUnits="userSpaceOnUse" x2="30" y1="212" x1="181">
   <stop stop-color="#000" stop-opacity="0" offset="0"/>
   <stop stop-color="#FFF" stop-opacity="0" offset="0.3"/>
   <stop stop-color="#FFF" stop-opacity="0.11764706" offset="0.55"/>
   <stop stop-color="#FFF" stop-opacity="0" offset="0.8"/>
   <stop stop-color="#000" stop-opacity="0" offset="1"/>
  </linearGradient>
  <linearGradient id="linearGradient4069" y2="209.34" gradientUnits="userSpaceOnUse" x2="47.166" y1="45.067" x1="47.166">
   <stop stop-color="#373737" offset="0"/>
   <stop stop-color="#3c3c3c" offset="1"/>
  </linearGradient>
  <radialGradient id="radialGradient4071" gradientUnits="userSpaceOnUse" cy="129.5" cx="105.5" gradientTransform="matrix(1,0,0,1.0927152,0,-12.006623)" r="75.5">
   <stop stop-color="#2d2d2d" offset="0"/>
   <stop stop-color="#232323" offset="0.75"/>
   <stop stop-color="#1e1e1e" offset="1"/>
  </radialGradient>
  <linearGradient id="linearGradient4089" y2="212" gradientUnits="userSpaceOnUse" x2="181" y1="47" x1="181">
   <stop stop-color="#282828" offset="0"/>
   <stop stop-color="#323232" offset="1"/>
  </linearGradient>
  <radialGradient id="radialGradient4097" gradientUnits="userSpaceOnUse" cy="129.5" cx="105.5" gradientTransform="matrix(1,0,0,1.0927152,0,-12.006623)" r="75.5">
   <stop stop-color="#232323" offset="0"/>
   <stop stop-color="#191919" offset="1"/>
  </radialGradient>
  <radialGradient id="radialGradient4110" xlink:href="#linearGradient4104" gradientUnits="userSpaceOnUse" cy="184.75" cx="160.08" gradientTransform="matrix(1.4571666,0,0,1.5922681,-84.125913,-115.92156)" r="75.5"/>
  <radialGradient id="radialGradient4120" xlink:href="#linearGradient4104" gradientUnits="userSpaceOnUse" cy="112.68" cx="88.683" gradientTransform="matrix(1.4571666,0,0,1.5922681,-84.125913,-115.92156)" r="75.5"/>
  <radialGradient id="radialGradient4130" gradientUnits="userSpaceOnUse" cy="129.5" cx="105.5" gradientTransform="matrix(1,0,0,1.0927152,0,-12.006623)" r="75.5">
   <stop stop-color="#FFF" stop-opacity="0" offset="0"/>
   <stop stop-color="#FFF" stop-opacity="0.03921569" offset="0.9"/>
   <stop stop-color="#FFF" stop-opacity="0.17647059" offset="1"/>
  </radialGradient>
  <linearGradient id="linearGradient4142" y2="212.55" gradientUnits="userSpaceOnUse" x2="181.51" y1="46.446" x1="29.493">
   <stop stop-color="#FFF" stop-opacity="0.39215687" offset="0"/>
   <stop stop-color="#FFF" stop-opacity="0.05882353" offset="0.3"/>
   <stop stop-color="#FFF" stop-opacity="0.19607843" offset="0.5"/>
   <stop stop-color="#FFF" stop-opacity="0.05882353" offset="0.7"/>
   <stop stop-color="#FFF" stop-opacity="0.15686275" offset="1"/>
  </linearGradient>
  <linearGradient id="linearGradient3887" y2="226.54" xlink:href="#linearGradient3881" spreadMethod="reflect" gradientUnits="userSpaceOnUse" x2="174.05" y1="226.54" x1="127.57"/>
  <radialGradient id="radialGradient3962" xlink:href="#linearGradient3956" gradientUnits="userSpaceOnUse" cy="179.44" cx="60.271" gradientTransform="matrix(0.43756384,0,0,0.33813963,-10.817795,166.98201)" r="63.202"/>
  <radialGradient id="radialGradient4030" xlink:href="#linearGradient4024" gradientUnits="userSpaceOnUse" cy="146.18" cx="99.384" gradientTransform="matrix(0.38882885,0,0,0.30047832,-10.825414,183.32396)" r="63.202"/>
  <radialGradient id="radialGradient4038" xlink:href="#linearGradient3956" gradientUnits="userSpaceOnUse" cy="144.03" cx="198.93" gradientTransform="matrix(0.49494112,0,0,0.45906814,-47.907451,161.00887)" r="39.529"/>
  <radialGradient id="radialGradient4042" xlink:href="#linearGradient4024" gradientUnits="userSpaceOnUse" cy="142.62" cx="216.68" gradientTransform="matrix(0.33122925,0,0,0.30722198,-17.342527,185.00732)" r="39.529"/>
  <clipPath id="clipPath4106" clipPathUnits="userSpaceOnUse">
   <path d="M181,129.5a75.5,82.5,0,1,1,-151,0,75.5,82.5,0,1,1,151,0z" fill-rule="evenodd" transform="matrix(0.99337748,0,0,0.90909099,23.198676,10.27271)" fill="#FFF"/>
  </clipPath>
  <clipPath id="clipPath4110" clipPathUnits="userSpaceOnUse">
   <path d="M181,129.5a75.5,82.5,0,1,1,-151,0,75.5,82.5,0,1,1,151,0z" fill-rule="evenodd" transform="matrix(0.99337748,0,0,0.90909099,23.198676,10.27271)" fill="#FFF"/>
  </clipPath>
  <filter id="filter4134" color-interpolation-filters="sRGB">
   <feGaussianBlur stdDeviation="1.681488"/>
  </filter>
  <filter id="filter4142" color-interpolation-filters="sRGB">
   <feGaussianBlur stdDeviation="1.1435154"/>
  </filter>
  <radialGradient id="radialGradient4156" xlink:href="#linearGradient4150" gradientUnits="userSpaceOnUse" cy="161.72" cx="144.4" gradientTransform="matrix(0.97056357,0,0,1.0605496,1.3855187,-11.380714)" r="75.5"/>
  <radialGradient id="radialGradient4160" xlink:href="#linearGradient4150" gradientUnits="userSpaceOnUse" cy="99.834" cx="68.768" gradientTransform="matrix(0.97056357,0,0,1.0605496,1.3855187,-11.380714)" r="75.5"/>
  <radialGradient id="radialGradient4182" gradientUnits="userSpaceOnUse" cy="129.5" cx="105.5" gradientTransform="matrix(1,0,0,1.0927152,0,-12.006623)" r="75.5">
   <stop stop-color="#FFF" stop-opacity="0.17647059" offset="0"/>
   <stop stop-color="#FFF" stop-opacity="0" offset="1"/>
  </radialGradient>
  <radialGradient id="radialGradient4198" gradientUnits="userSpaceOnUse" cy="157.02" cx="133.77" gradientTransform="matrix(3.1385248,0,0,3.4295134,-237.83215,-328.71425)" r="75.5">
   <stop stop-color="#00b0fa" stop-opacity="0" offset="0"/>
   <stop stop-color="#00b0fa" stop-opacity="0.01960784" offset="0.35"/>
   <stop stop-color="#00affa" stop-opacity="0.09803922" offset="1"/>
  </radialGradient>
  <radialGradient id="radialGradient4204" gradientUnits="userSpaceOnUse" cy="109.87" cx="85.658" gradientTransform="matrix(3.1385248,0,0,3.4295134,-237.83215,-328.71425)" r="75.5">
   <stop stop-color="#1bfa00" stop-opacity="0" offset="0"/>
   <stop stop-color="#1dfa00" stop-opacity="0" offset="0.35"/>
   <stop stop-color="#1dfa00" stop-opacity="0.05882353" offset="1"/>
  </radialGradient>
  <radialGradient id="radialGradient4227" gradientUnits="userSpaceOnUse" cy="75.507" cx="63.943" gradientTransform="matrix(1.2159092,0,0,1.3286425,-13.805971,-29.820729)" r="75.5">
   <stop stop-color="#0093fa" stop-opacity="0.11764706" offset="0"/>
   <stop stop-color="#FFF" stop-opacity="0" offset="1"/>
  </radialGradient>
  <radialGradient id="radialGradient4246" gradientUnits="userSpaceOnUse" cy="55.007" cx="32.013" gradientTransform="matrix(0.43283783,0,0,0.43223089,2.5820559,184.44342)" r="75.5">
   <stop stop-color="#FFF" stop-opacity="0.09803922" offset="0"/>
   <stop stop-color="#FFF" stop-opacity="0" offset="1"/>
  </radialGradient>
  <linearGradient id="linearGradient4261" y2="237" xlink:href="#linearGradient4255" spreadMethod="reflect" gradientUnits="userSpaceOnUse" x2="73" y1="237" x1="55.114"/>
  <linearGradient id="linearGradient4293" y2="230.5" xlink:href="#linearGradient4255" spreadMethod="reflect" gradientUnits="userSpaceOnUse" x2="225" y1="230.5" x1="210.41"/>
  <linearGradient id="linearGradient4323" y2="212.47" gradientUnits="userSpaceOnUse" x2="54.721" y1="46.534" x1="54.721">
   <stop stop-color="#FFF" stop-opacity="0.19607843" offset="0"/>
   <stop stop-color="#FFF" stop-opacity="0.09803922" offset="1"/>
  </linearGradient>
  <radialGradient id="radialGradient4064" xlink:href="#linearGradient4058" gradientUnits="userSpaceOnUse" cy="176.39" cx="105.13" gradientTransform="matrix(1.4017206,0,0,1.5161469,-41.655372,-89.762932)" r="24.5"/>
  <radialGradient id="radialGradient4068" xlink:href="#linearGradient4058" gradientUnits="userSpaceOnUse" cy="174.79" cx="97.933" gradientTransform="matrix(1.0856486,0,0,1.174273,-9.2772723,-28.806597)" r="24.5"/>
  <filter id="filter4110" height="1.2307739" width="1.2496126" color-interpolation-filters="sRGB" y="-0.11538695" x="-0.12480629">
   <feGaussianBlur stdDeviation="2.5481284"/>
  </filter>
  <filter id="filter4114" height="1.2307988" width="1.2496396" color-interpolation-filters="sRGB" y="-0.11539945" x="-0.12481981">
   <feGaussianBlur stdDeviation="2.5484045"/>
  </filter>
  <radialGradient id="radialGradient4121" xlink:href="#linearGradient4058" gradientUnits="userSpaceOnUse" cy="178.05" cx="96.824" gradientTransform="matrix(1.4017206,0,0,1.5161469,-41.655372,-89.762932)" r="24.5"/>
  <filter id="filter4123" height="1.2311099" width="1.2499759" color-interpolation-filters="sRGB" y="-0.1155549" x="-0.12498795">
   <feGaussianBlur stdDeviation="2.5518374"/>
  </filter>
  <radialGradient id="radialGradient4165" gradientUnits="userSpaceOnUse" cy="125.75" cx="125.25" gradientTransform="matrix(1,0,0,0.96601942,0,4.2730583)" r="64.375">
   <stop stop-color="#FFF" stop-opacity="0" offset="0"/>
   <stop stop-color="#FFF" stop-opacity="0" offset="0.7"/>
   <stop stop-color="#FFF" stop-opacity="0.05882353" offset="1"/>
  </radialGradient>
  <filter id="filter4183" color-interpolation-filters="sRGB">
   <feGaussianBlur stdDeviation="1.8984375"/>
  </filter>
  <filter id="filter4258" height="1.8258812" width="1.85436" color-interpolation-filters="sRGB" y="-0.41294068" x="-0.42718002">
   <feGaussianBlur stdDeviation="5.1617584"/>
  </filter>
  <clipPath id="clipPath4323" clipPathUnits="userSpaceOnUse">
   <path fill="#FFF" d="M17,175c-22.424-38.84,22.07-77.18,47-34,17.912-31.02,64.64,5.4,51.6,28,37.92-10.16,16.43,32.79,7.4,38-26.867,22.74-119.05,16.7-106-32z"/>
  </clipPath>
  <clipPath id="clipPath4330" clipPathUnits="userSpaceOnUse">
   <path fill="#FFF" d="M70.845,160.54c-15.671-5.07-25.127,22.68-16.897,32.61,33.844,40.83,76.802-23.53,59.982-43.82-15.079-31.51-43.085-16.68-43.085,11.21z"/>
  </clipPath>
  <linearGradient id="linearGradient4342" y2="212.42" gradientUnits="userSpaceOnUse" x2="52.052" y1="46.577" x1="52.052">
   <stop stop-color="#FFF" stop-opacity="0.49019608" offset="0"/>
   <stop stop-color="#FFF" stop-opacity="0.39215687" offset="1"/>
  </linearGradient>
  <linearGradient id="linearGradient4047" y2="213.68" gradientUnits="userSpaceOnUse" x2="31.541" y1="45.316" x1="31.541">
   <stop stop-color="#a5a5a5" offset="0"/>
   <stop stop-color="#787878" offset="1"/>
  </linearGradient>
  <linearGradient id="linearGradient4064" y2="245.5" xlink:href="#linearGradient4056" gradientUnits="userSpaceOnUse" x2="4.5267" y1="220.83" x1="4.5267"/>
  <linearGradient id="linearGradient4072" y2="244.14" xlink:href="#linearGradient4056" gradientUnits="userSpaceOnUse" x2="40.654" y1="225.24" x1="40.654"/>
 </defs>
 <metadata>
  <rdf:RDF>
   <cc:Work rdf:about="">
    <dc:format>image/svg+xml</dc:format>
    <dc:type rdf:resource="http://purl.org/dc/dcmitype/StillImage"/>
    <dc:title>Lookit icon - 64px</dc:title>
    <dc:creator>
     <cc:Agent>
      <dc:title>Harenome Ranaivoarivony Razanajato</dc:title>
     </cc:Agent>
    </dc:creator>
    <cc:license rdf:resource="http://www.gnu.org/licenses/gpl.html"/>
   </cc:Work>
  </rdf:RDF>
 </metadata>
 <g transform="translate(0,-192)">
  <path d="M174,226.54a46.433,12.456,0,1,1,-92.866,0,46.433,12.456,0,1,1,92.866,0z" fill-rule="evenodd" transform="matrix(0.34996648,0,0,0.18063881,-12.644167,208.07732)" fill="url(#linearGradient3887)"/>
  <path d="M174,226.54a46.433,12.456,0,1,1,-92.866,0,46.433,12.456,0,1,1,92.866,0z" fill-rule="evenodd" transform="matrix(0.34458239,0,0,0.16056783,-11.957334,212.62429)" fill="url(#linearGradient3887)"/>
  <path d="M174,226.54a46.433,12.456,0,1,1,-92.866,0,46.433,12.456,0,1,1,92.866,0z" fill-rule="evenodd" transform="matrix(0.33919829,0,0,0.14049685,-11.270501,217.17125)" fill="url(#linearGradient3887)"/>
  <path d="M174,226.54a46.433,12.456,0,1,1,-92.866,0,46.433,12.456,0,1,1,92.866,0z" fill-rule="evenodd" transform="matrix(0.33381419,0,0,0.12042587,-10.583667,221.71822)" fill="url(#linearGradient3887)"/>
  <path d="M174,226.54a46.433,12.456,0,1,1,-92.866,0,46.433,12.456,0,1,1,92.866,0z" fill-rule="evenodd" transform="matrix(0.32843009,0,0,0.10035489,-9.896834,226.26518)" fill="url(#linearGradient3887)"/>
  <path d="M174,226.54a46.433,12.456,0,1,1,-92.866,0,46.433,12.456,0,1,1,92.866,0z" fill-rule="evenodd" transform="matrix(0.32304599,0,0,0.08028391,-9.2100007,230.81215)" fill="url(#linearGradient3887)"/>
  <path d="M174,226.54a46.433,12.456,0,1,1,-92.866,0,46.433,12.456,0,1,1,92.866,0z" fill-rule="evenodd" transform="matrix(0.24228449,0,0,0.14049685,1.0924997,216.92125)" fill="url(#linearGradient3887)"/>
  <path d="M174,226.54a46.433,12.456,0,1,1,-92.866,0,46.433,12.456,0,1,1,92.866,0z" fill-rule="evenodd" transform="matrix(0.23690039,0,0,0.12042587,1.7793331,221.46821)" fill="url(#linearGradient3887)"/>
  <path d="M174,226.54a46.433,12.456,0,1,1,-92.866,0,46.433,12.456,0,1,1,92.866,0z" fill-rule="evenodd" transform="matrix(0.23151629,0,0,0.10035489,2.4661664,226.01518)" fill="url(#linearGradient3887)"/>
  <path d="M174,226.54a46.433,12.456,0,1,1,-92.866,0,46.433,12.456,0,1,1,92.866,0z" fill-rule="evenodd" transform="matrix(0.22613219,0,0,0.08028391,3.1529998,230.56214)" fill="url(#linearGradient3887)"/>
  <path d="M174,226.54a46.433,12.456,0,1,1,-92.866,0,46.433,12.456,0,1,1,92.866,0z" fill-rule="evenodd" transform="matrix(0.22074809,0,0,0.06021294,3.8398331,235.1091)" fill="url(#linearGradient3887)"/>
  <path d="M174,226.54a46.433,12.456,0,1,1,-92.866,0,46.433,12.456,0,1,1,92.866,0z" fill-rule="evenodd" transform="matrix(0.21536399,0,0,0.04014196,4.5266665,239.65607)" fill="url(#linearGradient3887)"/>
  <path d="M181,129.5a75.5,82.5,0,1,1,-151,0,75.5,82.5,0,1,1,151,0z" fill-rule="evenodd" transform="matrix(0.32450331,0,0,0.2969697,-2.2350993,185.54242)" stroke="url(#linearGradient4047)" stroke-miterlimit="4" stroke-dasharray="none" stroke-width="3.22132373" fill="url(#radialGradient3931)"/>
  <path d="M181,129.5a75.5,82.5,0,1,1,-151,0,75.5,82.5,0,1,1,151,0z" fill-rule="evenodd" transform="matrix(0.31788079,0,0,0.29090909,-1.5364237,186.32727)" fill="url(#linearGradient3941)"/>
  <path d="M181,129.5a75.5,82.5,0,1,1,-151,0,75.5,82.5,0,1,1,151,0z" fill-rule="evenodd" transform="matrix(0.31788079,0,0,0.29090909,-1.5364237,186.32727)" fill="url(#linearGradient3957)"/>
  <path d="M181,129.5a75.5,82.5,0,1,1,-151,0,75.5,82.5,0,1,1,151,0z" fill-rule="evenodd" transform="matrix(0.31788079,0,0,0.29090909,-1.5364237,186.32727)" fill="url(#radialGradient3979)"/>
  <path d="M181,129.5a75.5,82.5,0,1,1,-151,0,75.5,82.5,0,1,1,151,0z" transform="matrix(0.31125828,0,0,0.28484849,-0.83774843,187.11212)" stroke="url(#linearGradient4342)" stroke-dasharray="none" stroke-miterlimit="4" stroke-width="3.35840106" fill="none"/>
  <path d="M181,129.5a75.5,82.5,0,1,1,-151,0,75.5,82.5,0,1,1,151,0z" transform="matrix(0.28476821,0,0,0.26060606,1.9569537,190.25152)" stroke="url(#linearGradient4323)" stroke-dasharray="none" stroke-miterlimit="4" stroke-width="3.67081094" fill="none"/>
  <path d="M181,129.5a75.5,82.5,0,1,1,-151,0,75.5,82.5,0,1,1,151,0z" fill-rule="evenodd" transform="matrix(0.2781457,0,0,0.25454545,2.655629,191.03636)" fill="url(#linearGradient3815)"/>
  <path d="M181,129.5a75.5,82.5,0,1,1,-151,0,75.5,82.5,0,1,1,151,0z" fill-rule="evenodd" transform="matrix(0.2781457,0,0,0.25454545,2.655629,191.03636)" fill="url(#radialGradient4227)"/>
  <path d="M181,129.5a75.5,82.5,0,1,1,-151,0,75.5,82.5,0,1,1,151,0z" transform="matrix(0.25827815,0,0,0.23636364,4.7516555,193.39091)" stroke="url(#radialGradient3903)" stroke-dasharray="none" stroke-miterlimit="4" stroke-width="4.04730415" fill="none"/>
  <path d="M181,129.5a75.5,82.5,0,1,1,-151,0,75.5,82.5,0,1,1,151,0z" transform="matrix(0.24503311,0,0,0.22424242,6.1490068,194.96061)" stroke="url(#radialGradient3871)" stroke-dasharray="none" stroke-miterlimit="4" stroke-width="4.266078" fill="none"/>
  <path d="M181,129.5a75.5,82.5,0,1,1,-151,0,75.5,82.5,0,1,1,151,0z" transform="matrix(0.23178808,0,0,0.21212121,7.5463576,196.5303)" stroke="url(#radialGradient3911)" stroke-dasharray="none" stroke-miterlimit="4" stroke-width="4.50985336" fill="none"/>
  <path d="M181,129.5a75.5,82.5,0,1,1,-151,0,75.5,82.5,0,1,1,151,0z" fill-rule="evenodd" transform="matrix(0.2781457,0,0,0.25454545,2.655629,191.03636)" fill="url(#linearGradient3991)"/>
  <path d="M181,129.5a75.5,82.5,0,1,1,-151,0,75.5,82.5,0,1,1,151,0z" fill-rule="evenodd" transform="matrix(0.22516556,0,0,0.20606061,8.2450332,197.31515)" fill="url(#radialGradient3967)"/>
  <path d="M181,129.5a75.5,82.5,0,1,1,-151,0,75.5,82.5,0,1,1,151,0z" fill-rule="evenodd" transform="matrix(0.18543046,0,0,0.16969697,12.437086,202.02424)" fill="url(#linearGradient4069)"/>
  <path d="M181,129.5a75.5,82.5,0,1,1,-151,0,75.5,82.5,0,1,1,151,0z" fill-rule="evenodd" transform="matrix(0.17218543,0,0,0.15757576,13.834437,203.59394)" fill="url(#radialGradient4071)"/>
  <path d="M181,129.5a75.5,82.5,0,1,1,-151,0,75.5,82.5,0,1,1,151,0z" fill-rule="evenodd" transform="matrix(0.05298013,0,0,0.04848485,26.410596,217.72121)" fill="url(#linearGradient4089)"/>
  <path d="M181,129.5a75.5,82.5,0,1,1,-151,0,75.5,82.5,0,1,1,151,0z" fill-rule="evenodd" transform="matrix(0.0397351,0,0,0.03636364,27.807947,219.29091)" fill="url(#radialGradient4097)"/>
  <path d="M181,129.5a75.5,82.5,0,1,1,-151,0,75.5,82.5,0,1,1,151,0z" fill-rule="evenodd" transform="matrix(0.01986755,0,0,0.01818182,29.903973,221.64545)" fill="url(#radialGradient4182)"/>
  <path d="M181,129.5a75.5,82.5,0,1,1,-151,0,75.5,82.5,0,1,1,151,0z" fill-rule="evenodd" transform="matrix(0.02649007,0,0,0.02424242,29.205298,220.86061)" fill="url(#radialGradient4156)"/>
  <path d="M181,129.5a75.5,82.5,0,1,1,-151,0,75.5,82.5,0,1,1,151,0z" fill-rule="evenodd" transform="matrix(0.02649007,0,0,0.02424242,29.205298,220.86061)" fill="url(#radialGradient4160)"/>
  <path d="M181,129.5a75.5,82.5,0,1,1,-151,0,75.5,82.5,0,1,1,151,0z" fill-rule="evenodd" transform="matrix(0.21192053,0,0,0.19393939,9.6423841,198.88485)" fill="url(#radialGradient4110)"/>
  <path d="M181,129.5a75.5,82.5,0,1,1,-151,0,75.5,82.5,0,1,1,151,0z" fill-rule="evenodd" transform="matrix(0.21192053,0,0,0.19393939,9.6423841,198.88485)" fill="url(#radialGradient4120)"/>
  <path d="M181,129.5a75.5,82.5,0,1,1,-151,0,75.5,82.5,0,1,1,151,0z" fill-rule="evenodd" transform="matrix(0.21192053,0,0,0.19393939,9.6423841,198.88485)" fill="url(#radialGradient4130)"/>
  <path d="M181,129.5a75.5,82.5,0,1,1,-151,0,75.5,82.5,0,1,1,151,0z" transform="matrix(0.20529801,0,0,0.18787879,10.34106,199.6697)" stroke="url(#linearGradient4142)" stroke-dasharray="none" stroke-miterlimit="4" stroke-width="5.09177017" fill="none"/>
  <path d="M181,129.5a75.5,82.5,0,1,1,-151,0,75.5,82.5,0,1,1,151,0z" fill-rule="evenodd" transform="matrix(0.21192053,0,0,0.19393939,9.6423841,198.88485)" fill="url(#radialGradient4198)"/>
  <path d="M181,129.5a75.5,82.5,0,1,1,-151,0,75.5,82.5,0,1,1,151,0z" fill-rule="evenodd" transform="matrix(0.21192053,0,0,0.19393939,9.6423841,198.88485)" fill="url(#radialGradient4204)"/>
  <path fill-rule="evenodd" fill="url(#radialGradient4246)" d="M32.449,208c-9.085,0-16.449,7.35-16.449,16.43,0,4.02,1.45,7.71,3.859,10.57,3.188-9.58,12.235-16.49,22.898-16.49,1.801,0,3.554,0.2,5.243,0.58-2.22-6.45-8.339-11.09-15.551-11.09z"/>
  <path d="M106.25,63.562c-3.9,1.318-7.638,2.999-11.188,4.969l9.658,17.469c2.51-1.398,5.17-2.536,7.94-3.469l-6.41-18.969zm-20.094,10.876c-8.402,6.573-15.219,15.072-19.781,24.843l18.094,8.439c3.221-6.9,8.064-12.89,14-17.532l-12.313-15.75zm-21.656,29.222c-1.645,4.28-2.874,8.78-3.625,13.43l19.75,3.22c0.53-3.29,1.398-6.46,2.563-9.5l-18.688-7.15zm107,44.65c-1.97,4.22-4.54,8.1-7.59,11.53l14.97,13.28c4.33-4.87,7.95-10.39,10.74-16.37l-18.12-8.44zm-9.56,13.63c-3.32,3.31-7.12,6.17-11.28,8.4l9.43,17.6c5.91-3.17,11.31-7.15,16-11.85l-14.15-14.15z" fill-rule="evenodd" transform="matrix(0.24662254,0,0,0.24721416,2.1105268,191.41282)" filter="url(#filter4183)" fill="url(#radialGradient4165)"/>
  <path d="M118,108a14.5,15,0,1,1,-29,0,14.5,15,0,1,1,29,0z" fill-rule="evenodd" fill-opacity="0.05882353" transform="matrix(0.41762915,0,0,0.40324269,-17.84672,171.39989)" filter="url(#filter4258)" fill="#FFF"/>
  <path d="M73,237a18,10,0,1,1,-36,0,18,10,0,1,1,36,0z" fill-rule="evenodd" transform="matrix(0.47099288,0,0,0.12097281,-8.5201328,221.11972)" fill="url(#linearGradient4261)"/>
  <path d="M73,237a18,10,0,1,1,-36,0,18,10,0,1,1,36,0z" fill-rule="evenodd" transform="matrix(0.45753594,0,0,0.10887553,-7.7800014,223.8658)" fill="url(#linearGradient4261)"/>
  <path d="M73,237a18,10,0,1,1,-36,0,18,10,0,1,1,36,0z" fill-rule="evenodd" transform="matrix(0.44407899,0,0,0.09677825,-7.0398694,226.61189)" fill="url(#linearGradient4261)"/>
  <path d="M73,237a18,10,0,1,1,-36,0,18,10,0,1,1,36,0z" fill-rule="evenodd" transform="matrix(0.43062207,0,0,0.08468097,-6.2997381,229.35797)" fill="url(#linearGradient4261)"/>
  <path d="M73,237a18,10,0,1,1,-36,0,18,10,0,1,1,36,0z" fill-rule="evenodd" transform="matrix(0.41716511,0,0,0.07258369,-5.5596061,232.10405)" fill="url(#linearGradient4261)"/>
  <path d="M73,237a18,10,0,1,1,-36,0,18,10,0,1,1,36,0z" fill-rule="evenodd" transform="matrix(0.40370819,0,0,0.06048641,-4.819475,234.85014)" fill="url(#linearGradient4261)"/>
  <path d="M225,230.5a14.5,3.5,0,1,1,-29,0,14.5,3.5,0,1,1,29,0z" fill-rule="evenodd" transform="matrix(0.4176291,0,0,0.3456366,-35.161615,168.18548)" fill="url(#linearGradient4293)"/>
  <path d="M225,230.5a14.5,3.5,0,1,1,-29,0,14.5,3.5,0,1,1,29,0z" fill-rule="evenodd" transform="matrix(0.40092394,0,0,0.31107295,-31.645177,176.03143)" fill="url(#linearGradient4293)"/>
  <path d="M225,230.5a14.5,3.5,0,1,1,-29,0,14.5,3.5,0,1,1,29,0z" fill-rule="evenodd" transform="matrix(0.38421878,0,0,0.27650928,-28.12874,183.87737)" fill="url(#linearGradient4293)"/>
  <path d="M225,230.5a14.5,3.5,0,1,1,-29,0,14.5,3.5,0,1,1,29,0z" fill-rule="evenodd" transform="matrix(0.36751362,0,0,0.24194562,-24.612303,191.72332)" fill="url(#linearGradient4293)"/>
  <path d="M225,230.5a14.5,3.5,0,1,1,-29,0,14.5,3.5,0,1,1,29,0z" fill-rule="evenodd" transform="matrix(0.35080846,0,0,0.20738197,-21.095866,199.56928)" fill="url(#linearGradient4293)"/>
  <path d="M225,230.5a14.5,3.5,0,1,1,-29,0,14.5,3.5,0,1,1,29,0z" fill-rule="evenodd" transform="matrix(0.33410329,0,0,0.17281831,-17.57943,207.41523)" fill="url(#linearGradient4293)"/>
  <path opacity="0.03999999" d="M27,170c-22.424-38.84,22.07-77.18,47-34,17.912-31.02,64.64,5.4,51.6,28,37.92-10.16,16.43,32.79,7.4,38-26.87,22.74-119.05,16.7-106-32z" clip-path="url(#clipPath4106)" transform="matrix(0.24222491,0,0,0.24194562,2.3665308,191.72332)" filter="url(#filter4134)" fill="#FFF"/>
  <path opacity="0.03999999" d="M179,163c-18.55-4.97-29.74,22.26-20,32,40.06,40.06,90.91-23.09,71-43-17.85-30.92-51-16.36-51,11z" clip-path="url(#clipPath4110)" transform="matrix(0.24222491,0,0,0.24194562,2.3665308,191.72332)" filter="url(#filter4142)" fill="#FFF"/>
  <path d="M6.5,234c-5.4315-9.4,5.461-18.45,11.5-8,4.339-7.51,15.66,1.03,12.5,6.5,9.186-2.46,3.688,8.24,1.5,9.5-6.508,5.5-28.661,3.78-25.5-8z" stroke="url(#linearGradient4064)" fill="url(#radialGradient3962)"/>
  <path d="M47,232.5c-4.493-1.2-7.36,5.64-5,8,9.704,9.69,21.823-5.68,17-10.5-4.324-7.48-12-4.12-12,2.5z" stroke="url(#linearGradient4072)" fill="url(#radialGradient4038)"/>
  <path d="M7,234c-5.4315-9.4,4.961-17.95,11-7.5,4.339-7.51,15.16,1.03,12,6.5,9.186-2.46,3.688,7.24,1.5,8.5-6.508,5.5-27.661,4.28-24.5-7.5z" fill="url(#radialGradient4030)"/>
  <path d="M47.5,233c-4.493-1.2-7.36,4.64-5,7,9.704,9.69,20.823-4.68,16-9.5-4.324-7.48-11-4.12-11,2.5z" fill="url(#radialGradient4042)"/>
  <path d="M7.5,234c-5.4315-9.4,4.461-17.45,10.5-7,4.339-7.51,14.66,1.03,11.5,6.5,9.186-2.46,3.688,6.24,1.5,7.5-6.508,5.5-26.661,4.78-23.5-7z" stroke-opacity="0.39215686" stroke="#FFF" fill="none"/>
  <path d="M48,233.5c-4.493-1.2-7.36,4.14-5,6.5,8.667,8.67,19.298-5.2,15-9.5-3.992-6.91-10-3.62-10,3z" stroke-opacity="0.39215686" stroke="#FFF" fill="none"/>
  <g fill-rule="evenodd" transform="matrix(0.24222491,0,0,0.24194562,2.3665308,191.72332)" clip-path="url(#clipPath4323)">
   <path d="M119,158.5a24.5,26.5,0,1,1,-49,0,24.5,26.5,0,1,1,49,0z" transform="matrix(1.2244898,0,0,1.1132075,-27.714283,-16.943387)" filter="url(#filter4110)" fill="url(#radialGradient4064)"/>
   <path d="M119,158.5a24.5,26.5,0,1,1,-49,0,24.5,26.5,0,1,1,49,0z" transform="matrix(1.1836735,0,0,1.1320755,-76.857145,-28.433962)" filter="url(#filter4114)" fill="url(#radialGradient4068)"/>
  </g>
  <path d="M119,158.5a24.5,26.5,0,1,1,-49,0,24.5,26.5,0,1,1,49,0z" clip-path="url(#clipPath4330)" fill-rule="evenodd" transform="matrix(0.28671521,0,0,0.23738062,26.623624,194.26148)" filter="url(#filter4123)" fill="url(#radialGradient4121)"/>
 </g>
</svg>
