<?xml version="1.0" encoding="UTF-8" standalone="no"?>
<!-- Created with Inkscape (http://www.inkscape.org/) -->
<svg xmlns:rdf="http://www.w3.org/1999/02/22-rdf-syntax-ns#" xmlns="http://www.w3.org/2000/svg" height="32" width="32" version="1.1" xmlns:cc="http://creativecommons.org/ns#" xmlns:xlink="http://www.w3.org/1999/xlink" xmlns:dc="http://purl.org/dc/elements/1.1/">
 <title>Lookit icon - 32px</title>
 <defs>
  <linearGradient id="linearGradient4056">
   <stop stop-color="#e1e1e1" offset="0"/>
   <stop stop-color="#c3c3c3" offset="1"/>
  </linearGradient>
  <linearGradient id="linearGradient4058">
   <stop stop-color="#000" stop-opacity="0.05490196" offset="0"/>
   <stop stop-color="#000" stop-opacity="0" offset="1"/>
  </linearGradient>
  <linearGradient id="linearGradient4024">
   <stop stop-color="#FFF" stop-opacity="0" offset="0"/>
   <stop stop-color="#d9dddf" stop-opacity="0.19607843" offset="1"/>
  </linearGradient>
  <linearGradient id="linearGradient3956">
   <stop stop-color="#FFF" offset="0"/>
   <stop stop-color="#fafafa" offset="0.4"/>
   <stop stop-color="#d8e0e0" offset="1"/>
  </linearGradient>
  <linearGradient id="linearGradient3881">
   <stop stop-color="#000" stop-opacity="0.02745098" offset="0"/>
   <stop stop-color="#000" stop-opacity="0.01176471" offset="0.85"/>
   <stop stop-color="#000" stop-opacity="0" offset="1"/>
  </linearGradient>
  <linearGradient id="linearGradient4104">
   <stop stop-color="#FFF" stop-opacity="0.11764706" offset="0"/>
   <stop stop-color="#FFF" stop-opacity="0" offset="0.5"/>
   <stop stop-color="#FFF" stop-opacity="0" offset="1"/>
  </linearGradient>
  <linearGradient id="linearGradient3815" y2="212" gradientUnits="userSpaceOnUse" x2="158.9" y1="47" x1="158.9">
   <stop stop-color="#373737" offset="0"/>
   <stop stop-color="#191919" offset="1"/>
  </linearGradient>
  <radialGradient id="radialGradient3903" gradientUnits="userSpaceOnUse" cy="207.25" cx="183.21" gradientTransform="matrix(2.0470128,-7.6327576e-8,6.9815798e-8,2.2356649,-191.82071,-248.92411)" r="75.962">
   <stop stop-color="#FFF" stop-opacity="0.19607843" offset="0"/>
   <stop stop-color="#FFF" stop-opacity="0.13725491" offset="1"/>
  </radialGradient>
  <radialGradient id="radialGradient3931" gradientUnits="userSpaceOnUse" cy="159.55" cx="135.55" gradientTransform="matrix(0.99999984,0,0,1.0927147,-30.045895,-44.838189)" r="75.5">
   <stop stop-color="#000" offset="0"/>
   <stop stop-color="#cdcdcd" offset="0.85"/>
   <stop stop-color="#bebebe" offset="1"/>
  </radialGradient>
  <linearGradient id="linearGradient3941" y2="47" gradientUnits="userSpaceOnUse" x2="181" y1="212" x1="30">
   <stop stop-color="#000" stop-opacity="0" offset="0"/>
   <stop stop-color="#e1e1e1" stop-opacity="0.17647059" offset="0.35"/>
   <stop stop-color="#FFF" stop-opacity="0.29411766" offset="0.55"/>
   <stop stop-color="#e1e1e1" stop-opacity="0.09803922" offset="0.75"/>
   <stop stop-color="#000" stop-opacity="0" offset="1"/>
  </linearGradient>
  <linearGradient id="linearGradient3957" y2="47" gradientUnits="userSpaceOnUse" x2="30" y1="212" x1="181">
   <stop stop-color="#000" stop-opacity="0.84313726" offset="0"/>
   <stop stop-color="#646464" stop-opacity="0" offset="0.75"/>
   <stop stop-color="#FFF" stop-opacity="0.82352942" offset="1"/>
  </linearGradient>
  <radialGradient id="radialGradient3967" gradientUnits="userSpaceOnUse" cy="129.5" cx="105.5" gradientTransform="matrix(1,0,0,1.0927152,0,-12.006623)" r="75.5">
   <stop stop-color="#3c3c3c" offset="0"/>
   <stop stop-color="#323232" offset="1"/>
  </radialGradient>
  <linearGradient id="linearGradient3991" y2="47" gradientUnits="userSpaceOnUse" x2="30" y1="212" x1="181">
   <stop stop-color="#000" stop-opacity="0" offset="0"/>
   <stop stop-color="#FFF" stop-opacity="0" offset="0.3"/>
   <stop stop-color="#FFF" stop-opacity="0.11764706" offset="0.55"/>
   <stop stop-color="#FFF" stop-opacity="0" offset="0.8"/>
   <stop stop-color="#000" stop-opacity="0" offset="1"/>
  </linearGradient>
  <radialGradient id="radialGradient4071" gradientUnits="userSpaceOnUse" cy="129.5" cx="105.5" gradientTransform="matrix(1,0,0,1.0927152,0,-12.006623)" r="75.5">
   <stop stop-color="#2d2d2d" offset="0"/>
   <stop stop-color="#232323" offset="0.75"/>
   <stop stop-color="#1e1e1e" offset="1"/>
  </radialGradient>
  <radialGradient id="radialGradient4110" xlink:href="#linearGradient4104" gradientUnits="userSpaceOnUse" cy="184.75" cx="160.08" gradientTransform="matrix(1.4571666,0,0,1.5922681,-84.125913,-115.92156)" r="75.5"/>
  <radialGradient id="radialGradient4120" xlink:href="#linearGradient4104" gradientUnits="userSpaceOnUse" cy="112.68" cx="88.683" gradientTransform="matrix(1.4571666,0,0,1.5922681,-84.125913,-115.92156)" r="75.5"/>
  <radialGradient id="radialGradient4130" gradientUnits="userSpaceOnUse" cy="129.5" cx="105.5" gradientTransform="matrix(1,0,0,1.0927152,0,-12.006623)" r="75.5">
   <stop stop-color="#FFF" stop-opacity="0" offset="0"/>
   <stop stop-color="#FFF" stop-opacity="0.03921569" offset="0.9"/>
   <stop stop-color="#FFF" stop-opacity="0.17647059" offset="1"/>
  </radialGradient>
  <linearGradient id="linearGradient4142" y2="212.55" gradientUnits="userSpaceOnUse" x2="181.51" y1="46.446" x1="29.493">
   <stop stop-color="#FFF" stop-opacity="0.39215687" offset="0"/>
   <stop stop-color="#FFF" stop-opacity="0.05882353" offset="0.3"/>
   <stop stop-color="#FFF" stop-opacity="0.19607843" offset="0.5"/>
   <stop stop-color="#FFF" stop-opacity="0.05882353" offset="0.7"/>
   <stop stop-color="#FFF" stop-opacity="0.15686275" offset="1"/>
  </linearGradient>
  <linearGradient id="linearGradient3887" y2="226.54" xlink:href="#linearGradient3881" spreadMethod="reflect" gradientUnits="userSpaceOnUse" x2="174.05" y1="226.54" x1="127.57"/>
  <radialGradient id="radialGradient3962" xlink:href="#linearGradient3956" gradientUnits="userSpaceOnUse" cy="179.44" cx="60.271" gradientTransform="matrix(0.20820534,0,0,0.16071679,-3.9778211,212.30665)" r="63.202"/>
  <radialGradient id="radialGradient4030" xlink:href="#linearGradient4024" gradientUnits="userSpaceOnUse" cy="146.18" cx="99.384" gradientTransform="matrix(0.18501584,0,0,0.14281648,-3.9814463,220.07393)" r="63.202"/>
  <radialGradient id="radialGradient4038" xlink:href="#linearGradient3956" gradientUnits="userSpaceOnUse" cy="144.03" cx="198.93" gradientTransform="matrix(0.23550709,0,0,0.21819376,-21.626137,209.46763)" r="39.529"/>
  <radialGradient id="radialGradient4042" xlink:href="#linearGradient4024" gradientUnits="userSpaceOnUse" cy="142.62" cx="216.68" gradientTransform="matrix(0.15760831,0,0,0.14602172,-7.0824745,220.87403)" r="39.529"/>
  <radialGradient id="radialGradient4198" gradientUnits="userSpaceOnUse" cy="157.02" cx="133.77" gradientTransform="matrix(3.1385248,0,0,3.4295134,-237.83215,-328.71425)" r="75.5">
   <stop stop-color="#00b0fa" stop-opacity="0" offset="0"/>
   <stop stop-color="#00b0fa" stop-opacity="0.01960784" offset="0.35"/>
   <stop stop-color="#00affa" stop-opacity="0.09803922" offset="1"/>
  </radialGradient>
  <radialGradient id="radialGradient4204" gradientUnits="userSpaceOnUse" cy="109.87" cx="85.658" gradientTransform="matrix(3.1385248,0,0,3.4295134,-237.83215,-328.71425)" r="75.5">
   <stop stop-color="#1bfa00" stop-opacity="0" offset="0"/>
   <stop stop-color="#1dfa00" stop-opacity="0" offset="0.35"/>
   <stop stop-color="#1dfa00" stop-opacity="0.05882353" offset="1"/>
  </radialGradient>
  <radialGradient id="radialGradient4246" gradientUnits="userSpaceOnUse" cy="55.007" cx="32.013" gradientTransform="matrix(0.24347128,0,0,0.24012818,-0.5475932,217.91302)" r="75.5">
   <stop stop-color="#FFF" stop-opacity="0.09803922" offset="0"/>
   <stop stop-color="#FFF" stop-opacity="0" offset="1"/>
  </radialGradient>
  <radialGradient id="radialGradient4064" xlink:href="#linearGradient4058" gradientUnits="userSpaceOnUse" cy="176.39" cx="105.13" gradientTransform="matrix(1.4017206,0,0,1.5161469,-41.655372,-89.762932)" r="24.5"/>
  <radialGradient id="radialGradient4068" xlink:href="#linearGradient4058" gradientUnits="userSpaceOnUse" cy="174.79" cx="97.933" gradientTransform="matrix(1.0856486,0,0,1.174273,-9.2772723,-28.806597)" r="24.5"/>
  <filter id="filter4110" height="1.2307739" width="1.2496126" color-interpolation-filters="sRGB" y="-0.11538695" x="-0.12480629">
   <feGaussianBlur stdDeviation="2.5481284"/>
  </filter>
  <filter id="filter4114" height="1.2307988" width="1.2496396" color-interpolation-filters="sRGB" y="-0.11539945" x="-0.12481981">
   <feGaussianBlur stdDeviation="2.5484045"/>
  </filter>
  <radialGradient id="radialGradient4121" xlink:href="#linearGradient4058" gradientUnits="userSpaceOnUse" cy="178.05" cx="96.824" gradientTransform="matrix(1.4017206,0,0,1.5161469,-41.655372,-89.762932)" r="24.5"/>
  <filter id="filter4123" height="1.2311099" width="1.2499759" color-interpolation-filters="sRGB" y="-0.1155549" x="-0.12498795">
   <feGaussianBlur stdDeviation="2.5518374"/>
  </filter>
  <clipPath id="clipPath4323" clipPathUnits="userSpaceOnUse">
   <path fill="#FFF" d="M17,175c-22.424-38.84,22.07-77.18,47-34,17.912-31.02,64.64,5.4,51.6,28,37.92-10.16,16.43,32.79,7.4,38-26.867,22.74-119.05,16.7-106-32z"/>
  </clipPath>
  <clipPath id="clipPath4330" clipPathUnits="userSpaceOnUse">
   <path fill="#FFF" d="M70.845,160.54c-15.671-5.07-25.127,22.68-16.897,32.61,33.844,40.83,76.802-23.53,59.982-43.82-15.079-31.51-43.085-16.68-43.085,11.21z"/>
  </clipPath>
  <linearGradient id="linearGradient4342" y2="212.42" gradientUnits="userSpaceOnUse" x2="52.052" y1="46.577" x1="52.052">
   <stop stop-color="#FFF" stop-opacity="0.49019608" offset="0"/>
   <stop stop-color="#FFF" stop-opacity="0.39215687" offset="1"/>
  </linearGradient>
  <linearGradient id="linearGradient4047" y2="213.68" gradientUnits="userSpaceOnUse" x2="31.541" y1="45.316" x1="31.541">
   <stop stop-color="#a5a5a5" offset="0"/>
   <stop stop-color="#787878" offset="1"/>
  </linearGradient>
  <linearGradient id="linearGradient4064" y2="245.5" xlink:href="#linearGradient4056" gradientUnits="userSpaceOnUse" x2="4.5267" gradientTransform="matrix(0.47582849,0,0,0.47529711,1.1695941,132.94058)" y1="220.83" x1="4.5267"/>
  <linearGradient id="linearGradient4072" y2="244.14" xlink:href="#linearGradient4056" gradientUnits="userSpaceOnUse" x2="40.654" gradientTransform="matrix(0.47582849,0,0,0.47529711,1.1695941,132.94058)" y1="225.24" x1="40.654"/>
  <filter id="filter4537" height="1.8258812" width="1.85436" color-interpolation-filters="sRGB" y="-0.41294068" x="-0.42718002">
   <feGaussianBlur stdDeviation="5.1617584"/>
  </filter>
 </defs>
 <metadata>
  <rdf:RDF>
   <cc:Work rdf:about="">
    <dc:format>image/svg+xml</dc:format>
    <dc:type rdf:resource="http://purl.org/dc/dcmitype/StillImage"/>
    <dc:title>Lookit icon - 32px</dc:title>
    <dc:creator>
     <cc:Agent>
      <dc:title>Harenome Ranaivoarivony Razanajato</dc:title>
     </cc:Agent>
    </dc:creator>
    <cc:license rdf:resource="http://www.gnu.org/licenses/gpl.html"/>
   </cc:Work>
  </rdf:RDF>
 </metadata>
 <g transform="translate(0,-224)">
  <path d="M174,226.54a46.433,12.456,0,1,1,-92.866,0,46.433,12.456,0,1,1,92.866,0z" fill-rule="evenodd" transform="matrix(0.17767529,0,0,0.14049685,-6.6655,220.92125)" fill="url(#linearGradient3887)"/>
  <path d="M174,226.54a46.433,12.456,0,1,1,-92.866,0,46.433,12.456,0,1,1,92.866,0z" fill-rule="evenodd" transform="matrix(0.17229119,0,0,0.12042587,-5.9786666,225.46822)" fill="url(#linearGradient3887)"/>
  <path d="M174,226.54a46.433,12.456,0,1,1,-92.866,0,46.433,12.456,0,1,1,92.866,0z" fill-rule="evenodd" transform="matrix(0.16690709,0,0,0.10035489,-5.2918333,230.01518)" fill="url(#linearGradient3887)"/>
  <path d="M174,226.54a46.433,12.456,0,1,1,-92.866,0,46.433,12.456,0,1,1,92.866,0z" fill-rule="evenodd" transform="matrix(0.16152299,0,0,0.08028391,-4.6049999,234.56215)" fill="url(#linearGradient3887)"/>
  <path d="M174,226.54a46.433,12.456,0,1,1,-92.866,0,46.433,12.456,0,1,1,92.866,0z" fill-rule="evenodd" transform="matrix(0.15613889,0,0,0.06021294,-3.9181666,239.10911)" fill="url(#linearGradient3887)"/>
  <path d="M174,226.54a46.433,12.456,0,1,1,-92.866,0,46.433,12.456,0,1,1,92.866,0z" fill-rule="evenodd" transform="matrix(0.15075479,0,0,0.04014196,-3.2313332,243.65607)" fill="url(#linearGradient3887)"/>
  <path d="M174,226.54a46.433,12.456,0,1,1,-92.866,0,46.433,12.456,0,1,1,92.866,0z" fill-rule="evenodd" transform="matrix(0.1130661,0,0,0.12042587,1.5764995,225.71822)" fill="url(#linearGradient3887)"/>
  <path d="M174,226.54a46.433,12.456,0,1,1,-92.866,0,46.433,12.456,0,1,1,92.866,0z" fill-rule="evenodd" transform="matrix(0.107682,0,0,0.10035489,2.2633328,230.26518)" fill="url(#linearGradient3887)"/>
  <path d="M174,226.54a46.433,12.456,0,1,1,-92.866,0,46.433,12.456,0,1,1,92.866,0z" fill-rule="evenodd" transform="matrix(0.1022979,0,0,0.08028391,2.9501662,234.81215)" fill="url(#linearGradient3887)"/>
  <path d="M174,226.54a46.433,12.456,0,1,1,-92.866,0,46.433,12.456,0,1,1,92.866,0z" fill-rule="evenodd" transform="matrix(0.0969138,0,0,0.06021294,3.6369996,239.35911)" fill="url(#linearGradient3887)"/>
  <path d="M174,226.54a46.433,12.456,0,1,1,-92.866,0,46.433,12.456,0,1,1,92.866,0z" fill-rule="evenodd" transform="matrix(0.0915297,0,0,0.04014196,4.3238329,243.90607)" fill="url(#linearGradient3887)"/>
  <path d="M174,226.54a46.433,12.456,0,1,1,-92.866,0,46.433,12.456,0,1,1,92.866,0z" fill-rule="evenodd" transform="matrix(0.0861456,0,0,0.02007098,5.0106663,248.45303)" fill="url(#linearGradient3887)"/>
  <path d="M181,129.5a75.5,82.5,0,1,1,-151,0,75.5,82.5,0,1,1,151,0z" fill-rule="evenodd" transform="matrix(0.16556291,0,0,0.15151515,-1.4668873,220.37879)" stroke="url(#linearGradient4047)" stroke-miterlimit="4" stroke-dasharray="none" stroke-width="6.31379509" fill="url(#radialGradient3931)"/>
  <path d="M181,129.5a75.5,82.5,0,1,1,-151,0,75.5,82.5,0,1,1,151,0z" fill-rule="evenodd" transform="matrix(0.1589404,0,0,0.14545455,-0.768212,221.16364)" fill="url(#linearGradient3941)"/>
  <path d="M181,129.5a75.5,82.5,0,1,1,-151,0,75.5,82.5,0,1,1,151,0z" fill-rule="evenodd" transform="matrix(0.1589404,0,0,0.14545455,-0.768212,221.16364)" fill="url(#linearGradient3957)"/>
  <path d="M181,129.5a75.5,82.5,0,1,1,-151,0,75.5,82.5,0,1,1,151,0z" transform="matrix(0.15231788,0,0,0.13939394,-0.06953643,221.94848)" stroke="url(#linearGradient4342)" stroke-dasharray="none" stroke-miterlimit="4" stroke-width="6.86281967" fill="none"/>
  <path d="M181,129.5a75.5,82.5,0,1,1,-151,0,75.5,82.5,0,1,1,151,0z" fill-rule="evenodd" transform="matrix(0.13245033,0,0,0.12121212,2.0264901,224.30303)" fill="url(#linearGradient3815)"/>
  <path d="M181,129.5a75.5,82.5,0,1,1,-151,0,75.5,82.5,0,1,1,151,0z" transform="matrix(0.11258278,0,0,0.1030303,4.1225166,226.65758)" stroke="url(#radialGradient3903)" stroke-dasharray="none" stroke-miterlimit="4" stroke-width="9.28499222" fill="none"/>
  <path d="M181,129.5a75.5,82.5,0,1,1,-151,0,75.5,82.5,0,1,1,151,0z" fill-rule="evenodd" transform="matrix(0.13245033,0,0,0.12121212,2.0264901,224.30303)" fill="url(#linearGradient3991)"/>
  <path d="M181,129.5a75.5,82.5,0,1,1,-151,0,75.5,82.5,0,1,1,151,0z" fill-rule="evenodd" transform="matrix(0.10596026,0,0,0.0969697,4.8211922,227.44242)" fill="url(#radialGradient3967)"/>
  <path d="M181,129.5a75.5,82.5,0,1,1,-151,0,75.5,82.5,0,1,1,151,0z" fill-rule="evenodd" transform="matrix(0.0794702,0,0,0.07272727,7.615894,230.58182)" fill="url(#radialGradient4071)"/>
  <path d="M181,129.5a75.5,82.5,0,1,1,-151,0,75.5,82.5,0,1,1,151,0z" fill-rule="evenodd" fill-opacity="0.39215686" transform="matrix(0.02649007,0,0,0.02424243,13.205298,236.8606)" fill="#000"/>
  <path d="M181,129.5a75.5,82.5,0,1,1,-151,0,75.5,82.5,0,1,1,151,0z" fill-rule="evenodd" fill-opacity="0.09803922" transform="matrix(0.01324503,0,0,0.01212121,14.602649,238.4303)" fill="#FFF"/>
  <path d="M181,129.5a75.5,82.5,0,1,1,-151,0,75.5,82.5,0,1,1,151,0z" fill-rule="evenodd" transform="matrix(0.1192053,0,0,0.1090909,3.423841,225.87273)" fill="url(#radialGradient4110)"/>
  <path d="M181,129.5a75.5,82.5,0,1,1,-151,0,75.5,82.5,0,1,1,151,0z" fill-rule="evenodd" transform="matrix(0.1192053,0,0,0.1090909,3.423841,225.87273)" fill="url(#radialGradient4120)"/>
  <path d="M181,129.5a75.5,82.5,0,1,1,-151,0,75.5,82.5,0,1,1,151,0z" fill-rule="evenodd" transform="matrix(0.1192053,0,0,0.1090909,3.423841,225.87273)" fill="url(#radialGradient4130)"/>
  <path d="M181,129.5a75.5,82.5,0,1,1,-151,0,75.5,82.5,0,1,1,151,0z" transform="matrix(0.11258278,0,0,0.10303031,4.1225166,226.65757)" stroke="url(#linearGradient4142)" stroke-dasharray="none" stroke-miterlimit="4" stroke-width="9.28499222" fill="none"/>
  <path d="M181,129.5a75.5,82.5,0,1,1,-151,0,75.5,82.5,0,1,1,151,0z" fill-rule="evenodd" transform="matrix(0.1192053,0,0,0.1090909,3.423841,225.87273)" fill="url(#radialGradient4198)"/>
  <path d="M181,129.5a75.5,82.5,0,1,1,-151,0,75.5,82.5,0,1,1,151,0z" fill-rule="evenodd" transform="matrix(0.1192053,0,0,0.1090909,3.423841,225.87273)" fill="url(#radialGradient4204)"/>
  <path fill-rule="evenodd" fill="url(#radialGradient4246)" d="M16.253,231c-5.111,0-9.253,4.09-9.253,9.13,0,2.23,0.8158,4.28,2.1705,5.87,1.7935-5.32,6.8825-9.16,12.88-9.16,1.013,0,1.999,0.11,2.949,0.32-1.249-3.58-4.691-6.16-8.747-6.16z"/>
  <path d="M118,108a14.5,15,0,1,1,-29,0,14.5,15,0,1,1,29,0z" fill-rule="evenodd" fill-opacity="0.19607843" transform="matrix(0.24137931,0,0,0.23333334,-11.482759,210.3)" filter="url(#filter4537)" fill="#FFF"/>
  <path d="M4,244.5c-2.5844-4.47,2.6267-8.97,5.5-4,2.065-3.57,7.504,0.4,6,3,4.371-1.17,2.041,3.9,1,4.5-3.097,2.62-14.004,2.1-12.5-3.5z" stroke="url(#linearGradient4064)" stroke-width="1" fill="url(#radialGradient3962)"/>
  <path d="M23.5,243.5c-2.138-0.57-3.623,2.88-2.5,4,4.617,4.61,10.295-2.71,8-5-2.057-3.56-5.5-2.15-5.5,1z" stroke="url(#linearGradient4072)" stroke-width="1" fill="url(#radialGradient4038)"/>
  <path d="M4.5,244.5c-2.5844-4.47,2.1267-7.97,5-3,2.065-3.57,6.504,0.4,5,3,4.371-1.17,2.541,2.4,1.5,3-3.097,2.62-13.004,2.6-11.5-3z" fill="url(#radialGradient4030)"/>
  <path d="M24,244c-2.138-0.57-3.623,1.88-2.5,3,4.617,4.61,9.295-2.21,7-4.5-2.057-3.56-4.5-1.65-4.5,1.5z" fill="url(#radialGradient4042)"/>
  <path d="M5,244.5c-2.5844-4.47,1.6267-7.97,4.5-3,2.065-3.57,6.504,0.4,5,3,3.977-1.07,2.541,1.9,1.5,2.5-3.097,2.62-12.306,2.38-11-2.5z" stroke-opacity="0.58823529" stroke="#FFF" stroke-width="1" fill="none"/>
  <path d="M24.5,244.5c-2.138-0.57-3.623,1.38-2.5,2.5,3.096,3.1,8.295-1.71,6-4-1.729-2.99-3.5-1.65-3.5,1.5z" stroke-opacity="0.58823529" stroke="#FFF" stroke-width="1" fill="none"/>
  <g fill-rule="evenodd" transform="matrix(0.11525751,0,0,0.11499606,2.2956569,224.06612)" clip-path="url(#clipPath4323)">
   <path d="M119,158.5a24.5,26.5,0,1,1,-49,0,24.5,26.5,0,1,1,49,0z" transform="matrix(1.2244898,0,0,1.1132075,-27.714283,-16.943387)" filter="url(#filter4110)" fill="url(#radialGradient4064)"/>
   <path d="M119,158.5a24.5,26.5,0,1,1,-49,0,24.5,26.5,0,1,1,49,0z" transform="matrix(1.1836735,0,0,1.1320755,-76.857145,-28.433962)" filter="url(#filter4114)" fill="url(#radialGradient4068)"/>
  </g>
  <path d="M119,158.5a24.5,26.5,0,1,1,-49,0,24.5,26.5,0,1,1,49,0z" clip-path="url(#clipPath4330)" fill-rule="evenodd" transform="matrix(0.13642727,0,0,0.11282632,13.837872,225.2725)" filter="url(#filter4123)" fill="url(#radialGradient4121)"/>
 </g>
</svg>
