<?xml version="1.0" encoding="UTF-8" standalone="no"?>
<!-- Created with Inkscape (http://www.inkscape.org/) -->

<svg
   xmlns:dc="http://purl.org/dc/elements/1.1/"
   xmlns:cc="http://creativecommons.org/ns#"
   xmlns:rdf="http://www.w3.org/1999/02/22-rdf-syntax-ns#"
   xmlns:svg="http://www.w3.org/2000/svg"
   xmlns="http://www.w3.org/2000/svg"
   xmlns:sodipodi="http://sodipodi.sourceforge.net/DTD/sodipodi-0.dtd"
   xmlns:inkscape="http://www.inkscape.org/namespaces/inkscape"
   width="15"
   height="16"
   id="svg2"
   version="1.1"
   inkscape:version="0.48.1 r9760"
   sodipodi:docname="lookit-icon_mono-plain_16.svg">
  <title
     id="title3767">Lookit icon - mono dark - 16px</title>
  <defs
     id="defs4" />
  <sodipodi:namedview
     id="base"
     pagecolor="#ffffff"
     bordercolor="#666666"
     borderopacity="1.0"
     inkscape:pageopacity="0.0"
     inkscape:pageshadow="2"
     inkscape:zoom="8"
     inkscape:cx="11.178692"
     inkscape:cy="0.38042859"
     inkscape:document-units="px"
     inkscape:current-layer="layer1"
     showgrid="false"
     showguides="true"
     inkscape:guide-bbox="true" />
  <metadata
     id="metadata7">
    <rdf:RDF>
      <cc:Work
         rdf:about="">
        <dc:format>image/svg+xml</dc:format>
        <dc:type
           rdf:resource="http://purl.org/dc/dcmitype/StillImage" />
        <dc:title>Lookit icon - mono dark - 16px</dc:title>
        <dc:creator>
          <cc:Agent>
            <dc:title>Harenome Ranaivoarivony Razanajato</dc:title>
          </cc:Agent>
        </dc:creator>
        <cc:license
           rdf:resource="http://www.gnu.org/licenses/gpl.html" />
      </cc:Work>
    </rdf:RDF>
  </metadata>
  <g
     inkscape:groupmode="layer"
     id="layer2"
     inkscape:label="background"
     style="display:inline">
    <rect
       style="fill:#808080;fill-opacity:1;fill-rule:evenodd;stroke:none"
       id="rect2986"
       width="36"
       height="36"
       x="-10"
       y="-10"
       rx="2.9308121"
       ry="2.9308121" />
  </g>
  <g
     inkscape:label="icon"
     inkscape:groupmode="layer"
     id="layer1"
     transform="translate(0,-1036.3622)">
    <path
       inkscape:connector-curvature="0"
       id="path3754"
       d="M 7.5,1037.3622 C 3.3578645,1037.3622 0,1040.7201 0,1044.8622 C 0,1049.0043 3.3578645,1052.3622 7.5,1052.3622 C 11.642136,1052.3622 15,1049.0043 15,1044.8622 C 15,1040.7201 11.642136,1037.3622 7.5,1037.3622 z M 7.5,1038.3622 C 11.089851,1038.3622 14,1041.2723 14,1044.8622 C 14,1048.4521 11.089851,1051.3622 7.5,1051.3622 C 3.9101491,1051.3622 1,1048.4521 1,1044.8622 C 1,1041.2723 3.9101491,1038.3622 7.5,1038.3622 z M 7.5,1039.3622 C 4.4624339,1039.3622 2,1041.8246 2,1044.8622 C 2,1047.8998 4.4624339,1050.3622 7.5,1050.3622 C 10.537566,1050.3622 13,1047.8998 13,1044.8622 C 13,1041.8246 10.537566,1039.3622 7.5,1039.3622 z M 7.5,1043.3622 C 8.3284271,1043.3622 9,1044.0338 9,1044.8622 C 9,1045.6906 8.3284271,1046.3622 7.5,1046.3622 C 6.6715729,1046.3622 6,1045.6906 6,1044.8622 C 6,1044.0338 6.6715729,1043.3622 7.5,1043.3622 z"
       style="fill:#000000;fill-opacity:1;fill-rule:evenodd;stroke:none;opacity:0.3" />
    <path
       style="fill:#dfdbd2;fill-opacity:1;fill-rule:evenodd;stroke:none"
       d="M 7.5,0 C 3.3578645,0 0,3.3578644 0,7.5 C 0,11.642136 3.3578645,15 7.5,15 C 11.642136,15 15,11.642136 15,7.5 C 15,3.3578644 11.642136,0 7.5,0 z M 7.5,1 C 11.089851,1 14,3.9101491 14,7.5 C 14,11.089851 11.089851,14 7.5,14 C 3.9101491,14 1,11.089851 1,7.5 C 1,3.9101491 3.9101491,1 7.5,1 z M 7.5,2 C 4.4624339,2 2,4.4624338 2,7.5 C 2,10.537566 4.4624339,13 7.5,13 C 10.537566,13 13,10.537566 13,7.5 C 13,4.4624338 10.537566,2 7.5,2 z M 7.5,6 C 8.3284271,6 9,6.6715728 9,7.5 C 9,8.3284272 8.3284271,9 7.5,9 C 6.6715729,9 6,8.3284272 6,7.5 C 6,6.6715728 6.6715729,6 7.5,6 z"
       transform="translate(0,1036.3622)"
       id="path3756"
       inkscape:connector-curvature="0" />
  </g>
</svg>
