<?xml version="1.0" encoding="UTF-8" standalone="no"?>
<!-- Created with Inkscape (http://www.inkscape.org/) -->

<svg
   xmlns:dc="http://purl.org/dc/elements/1.1/"
   xmlns:cc="http://creativecommons.org/ns#"
   xmlns:rdf="http://www.w3.org/1999/02/22-rdf-syntax-ns#"
   xmlns:svg="http://www.w3.org/2000/svg"
   xmlns="http://www.w3.org/2000/svg"
   xmlns:sodipodi="http://sodipodi.sourceforge.net/DTD/sodipodi-0.dtd"
   xmlns:inkscape="http://www.inkscape.org/namespaces/inkscape"
   width="16"
   height="16"
   id="svg2"
   version="1.1"
   inkscape:version="0.48.1 r9760"
   sodipodi:docname="lookit-icon_mono-dark_alt_16.svg"
   style="display:inline">
  <title
     id="title4378">Lookit icon - mono dark - alt - 16px</title>
  <defs
     id="defs4" />
  <sodipodi:namedview
     id="base"
     pagecolor="#ffffff"
     bordercolor="#666666"
     borderopacity="1.0"
     inkscape:pageopacity="0.0"
     inkscape:pageshadow="2"
     inkscape:zoom="5.6568542"
     inkscape:cx="21.715284"
     inkscape:cy="15.818133"
     inkscape:document-units="px"
     inkscape:current-layer="layer2"
     showgrid="false"
     inkscape:snap-bbox="true"
     inkscape:bbox-paths="true"
     inkscape:bbox-nodes="true"
     inkscape:snap-bbox-edge-midpoints="true"
     inkscape:snap-bbox-midpoints="true"
     inkscape:object-paths="true"
     inkscape:snap-intersection-paths="true"
     inkscape:object-nodes="true"
     inkscape:snap-smooth-nodes="true"
     inkscape:snap-midpoints="true"
     inkscape:snap-object-midpoints="true"
     inkscape:snap-center="true"
     inkscape:snap-page="false"
     showguides="true"
     inkscape:guide-bbox="true"
     inkscape:snap-global="true" />
  <metadata
     id="metadata7">
    <rdf:RDF>
      <cc:Work
         rdf:about="">
        <dc:format>image/svg+xml</dc:format>
        <dc:type
           rdf:resource="http://purl.org/dc/dcmitype/StillImage" />
        <dc:title>Lookit icon - mono dark - alt - 16px</dc:title>
        <dc:creator>
          <cc:Agent>
            <dc:title>Harenome Ranaivoarivony Razanajato</dc:title>
          </cc:Agent>
        </dc:creator>
        <cc:license
           rdf:resource="http://www.gnu.org/licenses/gpl.html" />
      </cc:Work>
    </rdf:RDF>
  </metadata>
  <g
     inkscape:label="background"
     inkscape:groupmode="layer"
     id="layer1"
     transform="translate(0,-1036.3622)"
     style="display:inline"
     sodipodi:insensitive="true">
    <rect
       style="fill:#dadada;fill-opacity:1;fill-rule:evenodd;stroke:none"
       id="rect2985"
       width="36"
       height="36"
       x="-10"
       y="1026.3622"
       rx="2.2173915"
       ry="2.2173915" />
  </g>
  <g
     inkscape:groupmode="layer"
     id="layer2"
     inkscape:label="icon"
     transform="translate(0,-240)"
     style="display:inline">
    <path
       id="path3850"
       d="M 8,241 C 3.5817219,241 0,244.58172 0,249 C 0,249.93198 0.17578021,250.82448 0.46875,251.65625 C 0.69737222,251.28684 0.93536095,250.94236 1.21875,250.625 C 1.0940586,250.10208 1,249.5611 1,249 C 1,245.13401 4.1340069,242 8,242 C 11.865993,242 15,245.13401 15,249 C 15,249.70399 14.88084,250.39031 14.6875,251.03125 C 14.964625,251.24448 15.257071,251.48592 15.5,251.78125 C 15.820498,250.91585 16,249.97685 16,249 C 16,244.58172 12.418278,241 8,241 z M 8,243 C 4.6862916,243 2,245.68629 2,249 C 2,249.2726 2.0272884,249.54954 2.0625,249.8125 C 2.9607121,249.15678 4.00101,248.92323 5,249.5 C 7.7681986,244.70286 13,247.79877 13,250.5 C 13.249541,250.4331 13.515552,250.45711 13.78125,250.53125 C 13.910232,250.04183 14,249.52993 14,249 C 14,245.68629 11.313708,243 8,243 z M 8.75,248 C 7.4248496,248.01606 6.0380745,248.70107 5,250.5 C 1.6548532,248.56868 -1.0288458,254.82865 1,256 L 15,256 C 17.066169,254.8071 15.074261,250.94391 13,251.5 C 13,249.81173 10.958584,247.97324 8.75,248 z"
       style="fill:#000000;fill-opacity:1;fill-rule:evenodd;stroke:none;opacity:0.3"
       inkscape:connector-curvature="0" />
    <path
       style="fill:#dfdbd2;fill-opacity:1;fill-rule:evenodd;stroke:none"
       d="M 8 0 C 3.5817219 0 0 3.581722 0 8 C 0 8.9319805 0.17578021 9.824479 0.46875 10.65625 C 0.69737222 10.28684 0.93536095 9.9423641 1.21875 9.625 C 1.0940586 9.1020815 1 8.5611007 1 8 C 1 4.1340068 4.1340069 1 8 1 C 11.865993 1 15 4.1340068 15 8 C 15 8.7039867 14.88084 9.3903117 14.6875 10.03125 C 14.964625 10.244481 15.257071 10.485919 15.5 10.78125 C 15.820498 9.9158508 16 8.9768537 16 8 C 16 3.581722 12.418278 0 8 0 z M 8 2 C 4.6862916 2 2 4.6862915 2 8 C 2 8.2725973 2.0272884 8.5495407 2.0625 8.8125 C 2.9607121 8.1567824 4.00101 7.9232333 5 8.5 C 7.7681986 3.70286 13 6.79877 13 9.5 C 13.249541 9.4331004 13.515552 9.4571101 13.78125 9.53125 C 13.910232 9.0418306 14 8.5299322 14 8 C 14 4.6862915 11.313708 2 8 2 z M 8.75 7 C 7.4248496 7.0160554 6.0380745 7.7010725 5 9.5 C 1.6548532 7.56868 -1.0288458 13.82865 1 15 L 15 15 C 17.066169 13.8071 15.074261 9.94391 13 10.5 C 13 8.8117312 10.958584 6.9732409 8.75 7 z "
       transform="translate(0,240)"
       id="path3880" />
  </g>
</svg>
