<?xml version="1.0" encoding="UTF-8" standalone="no"?>
<!-- Created with Inkscape (http://www.inkscape.org/) -->

<svg
   xmlns:dc="http://purl.org/dc/elements/1.1/"
   xmlns:cc="http://creativecommons.org/ns#"
   xmlns:rdf="http://www.w3.org/1999/02/22-rdf-syntax-ns#"
   xmlns:svg="http://www.w3.org/2000/svg"
   xmlns="http://www.w3.org/2000/svg"
   xmlns:sodipodi="http://sodipodi.sourceforge.net/DTD/sodipodi-0.dtd"
   xmlns:inkscape="http://www.inkscape.org/namespaces/inkscape"
   width="21"
   height="22"
   id="svg2"
   version="1.1"
   inkscape:version="0.48.1 r9760"
   sodipodi:docname="lookit-icon_mono-dark_22-24.svg">
  <title
     id="title3767">Lookit icon - mono light - 22-24px</title>
  <defs
     id="defs4" />
  <sodipodi:namedview
     id="base"
     pagecolor="#ffffff"
     bordercolor="#666666"
     borderopacity="1.0"
     inkscape:pageopacity="0.0"
     inkscape:pageshadow="2"
     inkscape:zoom="8"
     inkscape:cx="-13.912808"
     inkscape:cy="-1.8633629"
     inkscape:document-units="px"
     inkscape:current-layer="layer1"
     showgrid="false"
     showguides="true"
     inkscape:guide-bbox="true" />
  <metadata
     id="metadata7">
    <rdf:RDF>
      <cc:Work
         rdf:about="">
        <dc:format>image/svg+xml</dc:format>
        <dc:type
           rdf:resource="http://purl.org/dc/dcmitype/StillImage" />
        <dc:title>Lookit icon - mono light - 22-24px</dc:title>
        <dc:creator>
          <cc:Agent>
            <dc:title>Harenome Ranaivoarivony Razanajato</dc:title>
          </cc:Agent>
        </dc:creator>
        <cc:license
           rdf:resource="http://www.gnu.org/licenses/gpl.html" />
      </cc:Work>
    </rdf:RDF>
  </metadata>
  <g
     inkscape:groupmode="layer"
     id="layer2"
     inkscape:label="background"
     style="display:inline"
     transform="translate(0,6)">
    <rect
       style="fill:#808080;fill-opacity:1;fill-rule:evenodd;stroke:none"
       id="rect2986"
       width="42"
       height="42"
       x="-10"
       y="-16"
       rx="3.4192808"
       ry="3.4192808" />
  </g>
  <g
     inkscape:label="icon"
     inkscape:groupmode="layer"
     id="layer1"
     transform="translate(0,-1030.3622)">
    <path
       id="path3765"
       d="M 10.5,1031.3622 C 4.7010102,1031.3622 0,1036.0632 0,1041.8622 C 0,1047.6612 4.7010102,1052.3622 10.5,1052.3622 C 16.29899,1052.3622 21,1047.6612 21,1041.8622 C 21,1036.0632 16.29899,1031.3622 10.5,1031.3622 z M 10.5,1032.3622 C 15.746705,1032.3622 20,1036.6155 20,1041.8622 C 20,1047.1089 15.746705,1051.3622 10.5,1051.3622 C 5.2532949,1051.3622 1,1047.1089 1,1041.8622 C 1,1036.6155 5.2532949,1032.3622 10.5,1032.3622 z M 10.5,1033.3622 C 5.8055796,1033.3622 2,1037.1678 2,1041.8622 C 2,1046.5566 5.8055796,1050.3622 10.5,1050.3622 C 15.19442,1050.3622 19,1046.5566 19,1041.8622 C 19,1037.1678 15.19442,1033.3622 10.5,1033.3622 z M 10.5,1040.3622 C 11.328427,1040.3622 12,1041.0338 12,1041.8622 C 12,1042.6906 11.328427,1043.3622 10.5,1043.3622 C 9.6715729,1043.3622 9,1042.6906 9,1041.8622 C 9,1041.0338 9.6715729,1040.3622 10.5,1040.3622 z"
       style="fill:#ffffff;fill-opacity:1;fill-rule:evenodd;stroke:none;opacity:0.29999999999999999"
       inkscape:connector-curvature="0" />
    <path
       style="fill:#3c3c3c;fill-opacity:1;fill-rule:evenodd;stroke:none"
       d="M 10.5 0 C 4.7010102 7.1054274e-15 0 4.70101 0 10.5 C 0 16.29899 4.7010102 21 10.5 21 C 16.29899 21 21 16.29899 21 10.5 C 21 4.70101 16.29899 -2.3684758e-15 10.5 0 z M 10.5 1 C 15.746705 1 20 5.2532947 20 10.5 C 20 15.746705 15.746705 20 10.5 20 C 5.2532949 20 1 15.746705 1 10.5 C 1 5.2532947 5.2532949 1 10.5 1 z M 10.5 2 C 5.8055796 2 2 5.8055793 2 10.5 C 2 15.194421 5.8055796 19 10.5 19 C 15.19442 19 19 15.194421 19 10.5 C 19 5.8055793 15.19442 2 10.5 2 z M 10.5 9 C 11.328427 9 12 9.6715728 12 10.5 C 12 11.328427 11.328427 12 10.5 12 C 9.6715729 12 9 11.328427 9 10.5 C 9 9.6715728 9.6715729 9 10.5 9 z "
       transform="translate(0,1030.3622)"
       id="path2986" />
  </g>
</svg>
