<?xml version="1.0" encoding="UTF-8" standalone="no"?>
<!-- Created with Inkscape (http://www.inkscape.org/) -->
<svg xmlns:rdf="http://www.w3.org/1999/02/22-rdf-syntax-ns#" xmlns="http://www.w3.org/2000/svg" height="24" width="24" version="1.1" xmlns:cc="http://creativecommons.org/ns#" xmlns:dc="http://purl.org/dc/elements/1.1/">
 <title>Lookit icon - mono light - alt - 24px</title>
 <metadata>
  <rdf:RDF>
   <cc:Work rdf:about="">
    <dc:format>image/svg+xml</dc:format>
    <dc:type rdf:resource="http://purl.org/dc/dcmitype/StillImage"/>
    <dc:title>Lookit icon - mono light - alt - 24px</dc:title>
    <dc:creator>
     <cc:Agent>
      <dc:title>Harenome Ranaivoarivony Razanajato</dc:title>
     </cc:Agent>
    </dc:creator>
    <cc:license rdf:resource="http://www.gnu.org/licenses/gpl.html"/>
   </cc:Work>
  </rdf:RDF>
 </metadata>
 <g fill-rule="evenodd" transform="translate(0.99962074,-233)">
  <path opacity="0.3" fill="#FFF" d="M11,237c-4.9706,0-9,4.03-9,9,0,0.71,0.0945,1.4,0.25,2.06,0.2508-0.33,0.533-0.62,0.8438-0.87-0.0578-0.39-0.0938-0.79-0.0938-1.19,0-4.42,3.5817-8,8-8,4.418,0,8,3.58,8,8,0,1.04-0.204,2.03-0.562,2.94,0.342,0.03,0.661,0.1,0.968,0.25,0.376-0.99,0.594-2.07,0.594-3.19,0-4.97-4.029-9-9-9zm0,2c-3.866,0-7,3.13-7,7,0,0.19,0.0165,0.38,0.0312,0.56,1.094-0.48,2.4341-0.45,3.9688,0.44,2.853-4.94,9.555-1.68,9.688,1.09,0.204-0.65,0.312-1.37,0.312-2.09,0-3.87-3.134-7-7-7zm1.094,6.47c-1.287,0.1-2.6027,0.81-3.594,2.53-6.0181-3.47-8.537,5.25-5.5,7h16c2.928-2.93,0.267-5.74-2.5-5,1.129-1.96-1.574-4.75-4.406-4.53z"/>
  <path fill="#3c3c3c" d="M11,2c-4.9706,0-9,4.0294-9,9,0,0.71,0.0945,1.4,0.25,2.062,0.2508-0.329,0.533-0.62,0.8438-0.874-0.0578-0.388-0.0938-0.784-0.0938-1.188,0-4.4183,3.5817-8,8-8,4.418,0,8,3.5817,8,8,0,1.036-0.204,2.029-0.562,2.938,0.342,0.028,0.661,0.103,0.968,0.25,0.376-0.991,0.594-2.065,0.594-3.188,0-4.9706-4.029-9-9-9zm0,2c-3.866,0-7,3.134-7,7,0,0.189,0.0165,0.377,0.0312,0.562,1.094-0.479,2.4341-0.448,3.9688,0.438,2.853-4.9413,9.555-1.682,9.688,1.094,0.204-0.658,0.312-1.369,0.312-2.094,0-3.866-3.134-7-7-7zm1.094,6.469c-1.287,0.1-2.6027,0.814-3.594,2.531-6.0181-3.4745-8.537,5.247-5.5,7h16c2.928-2.928,0.267-5.741-2.5-5,1.129-1.956-1.574-4.752-4.406-4.531z" transform="translate(0,234)"/>
 </g>
</svg>
